<svg xmlns="http://www.w3.org/2000/svg" xmlns:xlink="http://www.w3.org/1999/xlink" contentStyleType="text/css" data-diagram-type="DESCRIPTION" height="591px" preserveAspectRatio="none" style="width:2177px;height:591px;background:#FFFFFF;" version="1.1" viewBox="0 0 2177 591" width="2177px" zoomAndPan="magnify"><title>Implanta&#231;&#227;o F&#237;sica &#8212; APEX GOVERNANCE</title><defs/><g><g class="title" data-source-line="3"><text fill="#000000" font-family="Verdana" font-size="22" font-weight="bold" lengthAdjust="spacing" textLength="453.3555" x="857.629" y="38.5181">Implanta&#231;&#227;o F&#237;sica &#8212; APEX GOVERNANCE</text></g><!--cluster LinuxNode--><g class="cluster" data-entity="LinuxNode" data-source-line="5" data-uid="ent0002" id="cluster_LinuxNode"><polygon fill="#FFFFFF" points="379.5,237.1041,389.5,227.1041,973.5,227.1041,973.5,564.9641,963.5,574.9641,379.5,574.9641,379.5,237.1041" style="stroke:#000000;stroke-width:1;"/><line style="stroke:#000000;stroke-width:1;" x1="963.5" x2="973.5" y1="237.1041" y2="227.1041"/><line style="stroke:#000000;stroke-width:1;" x1="379.5" x2="963.5" y1="237.1041" y2="237.1041"/><line style="stroke:#000000;stroke-width:1;" x1="963.5" x2="963.5" y1="237.1041" y2="574.9641"/><text fill="#000000" font-family="Verdana" font-size="14" font-weight="bold" lengthAdjust="spacing" textLength="289.4629" x="527.7686" y="255.07">Servidor de Aplica&#231;&#227;o (Linux) - App Server</text></g><!--cluster WinNode--><g class="cluster" data-entity="WinNode" data-source-line="12" data-uid="ent0007" id="cluster_WinNode"><polygon fill="#FFFFFF" points="1013.5,337.4641,1023.5,327.4641,1372.5,327.4641,1372.5,440.4641,1362.5,450.4641,1013.5,450.4641,1013.5,337.4641" style="stroke:#000000;stroke-width:1;"/><line style="stroke:#000000;stroke-width:1;" x1="1362.5" x2="1372.5" y1="337.4641" y2="327.4641"/><line style="stroke:#000000;stroke-width:1;" x1="1013.5" x2="1362.5" y1="337.4641" y2="337.4641"/><line style="stroke:#000000;stroke-width:1;" x1="1362.5" x2="1362.5" y1="337.4641" y2="450.4641"/><text fill="#000000" font-family="Verdana" font-size="14" font-weight="bold" lengthAdjust="spacing" textLength="283.8209" x="1047.0895" y="355.43">Servidor de Banco (Windows / DB Server)</text></g><!--cluster AgentNode--><g class="cluster" data-entity="AgentNode" data-source-line="16" data-uid="ent0009" id="cluster_AgentNode"><polygon fill="#FFFFFF" points="942.5,71.9641,952.5,61.9641,1258.5,61.9641,1258.5,175.9641,1248.5,185.9641,942.5,185.9641,942.5,71.9641" style="stroke:#000000;stroke-width:1;"/><line style="stroke:#000000;stroke-width:1;" x1="1248.5" x2="1258.5" y1="71.9641" y2="61.9641"/><line style="stroke:#000000;stroke-width:1;" x1="942.5" x2="1248.5" y1="71.9641" y2="71.9641"/><line style="stroke:#000000;stroke-width:1;" x1="1248.5" x2="1248.5" y1="71.9641" y2="185.9641"/><text fill="#000000" font-family="Verdana" font-size="14" font-weight="bold" lengthAdjust="spacing" textLength="240.2251" x="976.3874" y="89.93">Agente na Rede (Windows Service)</text></g><!--cluster Corp--><g class="cluster" data-entity="Corp" data-source-line="20" data-uid="ent0011" id="cluster_Corp"><polygon fill="#FFFFFF" points="1412.5,336.9641,1422.5,326.9641,1757.5,326.9641,1757.5,440.9641,1747.5,450.9641,1412.5,450.9641,1412.5,336.9641" style="stroke:#000000;stroke-width:1;"/><line style="stroke:#000000;stroke-width:1;" x1="1747.5" x2="1757.5" y1="336.9641" y2="326.9641"/><line style="stroke:#000000;stroke-width:1;" x1="1412.5" x2="1747.5" y1="336.9641" y2="336.9641"/><line style="stroke:#000000;stroke-width:1;" x1="1747.5" x2="1747.5" y1="336.9641" y2="450.9641"/><text fill="#000000" font-family="Verdana" font-size="14" font-weight="bold" lengthAdjust="spacing" textLength="188.5093" x="1486.7454" y="354.93">Infraestrutura Corporativa</text></g><!--entity Django--><g class="entity" data-entity="Django" data-source-line="6" data-uid="ent0003" id="entity_Django"><rect fill="#FFFFFF" height="49.0679" rx="2.5" ry="2.5" style="stroke:#000000;stroke-width:1;" width="223.2593" x="551" y="377.9641"/><rect fill="#FFFFFF" height="10" style="stroke:#000000;stroke-width:1;" width="15" x="754.2593" y="382.9641"/><rect fill="#FFFFFF" height="2" style="stroke:#000000;stroke-width:1;" width="4" x="752.2593" y="384.9641"/><rect fill="#FFFFFF" height="2" style="stroke:#000000;stroke-width:1;" width="4" x="752.2593" y="388.9641"/><text fill="#000000" font-family="Verdana" font-size="14" lengthAdjust="spacing" textLength="183.2593" x="566" y="412.93">Django (Gunicorn / Uvicorn)</text></g><!--entity Celery--><g class="entity" data-entity="Celery" data-source-line="7" data-uid="ent0004" id="entity_Celery"><rect fill="#FFFFFF" height="49.0679" rx="2.5" ry="2.5" style="stroke:#000000;stroke-width:1;" width="139.9456" x="809.5" y="377.9641"/><rect fill="#FFFFFF" height="10" style="stroke:#000000;stroke-width:1;" width="15" x="929.4456" y="382.9641"/><rect fill="#FFFFFF" height="2" style="stroke:#000000;stroke-width:1;" width="4" x="927.4456" y="384.9641"/><rect fill="#FFFFFF" height="2" style="stroke:#000000;stroke-width:1;" width="4" x="927.4456" y="388.9641"/><text fill="#000000" font-family="Verdana" font-size="14" lengthAdjust="spacing" textLength="99.9456" x="824.5" y="412.93">Celery Workers</text></g><!--entity Redis--><g class="entity" data-entity="Redis" data-source-line="8" data-uid="ent0005" id="entity_Redis"><path d="M408.5,387.9641 L510.5776,387.9641 C515.5776,387.9641 515.5776,402.4981 515.5776,402.4981 C515.5776,402.4981 515.5776,417.032 510.5776,417.032 L408.5,417.032 C403.5,417.032 403.5,402.4981 403.5,402.4981 C403.5,402.4981 403.5,387.9641 408.5,387.9641" fill="#FFFFFF" style="stroke:#000000;stroke-width:1;"/><path d="M510.5776,387.9641 C505.5776,387.9641 505.5776,402.4981 505.5776,402.4981 C505.5776,417.032 510.5776,417.032 510.5776,417.032" fill="none" style="stroke:#000000;stroke-width:1;"/><text fill="#000000" font-family="Verdana" font-size="14" lengthAdjust="spacing" textLength="92.0776" x="408.5" y="407.93">Redis (Broker)</text></g><!--entity Static--><g class="entity" data-entity="Static" data-source-line="9" data-uid="ent0006" id="entity_Static"><path d="M605.5,493.9641 L646.5,493.9641 A3.75,3.75 0 0 1 649,496.4641 L656,514.9641 L719.6377,514.9641 A2.5,2.5 0 0 1 722.1377,517.4641 L722.1377,548.532 A2.5,2.5 0 0 1 719.6377,551.032 L605.5,551.032 A2.5,2.5 0 0 1 603,548.532 L603,496.4641 A2.5,2.5 0 0 1 605.5,493.9641" fill="#FFFFFF" style="stroke:#000000;stroke-width:1;"/><line style="stroke:#000000;stroke-width:1;" x1="603" x2="656" y1="514.9641" y2="514.9641"/><text fill="#000000" font-family="Verdana" font-size="14" lengthAdjust="spacing" textLength="89.1377" x="613" y="536.93">Static / Media</text></g><!--entity Postgres--><g class="entity" data-entity="Postgres" data-source-line="13" data-uid="ent0008" id="entity_Postgres"><path d="M1187,388.4641 C1187,378.4641 1245.2998,378.4641 1245.2998,378.4641 C1245.2998,378.4641 1303.5996,378.4641 1303.5996,388.4641 L1303.5996,416.532 C1303.5996,426.532 1245.2998,426.532 1245.2998,426.532 C1245.2998,426.532 1187,426.532 1187,416.532 L1187,388.4641" fill="#FFFFFF" style="stroke:#000000;stroke-width:1;"/><path d="M1187,388.4641 C1187,398.4641 1245.2998,398.4641 1245.2998,398.4641 C1245.2998,398.4641 1303.5996,398.4641 1303.5996,388.4641" fill="none" style="stroke:#000000;stroke-width:1;"/><text fill="#000000" font-family="Verdana" font-size="14" lengthAdjust="spacing" textLength="96.5996" x="1197" y="417.43">PostgreSQL 16</text></g><!--entity AgentService--><g class="entity" data-entity="AgentService" data-source-line="17" data-uid="ent0010" id="entity_AgentService"><rect fill="#FFFFFF" height="49.0679" rx="2.5" ry="2.5" style="stroke:#000000;stroke-width:1;" width="166.2375" x="1047.5" y="112.9641"/><rect fill="#FFFFFF" height="10" style="stroke:#000000;stroke-width:1;" width="15" x="1193.7375" y="117.9641"/><rect fill="#FFFFFF" height="2" style="stroke:#000000;stroke-width:1;" width="4" x="1191.7375" y="119.9641"/><rect fill="#FFFFFF" height="2" style="stroke:#000000;stroke-width:1;" width="4" x="1191.7375" y="123.9641"/><text fill="#000000" font-family="Verdana" font-size="14" lengthAdjust="spacing" textLength="126.2375" x="1062.5" y="147.93">Agente AD Monitor</text></g><!--entity AD--><g class="entity" data-entity="AD" data-source-line="21" data-uid="ent0012" id="entity_AD"><rect fill="#FFFFFF" height="49.0679" rx="2.5" ry="2.5" style="stroke:#000000;stroke-width:1;" width="277.4111" x="1456" y="377.9641"/><rect fill="#FFFFFF" height="10" style="stroke:#000000;stroke-width:1;" width="15" x="1713.4111" y="382.9641"/><rect fill="#FFFFFF" height="2" style="stroke:#000000;stroke-width:1;" width="4" x="1711.4111" y="384.9641"/><rect fill="#FFFFFF" height="2" style="stroke:#000000;stroke-width:1;" width="4" x="1711.4111" y="388.9641"/><text fill="#000000" font-family="Verdana" font-size="14" lengthAdjust="spacing" textLength="237.4111" x="1471" y="412.93">Active Directory (Domain Controller)</text></g><g class="entity" data-entity="GMN18" data-source-line="33" data-uid="ent0019" id="entity_GMN18"><path d="M11,221.9641 L11,302.7882 L356.1422,302.7882 L356.1422,231.9641 L346.1422,221.9641 L11,221.9641" fill="#FFFFFF" style="stroke:#000000;stroke-width:1;"/><path d="M346.1422,221.9641 L346.1422,231.9641 L356.1422,231.9641 L346.1422,221.9641" fill="#FFFFFF" style="stroke:#000000;stroke-width:1;"/><text fill="#000000" font-family="Verdana" font-size="13" lengthAdjust="spacing" textLength="70.3041" x="17" y="240.8611">App Server:</text><text fill="#000000" font-family="Verdana" font-size="13" lengthAdjust="spacing" textLength="115.7261" x="17" y="258.5671">&#8226; Ubuntu 24.04 LTS</text><text fill="#000000" font-family="Verdana" font-size="13" lengthAdjust="spacing" textLength="166.8031" x="17" y="276.2731">&#8226; Gunicorn/Uvicorn + Nginx</text><text fill="#000000" font-family="Verdana" font-size="13" lengthAdjust="spacing" textLength="324.1422" x="17" y="293.9792">&#8226; Celery workers (auto-scale via systemd / supervisor)</text></g><g class="entity" data-entity="GMN21" data-source-line="40" data-uid="ent0022" id="entity_GMN21"><path d="M1781.5,370.9641 L1781.5,434.0822 L2087.6812,434.0822 L2087.6812,380.9641 L2077.6812,370.9641 L1781.5,370.9641" fill="#FFFFFF" style="stroke:#000000;stroke-width:1;"/><path d="M2077.6812,370.9641 L2077.6812,380.9641 L2087.6812,380.9641 L2077.6812,370.9641" fill="#FFFFFF" style="stroke:#000000;stroke-width:1;"/><text fill="#000000" font-family="Verdana" font-size="13" lengthAdjust="spacing" textLength="63.9471" x="1787.5" y="389.8611">DB Server:</text><text fill="#000000" font-family="Verdana" font-size="13" lengthAdjust="spacing" textLength="126.2821" x="1787.5" y="407.5671">&#8226; Windows 10/Server</text><text fill="#000000" font-family="Verdana" font-size="13" lengthAdjust="spacing" textLength="285.1812" x="1787.5" y="425.2731">&#8226; PostgreSQL 16 (standalone / replica opcional)</text></g><g class="entity" data-entity="GMN24" data-source-line="45" data-uid="ent0025" id="entity_GMN24"><path d="M1698.5,508.4641 L1698.5,536.1701 L2170.6134,536.1701 L2170.6134,518.4641 L2160.6134,508.4641 L1698.5,508.4641" fill="#FFFFFF" style="stroke:#000000;stroke-width:1;"/><path d="M2160.6134,508.4641 L2160.6134,518.4641 L2170.6134,518.4641 L2160.6134,508.4641" fill="#FFFFFF" style="stroke:#000000;stroke-width:1;"/><text fill="#000000" font-family="Verdana" font-size="13" lengthAdjust="spacing" textLength="451.1134" x="1704.5" y="527.3611">Backup / Snapshot schedule, Firewall rules, TLS mutual auth (agent &#8596; API)</text></g><!--link LinuxNode to WinNode--><g class="link" data-entity-1="LinuxNode" data-entity-2="WinNode" data-source-line="25" data-uid="lnk13" id="link_LinuxNode_WinNode"><path d="M973.7674,402.9641 C974.0418,402.9641 974.3222,402.9641 974.6085,402.9641 C975.7536,402.9641 976.9923,402.9641 978.3165,402.9641 C980.9648,402.9641 983.9546,402.9641 987.2192,402.9641 C993.7485,402.9641 1001.3773,402.9641 1009.5728,402.9641 C1010.5972,402.9641 1011.6305,402.9641 1012.6716,402.9641 C1012.9318,402.9641 1007.1926,402.9641 1007.4538,402.9641" fill="none" id="LinuxNode-to-WinNode" style="stroke:#000000;stroke-width:1;"/><polygon fill="#000000" points="1013.4538,402.9641,1004.4538,398.9641,1008.4538,402.9641,1004.4538,406.9641,1013.4538,402.9641" style="stroke:#000000;stroke-width:1;"/><text fill="#000000" font-family="Verdana" font-size="13" lengthAdjust="spacing" textLength="171.3791" x="967.9" y="398.8611">TCP/IP (5432) - conex&#245;es DB</text></g><!--link LinuxNode to Redis--><g class="link" data-entity-1="LinuxNode" data-entity-2="Redis" data-source-line="26" data-uid="lnk14" id="link_LinuxNode_Redis"><path d="M965.41,262.9641 C957.62,262.9641 459.5,262.9641 459.5,262.9641 C459.5,262.9641 459.5,345.9841 459.5,381.7941" fill="none" id="LinuxNode-to-Redis" style="stroke:#000000;stroke-width:1;"/><polygon fill="#000000" points="459.5,387.7941,463.5,378.7941,459.5,382.7941,455.5,378.7941,459.5,387.7941" style="stroke:#000000;stroke-width:1;"/><text fill="#000000" font-family="Verdana" font-size="13" lengthAdjust="spacing" textLength="133.1591" x="516.04" y="277.8611">TCP/IP (6379) - broker</text></g><!--link AgentNode to LinuxNode--><g class="link" data-entity-1="AgentNode" data-entity-2="LinuxNode" data-source-line="27" data-uid="lnk15" id="link_AgentNode_LinuxNode"><path d="M965.5,186.2094 C965.5,186.6624 965.5,187.1163 965.5,187.5712 C965.5,188.4811 965.5,189.3947 965.5,190.3112 C965.5,192.1443 965.5,193.9891 965.5,195.8391 C965.5,203.2391 965.5,210.7219 965.5,217.8664 C965.5,219.6526 965.5,221.4176 965.5,223.1548 C965.5,224.0235 965.5,224.8852 965.5,225.7391 C965.5,226.1661 965.5,220.5911 965.5,221.0141" fill="none" id="AgentNode-to-LinuxNode" style="stroke:#000000;stroke-width:1;"/><polygon fill="#000000" points="965.5,227.0141,969.5,218.0141,965.5,222.0141,961.5,218.0141,965.5,227.0141" style="stroke:#000000;stroke-width:1;"/><text fill="#000000" font-family="Verdana" font-size="13" lengthAdjust="spacing" textLength="232.2972" x="732.5" y="182.7511">HTTPS (443) / API POST /api/auditoria/</text></g><!--link AgentNode to AD--><g class="link" data-entity-1="AgentNode" data-entity-2="AD" data-source-line="28" data-uid="lnk16" id="link_AgentNode_AD"><path d="M991.5,186.0279 C991.5,186.5485 991.5,187.0415 991.5,187.5042 C991.5,188.4295 991.5,189.2335 991.5,189.8942 C991.5,191.2157 991.5,191.9641 991.5,191.9641 C991.5,191.9641 1594.5,191.9641 1594.5,191.9641 C1594.5,191.9641 1594.5,316.3741 1594.5,371.9041" fill="none" id="AgentNode-to-AD" style="stroke:#000000;stroke-width:1;"/><polygon fill="#000000" points="1594.5,377.9041,1598.5,368.9041,1594.5,372.9041,1590.5,368.9041,1594.5,377.9041" style="stroke:#000000;stroke-width:1;"/><text fill="#000000" font-family="Verdana" font-size="13" lengthAdjust="spacing" textLength="164.6451" x="1194.03" y="187.8611">Leitura local / Event Viewer</text></g><!--link LinuxNode to Corp--><g class="link" data-entity-1="LinuxNode" data-entity-2="Corp" data-source-line="29" data-uid="lnk17" id="link_LinuxNode_Corp"><path d="M974.0615,262.9641 C974.3254,262.9641 974.595,262.9641 974.8703,262.9641 C975.9714,262.9641 977.1631,262.9641 978.4422,262.9641 C981.0003,262.9641 983.9077,262.9641 987.1371,262.9641 C1000.0548,262.9641 1018.1259,262.9641 1039.6144,262.9641 C1082.5913,262.9641 1139.2375,262.9641 1195.665,262.9641 C1308.52,262.9641 1420.5,262.9641 1420.5,262.9641 C1420.5,262.9641 1420.5,271.1466 1420.5,283.5482 C1420.5,289.7489 1420.5,297.0045 1420.5,304.8194 C1420.5,308.7268 1420.5,312.7741 1420.5,316.8993 C1420.5,318.9619 1420.5,321.0439 1420.5,323.1377 C1420.5,324.1846 1420.5,319.2345 1420.5,320.2863" fill="none" id="LinuxNode-to-Corp" style="stroke:#000000;stroke-width:1;"/><polygon fill="#000000" points="1420.5,326.2863,1424.5,317.2863,1420.5,321.2863,1416.5,317.2863,1420.5,326.2863" style="stroke:#000000;stroke-width:1;"/><text fill="#000000" font-family="Verdana" font-size="13" lengthAdjust="spacing" textLength="323.7003" x="938.59" y="258.8611">LDAP/LDAPS (389/636) - leitura AD (quando aplic&#225;vel)</text></g><!--link GMN18 to LinuxNode--><g class="link" data-entity-1="GMN18" data-entity-2="LinuxNode" data-source-line="33" data-uid="lnk20" id="link_GMN18_LinuxNode"><path d="M356.08,262.9641 C363.2203,262.9641 370.5037,262.9641 377.9145,262.9641" fill="none" id="GMN18-LinuxNode" style="stroke:#000000;stroke-width:1;stroke-dasharray:7,7;"/></g><!--link WinNode to GMN21--><g class="link" data-entity-1="WinNode" data-entity-2="GMN21" data-source-line="40" data-uid="lnk23" id="link_WinNode_GMN21"><path d="M1374.8436,430.9641 C1377.0454,430.9641 1379.2535,430.9641 1381.4677,430.9641 C1390.3245,430.9641 1399.2788,430.9641 1408.3113,430.9641 C1426.3764,430.9641 1444.7546,430.9641 1463.2925,430.9641 C1500.3682,430.9641 1538.0824,430.9641 1575.2077,430.9641 C1649.4581,430.9641 1721.3525,430.9641 1781.07,430.9641" fill="none" id="WinNode-GMN21" style="stroke:#000000;stroke-width:1;stroke-dasharray:7,7;"/></g><!--link GMN21 to GMN24--><g class="link" data-entity-1="GMN21" data-entity-2="GMN24" data-source-line="45" data-uid="lnk26" id="link_GMN21_GMN24"><path d="M1934.5,433.9941 C1934.5,458.0241 1934.5,489.9741 1934.5,508.1741" fill="none" id="GMN21-GMN24" style="stroke:#000000;stroke-width:1;stroke-dasharray:7,7;"/></g><!--SRC=[RLHDRjD05Dxx58zkI4I3Mn82pG8fYTCIAKrDaxP8YCN4Vac6JcRScN7I225rnGcu0B1WnP8Jv2Oz2MziDsuBNbYUDz_tllVh9tQE2uH4C2uzSybbmZHRWE0IxJf1KDhEbMUv5GZz1S6aPPjVcvyA3ZU_3OyOtDvyWtROUmz79-Uzqs5xsErvdbGnmiu8zPB7IWCTseaWT4wj3BXChwjG8si23eLw1vY1p3vqtCyUq1EfHQ8aIWixmIScPqGzIYMFb9RWmzao-wfcrFp-CQkB0lKQBfI-H6qoO6xAW5SffXJcASRSGAMZ5O5oRvafmqoLY55JBfPP7f7gCLsn39IRl2__IxV3P4JHNd0PgvKXMj0f4iq5wE9UdZ6pRC8C-GYLiJEDetS3s6zcoC9YIftsZ793aCo5YQL8fXzXBf21xabyA5Zj08wLv5RfZrjOGImL-dAg6HghKvjg1bsb4wKfsMMUk3jltKPaHWYuneYShg4Ig0KD4u6arKfGiQkvKk3yFtLslDxyGGE9vZBY2QDAbuslrTviYzE2SJVq-o5KNZRgBzoyH5joq7b4ohjOKfhrLmUECidQwfNrSE2IseAtut4uWagZKQzIdzfX7yAJqHXybd2VfR4h5MV-8mTKnXOCa6Vr4IfYWhYzfHkwSuuh4dmONLOoOWJjq7Sl4go_Fl2RzQQBKHIEo6lbAcNKJc1kNpRVboYghced4qDDSllZaYUd_FuoKjkejGAd5jIqJ8uwL2vOYqwtDp_WR99AcyABnlEz1Wp6ey9yjrT-iLNm38OpBg-BwsAHLlaYGOMbLjKCfOsmv0pCsbXSn5G3aoPkcepILGzb32uoBuzFyzay2x3eBxdURiLTT7UplB_dvnU5_S5UGCLOAX8JD0qagJ7xju1A8gua4_y8JvIrQj6YfOmkquGO8yaICrSMJ3J7E1Mu2uSqm2ic16WwcbqO3qQmeF6dnbAkSyhOzHzklxg_NR_w5m00]--></g></svg>