<svg xmlns="http://www.w3.org/2000/svg" xmlns:xlink="http://www.w3.org/1999/xlink" contentStyleType="text/css" data-diagram-type="ACTIVITY" height="1204px" preserveAspectRatio="none" style="width:1147px;height:1204px;background:#FFFFFF;" version="1.1" viewBox="0 0 1147 1204" width="1147px" zoomAndPan="magnify"><title>Pipeline de Engenharia de Dados (ETL) &#8212; Swimlanes</title><defs/><g><g class="title" data-source-line="3"><text fill="#000000" font-family="Verdana" font-size="22" font-weight="bold" lengthAdjust="spacing" textLength="568.2177" x="287.9743" y="38.5181">Pipeline de Engenharia de Dados (ETL) &#8212; Swimlanes</text></g><rect fill="#FFFFFF" height="24.5158" style="stroke:#FFFFFF;stroke-width:1;" width="1124.1664" x="10" y="59.7381"/><ellipse cx="128.9247" cy="99.2539" fill="#FFFFFF" rx="10" ry="10" style="stroke:#000000;stroke-width:1;"/><rect fill="#FFFFFF" height="36.3441" rx="12.5" ry="12.5" style="stroke:#000000;stroke-width:1;" width="225.8495" x="16" y="129.2539"/><text fill="#000000" font-family="Verdana" font-size="12" lengthAdjust="spacing" textLength="205.8495" x="26" y="152.082">Aciona "Executar Pipeline Completo"</text><line style="stroke:#000000;stroke-width:1;" x1="10" x2="10" y1="59.7381" y2="1197.8341"/><rect fill="#FFFFFF" height="36.3441" rx="12.5" ry="12.5" style="stroke:#000000;stroke-width:1;" width="122.2407" x="267.7796" y="185.598"/><text fill="#000000" font-family="Verdana" font-size="12" lengthAdjust="spacing" textLength="102.2407" x="277.7796" y="208.4261">Recebe requisi&#231;&#227;o</text><rect fill="#FFFFFF" height="36.3441" rx="12.5" ry="12.5" style="stroke:#000000;stroke-width:1;" width="154.101" x="251.8495" y="241.9421"/><text fill="#000000" font-family="Verdana" font-size="12" lengthAdjust="spacing" textLength="134.101" x="261.8495" y="264.7702">Enfileira tarefa no Redis</text><line style="stroke:#000000;stroke-width:1;" x1="245.8495" x2="245.8495" y1="59.7381" y2="1197.8341"/><rect fill="#FFFFFF" height="36.3441" rx="12.5" ry="12.5" style="stroke:#000000;stroke-width:1;" width="203.3013" x="415.9505" y="298.2863"/><text fill="#000000" font-family="Verdana" font-size="12" lengthAdjust="spacing" textLength="183.3013" x="425.9505" y="321.1143">Fila: executar_pipeline_completo</text><line style="stroke:#000000;stroke-width:1;" x1="409.9505" x2="409.9505" y1="59.7381" y2="1197.8341"/><rect fill="#FFFFFF" height="36.3441" rx="12.5" ry="12.5" style="stroke:#000000;stroke-width:1;" width="110.1806" x="723.3603" y="354.6304"/><text fill="#000000" font-family="Verdana" font-size="12" lengthAdjust="spacing" textLength="90.1806" x="733.3603" y="377.4585">Consume tarefa</text><rect fill="#FFFFFF" height="200.1003" style="stroke:#000000;stroke-width:1;" width="278.6457" x="639.1278" y="400.9745"/><path d="M706.0516,400.9745 L706.0516,413.0424 L696.0516,423.0424 L639.1278,423.0424" fill="none" style="stroke:#000000;stroke-width:1;"/><text fill="#000000" font-family="Verdana" font-size="14" lengthAdjust="spacing" textLength="56.9238" x="642.1278" y="416.9404">Extra&#231;&#227;o</text><rect fill="#FFFFFF" height="36.3441" rx="12.5" ry="12.5" style="stroke:#000000;stroke-width:1;" width="195.6812" x="680.61" y="440.0424"/><text fill="#000000" font-family="Verdana" font-size="12" lengthAdjust="spacing" textLength="175.6812" x="690.61" y="462.8705">Conecta ao LDAP/AD via LDAPS</text><rect fill="#FFFFFF" height="36.3441" rx="12.5" ry="12.5" style="stroke:#000000;stroke-width:1;" width="258.6457" x="649.1278" y="496.3865"/><text fill="#000000" font-family="Verdana" font-size="12" lengthAdjust="spacing" textLength="238.6457" x="659.1278" y="519.2146">Obt&#233;m objetos (users, groups, computers)</text><rect fill="#FFFFFF" height="36.3441" rx="12.5" ry="12.5" style="stroke:#000000;stroke-width:1;" width="155.217" x="700.8421" y="552.7306"/><text fill="#000000" font-family="Verdana" font-size="12" lengthAdjust="spacing" textLength="135.217" x="710.8421" y="575.5587">Gerar CSVs tempor&#225;rios</text><rect fill="#FFFFFF" height="143.7561" style="stroke:#000000;stroke-width:1;" width="298.3978" x="629.2517" y="611.0747"/><path d="M694.2295,611.0747 L694.2295,623.1427 L684.2295,633.1427 L629.2517,633.1427" fill="none" style="stroke:#000000;stroke-width:1;"/><text fill="#000000" font-family="Verdana" font-size="14" lengthAdjust="spacing" textLength="54.9778" x="632.2517" y="627.0407">Limpeza</text><rect fill="#FFFFFF" height="36.3441" rx="12.5" ry="12.5" style="stroke:#000000;stroke-width:1;" width="204.2133" x="676.344" y="650.1427"/><text fill="#000000" font-family="Verdana" font-size="12" lengthAdjust="spacing" textLength="184.2133" x="686.344" y="672.9708">Pandas - limpeza e normaliza&#231;&#227;o</text><rect fill="#FFFFFF" height="36.3441" rx="12.5" ry="12.5" style="stroke:#000000;stroke-width:1;" width="278.3978" x="639.2517" y="706.4868"/><text fill="#000000" font-family="Verdana" font-size="12" lengthAdjust="spacing" textLength="258.3978" x="649.2517" y="729.3149">Remover caracteres nulos, trim, normaliza&#231;&#227;o</text><rect fill="#FFFFFF" height="87.412" style="stroke:#000000;stroke-width:1;" width="212.3933" x="672.254" y="764.8309"/><path d="M774.9197,764.8309 L774.9197,776.8988 L764.9197,786.8988 L672.254,786.8988" fill="none" style="stroke:#000000;stroke-width:1;"/><text fill="#000000" font-family="Verdana" font-size="14" lengthAdjust="spacing" textLength="92.6657" x="675.254" y="780.7968">Carga Staging</text><rect fill="#FFFFFF" height="36.3441" rx="12.5" ry="12.5" style="stroke:#000000;stroke-width:1;" width="192.3933" x="682.254" y="803.8988"/><text fill="#000000" font-family="Verdana" font-size="12" lengthAdjust="spacing" textLength="172.3933" x="692.254" y="826.7269">TRUNCATE / COPY (bulk insert)</text><rect fill="#FFFFFF" height="237.2471" style="stroke:#000000;stroke-width:1;" width="231.9893" x="662.456" y="862.2429"/><path d="M838.9574,862.2429 L838.9574,874.3108 L828.9574,884.3108 L662.456,884.3108" fill="none" style="stroke:#000000;stroke-width:1;"/><text fill="#000000" font-family="Verdana" font-size="14" lengthAdjust="spacing" textLength="166.5014" x="665.456" y="878.2089">Transforma&#231;&#227;o Produ&#231;&#227;o</text><rect fill="#FFFFFF" height="36.3441" rx="12.5" ry="12.5" style="stroke:#000000;stroke-width:1;" width="211.9893" x="672.456" y="901.3108"/><text fill="#000000" font-family="Verdana" font-size="12" lengthAdjust="spacing" textLength="191.9893" x="682.456" y="924.1389">INSERT ... SELECT ... FROM staging</text><rect fill="#FFFFFF" height="36.3441" rx="12.5" ry="12.5" style="stroke:#000000;stroke-width:1;" width="141.0809" x="707.9102" y="1007.1459"/><text fill="#000000" font-family="Verdana" font-size="12" lengthAdjust="spacing" textLength="121.0809" x="717.9102" y="1029.974">Registra etl_error_log</text><polygon fill="#FFFFFF" points="737.0799,957.655,819.8214,957.655,831.8214,969.655,819.8214,981.655,737.0799,981.655,725.0799,969.655,737.0799,957.655" style="stroke:#000000;stroke-width:1;"/><text fill="#000000" font-family="Verdana" font-size="11" lengthAdjust="spacing" textLength="18.3919" x="782.4507" y="993.4139">sim</text><text fill="#000000" font-family="Verdana" font-size="11" lengthAdjust="spacing" textLength="82.7414" x="737.0799" y="973.9229">erro convers&#227;o?</text><polygon fill="#FFFFFF" points="778.4507,1063.49,790.4507,1075.49,778.4507,1087.49,766.4507,1075.49,778.4507,1063.49" style="stroke:#000000;stroke-width:1;"/><rect fill="#FFFFFF" height="36.3441" rx="12.5" ry="12.5" style="stroke:#000000;stroke-width:1;" width="284.7219" x="636.0897" y="1119.49"/><text fill="#000000" font-family="Verdana" font-size="12" lengthAdjust="spacing" textLength="264.7219" x="646.0897" y="1142.3181">Atualiza ExecucaoPipeline(status=CONCLU&#205;DO)</text><line style="stroke:#000000;stroke-width:1;" x1="623.2517" x2="623.2517" y1="59.7381" y2="1197.8341"/><ellipse cx="1032.738" cy="1186.8341" fill="none" rx="11" ry="11" style="stroke:#000000;stroke-width:1;"/><ellipse cx="1032.738" cy="1186.8341" fill="#FFFFFF" rx="6" ry="6" style="stroke:#000000;stroke-width:1;"/><line style="stroke:#000000;stroke-width:1;" x1="931.6496" x2="931.6496" y1="59.7381" y2="1197.8341"/><line style="stroke:#000000;stroke-width:1;" x1="1132.8264" x2="1132.8264" y1="59.7381" y2="1197.8341"/><line style="stroke:#000000;stroke-width:1;" x1="128.9247" x2="128.9247" y1="109.2539" y2="129.2539"/><polygon fill="#000000" points="124.9247,119.2539,128.9247,129.2539,132.9247,119.2539,128.9247,123.2539" style="stroke:#000000;stroke-width:1;"/><line style="stroke:#000000;stroke-width:1;" x1="328.9" x2="328.9" y1="221.9421" y2="241.9421"/><polygon fill="#000000" points="324.9,231.9421,328.9,241.9421,332.9,231.9421,328.9,235.9421" style="stroke:#000000;stroke-width:1;"/><line style="stroke:#000000;stroke-width:1;" x1="778.4507" x2="778.4507" y1="476.3865" y2="496.3865"/><polygon fill="#000000" points="774.4507,486.3865,778.4507,496.3865,782.4507,486.3865,778.4507,490.3865" style="stroke:#000000;stroke-width:1;"/><line style="stroke:#000000;stroke-width:1;" x1="778.4507" x2="778.4507" y1="532.7306" y2="552.7306"/><polygon fill="#000000" points="774.4507,542.7306,778.4507,552.7306,782.4507,542.7306,778.4507,546.7306" style="stroke:#000000;stroke-width:1;"/><line style="stroke:#000000;stroke-width:1;" x1="778.4507" x2="778.4507" y1="390.9745" y2="440.0424"/><polygon fill="#000000" points="774.4507,430.0424,778.4507,440.0424,782.4507,430.0424,778.4507,434.0424" style="stroke:#000000;stroke-width:1;"/><line style="stroke:#000000;stroke-width:1;" x1="778.4507" x2="778.4507" y1="686.4868" y2="706.4868"/><polygon fill="#000000" points="774.4507,696.4868,778.4507,706.4868,782.4507,696.4868,778.4507,700.4868" style="stroke:#000000;stroke-width:1;"/><line style="stroke:#000000;stroke-width:1;" x1="778.4507" x2="778.4507" y1="589.0747" y2="650.1427"/><polygon fill="#000000" points="774.4507,640.1427,778.4507,650.1427,782.4507,640.1427,778.4507,644.1427" style="stroke:#000000;stroke-width:1;"/><line style="stroke:#000000;stroke-width:1;" x1="778.4507" x2="778.4507" y1="742.8309" y2="803.8988"/><polygon fill="#000000" points="774.4507,793.8988,778.4507,803.8988,782.4507,793.8988,778.4507,797.8988" style="stroke:#000000;stroke-width:1;"/><line style="stroke:#000000;stroke-width:1;" x1="778.4507" x2="778.4507" y1="981.655" y2="1007.1459"/><polygon fill="#000000" points="774.4507,997.1459,778.4507,1007.1459,782.4507,997.1459,778.4507,1001.1459" style="stroke:#000000;stroke-width:1;"/><line style="stroke:#000000;stroke-width:1;" x1="831.8214" x2="858.9911" y1="969.655" y2="969.655"/><polygon fill="#000000" points="854.9911,1015.318,858.9911,1025.318,862.9911,1015.318,858.9911,1019.318" style="stroke:#000000;stroke-width:1;"/><line style="stroke:#000000;stroke-width:1;" x1="858.9911" x2="858.9911" y1="969.655" y2="1075.49"/><line style="stroke:#000000;stroke-width:1;" x1="858.9911" x2="790.4507" y1="1075.49" y2="1075.49"/><polygon fill="#000000" points="800.4507,1071.49,790.4507,1075.49,800.4507,1079.49,796.4507,1075.49" style="stroke:#000000;stroke-width:1;"/><line style="stroke:#000000;stroke-width:1;" x1="778.4507" x2="778.4507" y1="1043.49" y2="1063.49"/><polygon fill="#000000" points="774.4507,1053.49,778.4507,1063.49,782.4507,1053.49,778.4507,1057.49" style="stroke:#000000;stroke-width:1;"/><line style="stroke:#000000;stroke-width:1;" x1="778.4507" x2="778.4507" y1="937.655" y2="957.655"/><polygon fill="#000000" points="774.4507,947.655,778.4507,957.655,782.4507,947.655,778.4507,951.655" style="stroke:#000000;stroke-width:1;"/><line style="stroke:#000000;stroke-width:1;" x1="778.4507" x2="778.4507" y1="840.2429" y2="901.3108"/><polygon fill="#000000" points="774.4507,891.3108,778.4507,901.3108,782.4507,891.3108,778.4507,895.3108" style="stroke:#000000;stroke-width:1;"/><line style="stroke:#000000;stroke-width:1;" x1="778.4507" x2="778.4507" y1="1087.49" y2="1119.49"/><polygon fill="#000000" points="774.4507,1109.49,778.4507,1119.49,782.4507,1109.49,778.4507,1113.49" style="stroke:#000000;stroke-width:1;"/><line style="stroke:#000000;stroke-width:1;" x1="128.9247" x2="128.9247" y1="165.598" y2="170.598"/><line style="stroke:#000000;stroke-width:1;" x1="128.9247" x2="328.9" y1="170.598" y2="170.598"/><line style="stroke:#000000;stroke-width:1;" x1="328.9" x2="328.9" y1="170.598" y2="185.598"/><polygon fill="#000000" points="324.9,175.598,328.9,185.598,332.9,175.598,328.9,179.598" style="stroke:#000000;stroke-width:1;"/><line style="stroke:#000000;stroke-width:1;" x1="328.9" x2="328.9" y1="278.2863" y2="283.2863"/><line style="stroke:#000000;stroke-width:1;" x1="328.9" x2="517.6011" y1="283.2863" y2="283.2863"/><line style="stroke:#000000;stroke-width:1;" x1="517.6011" x2="517.6011" y1="283.2863" y2="298.2863"/><polygon fill="#000000" points="513.6011,288.2863,517.6011,298.2863,521.6011,288.2863,517.6011,292.2863" style="stroke:#000000;stroke-width:1;"/><line style="stroke:#000000;stroke-width:1;" x1="517.6011" x2="517.6011" y1="334.6304" y2="339.6304"/><line style="stroke:#000000;stroke-width:1;" x1="517.6011" x2="778.4507" y1="339.6304" y2="339.6304"/><line style="stroke:#000000;stroke-width:1;" x1="778.4507" x2="778.4507" y1="339.6304" y2="354.6304"/><polygon fill="#000000" points="774.4507,344.6304,778.4507,354.6304,782.4507,344.6304,778.4507,348.6304" style="stroke:#000000;stroke-width:1;"/><line style="stroke:#000000;stroke-width:1;" x1="778.4507" x2="778.4507" y1="1155.8341" y2="1160.8341"/><line style="stroke:#000000;stroke-width:1;" x1="778.4507" x2="1032.738" y1="1160.8341" y2="1160.8341"/><line style="stroke:#000000;stroke-width:1;" x1="1032.738" x2="1032.738" y1="1160.8341" y2="1175.8341"/><polygon fill="#000000" points="1028.738,1165.8341,1032.738,1175.8341,1036.738,1165.8341,1032.738,1169.8341" style="stroke:#000000;stroke-width:1;"/><text fill="#000000" font-family="Verdana" font-size="18" lengthAdjust="spacing" textLength="121.8592" x="66.9951" y="78.9799">Administrador</text><text fill="#000000" font-family="Verdana" font-size="18" lengthAdjust="spacing" textLength="114.9833" x="270.4083" y="78.9799">Web / Django</text><text fill="#000000" font-family="Verdana" font-size="18" lengthAdjust="spacing" textLength="118.3853" x="457.4085" y="78.9799">Broker (Redis)</text><text fill="#000000" font-family="Verdana" font-size="18" lengthAdjust="spacing" textLength="119.8793" x="717.511" y="78.9799">Celery Worker</text><text fill="#000000" font-family="Verdana" font-size="18" lengthAdjust="spacing" textLength="191.1768" x="936.6496" y="78.9799">Persist&#234;ncia (Postgres)</text><!--SRC=[RLF1RjD04BtdAuQSRAbDxwa01ST5I26nafIAKpIn9yuswnspkowq58aVuCOF80u8VYD_mfSmNeUWefwytdtptfktiq_ybYg2MgCoFRTJfaQB5MXboD_M16pzbdjUUKsGgPhQ0oW8KbEIsQ9LsFwDiM07KRgSnF3xyrTOl5ULHaEkrxiV5PKoodah67lV0t0UhPVlS9GhDWZzz0FbZMp-4qYugZLvxfyBxlIPi5pH6ivWV8scv9PaEAUSrWIMtZNAgVsF_NTkmSFKR9GcPH64aJO8Xc5EXN97gXUMTsGX2hjn8BjG6eT01n-h-k1ZbHzy76iJqcHluOgjK8JIX8rh9C5EhGLAWfANjDPs9cq7RttuA4STddAFW0oJyIWx6utXHa9irulp3Z9R-_tF2dXzBT8IQ-F8kXCeBJUrV5jJZPUj-81_ILR2InPl77YgQhRxRrPnQFZJGpyJLTLqXqSp6Pe27PpAVOS388dBLgZL7HuZ3M5NV2EPvJ8SkKYJ0zDe5ZFUgkhaaQB_X1Eq9SB2OwbCUPHVpY-doMYPoiqci-mjHEj6xq0PwTV7Zx0iBHgtQRM23cIMY-PXlA-cYtI-XC5W08jqaYRTyc8-UztENQlUjQGs496rB6aQwSm9n_COv34OY9oguW0AdPTXTe6yNhK5TgNvm46cK9k3o-78Do412DES8_yTvaXqVUEU9hDfChdSVndFukCuPQ8izFjV9fSPY39slfHmu-wPSFq7]--></g></svg>