<svg xmlns="http://www.w3.org/2000/svg" xmlns:xlink="http://www.w3.org/1999/xlink" contentStyleType="text/css" data-diagram-type="DESCRIPTION" height="1038px" preserveAspectRatio="none" style="width:1432px;height:1038px;background:#FFFFFF;" version="1.1" viewBox="0 0 1432 1038" width="1432px" zoomAndPan="magnify"><title>Arquitetura Completa &#8212; Implanta&#231;&#227;o F&#237;sica + Componentes L&#243;gicos</title><defs/><g><g class="title" data-source-line="3"><text fill="#000000" font-family="Verdana" font-size="22" font-weight="bold" lengthAdjust="spacing" textLength="745.7585" x="338.6208" y="38.5181">Arquitetura Completa &#8212; Implanta&#231;&#227;o F&#237;sica + Componentes L&#243;gicos</text></g><!--cluster Front--><g class="cluster" data-entity="Front" data-source-line="8" data-uid="ent0002" id="cluster_Front"><polygon fill="#FFFFFF" points="518,71.9641,528,61.9641,999,61.9641,999,159.9641,989,169.9641,518,169.9641,518,71.9641" style="stroke:#000000;stroke-width:1;"/><line style="stroke:#000000;stroke-width:1;" x1="989" x2="999" y1="71.9641" y2="61.9641"/><line style="stroke:#000000;stroke-width:1;" x1="518" x2="989" y1="71.9641" y2="71.9641"/><line style="stroke:#000000;stroke-width:1;" x1="989" x2="989" y1="71.9641" y2="169.9641"/><text fill="#000000" font-family="Verdana" font-size="14" font-weight="bold" lengthAdjust="spacing" textLength="169.3294" x="669.8353" y="89.93">Frontend Layer (Cliente)</text></g><!--cluster LinuxNode--><g class="cluster" data-entity="LinuxNode" data-source-line="16" data-uid="ent0005" id="cluster_LinuxNode"><polygon fill="#FFFFFF" points="287,211.9641,297,201.9641,1058,201.9641,1058,733.9641,1048,743.9641,287,743.9641,287,211.9641" style="stroke:#000000;stroke-width:1;"/><line style="stroke:#000000;stroke-width:1;" x1="1048" x2="1058" y1="211.9641" y2="201.9641"/><line style="stroke:#000000;stroke-width:1;" x1="287" x2="1048" y1="211.9641" y2="211.9641"/><line style="stroke:#000000;stroke-width:1;" x1="1048" x2="1048" y1="211.9641" y2="743.9641"/><text fill="#000000" font-family="Verdana" font-size="14" font-weight="bold" lengthAdjust="spacing" textLength="201.7113" x="567.6444" y="229.93">Servidor de Aplica&#231;&#227;o (Linux)</text></g><!--cluster Backend--><g class="cluster" data-entity="Backend" data-source-line="18" data-uid="ent0006" id="cluster_Backend"><polygon fill="#FFFFFF" points="447,270.9641,457,260.9641,1018,260.9641,1018,460.9641,1008,470.9641,447,470.9641,447,270.9641" style="stroke:#000000;stroke-width:1;"/><line style="stroke:#000000;stroke-width:1;" x1="1008" x2="1018" y1="270.9641" y2="260.9641"/><line style="stroke:#000000;stroke-width:1;" x1="447" x2="1008" y1="270.9641" y2="270.9641"/><line style="stroke:#000000;stroke-width:1;" x1="1008" x2="1008" y1="270.9641" y2="470.9641"/><text fill="#000000" font-family="Verdana" font-size="14" font-weight="bold" lengthAdjust="spacing" textLength="165.6194" x="645.6903" y="288.93">Backend Layer (Django)</text></g><!--cluster DjangoCore--><g class="cluster" data-entity="DjangoCore" data-source-line="19" data-uid="ent0007" id="cluster_DjangoCore"><rect fill="#FFFFFF" height="119" rx="2.5" ry="2.5" style="stroke:#000000;stroke-width:1;" width="507" x="479" y="319.9641"/><rect fill="#FFFFFF" height="10" style="stroke:#000000;stroke-width:1;" width="15" x="966" y="324.9641"/><rect fill="#FFFFFF" height="2" style="stroke:#000000;stroke-width:1;" width="4" x="964" y="326.9641"/><rect fill="#FFFFFF" height="2" style="stroke:#000000;stroke-width:1;" width="4" x="964" y="330.9641"/><text fill="#000000" font-family="Verdana" font-size="14" font-weight="bold" lengthAdjust="spacing" textLength="85.6657" x="689.6672" y="347.93">Django Core</text></g><!--cluster Async--><g class="cluster" data-entity="Async" data-source-line="26" data-uid="ent0011" id="cluster_Async"><polygon fill="#FFFFFF" points="597,514.9641,607,504.9641,818,504.9641,818,701.9641,808,711.9641,597,711.9641,597,514.9641" style="stroke:#000000;stroke-width:1;"/><line style="stroke:#000000;stroke-width:1;" x1="808" x2="818" y1="514.9641" y2="504.9641"/><line style="stroke:#000000;stroke-width:1;" x1="597" x2="808" y1="514.9641" y2="514.9641"/><line style="stroke:#000000;stroke-width:1;" x1="808" x2="808" y1="514.9641" y2="711.9641"/><text fill="#000000" font-family="Verdana" font-size="14" font-weight="bold" lengthAdjust="spacing" textLength="145.4734" x="630.7633" y="532.93">Execu&#231;&#227;o Ass&#237;ncrona</text></g><!--cluster WinNode--><g class="cluster" data-entity="WinNode" data-source-line="37" data-uid="ent0015" id="cluster_WinNode"><polygon fill="#FFFFFF" points="693,793.9641,703,783.9641,971,783.9641,971,896.9641,961,906.9641,693,906.9641,693,793.9641" style="stroke:#000000;stroke-width:1;"/><line style="stroke:#000000;stroke-width:1;" x1="961" x2="971" y1="793.9641" y2="783.9641"/><line style="stroke:#000000;stroke-width:1;" x1="693" x2="961" y1="793.9641" y2="793.9641"/><line style="stroke:#000000;stroke-width:1;" x1="961" x2="961" y1="793.9641" y2="906.9641"/><text fill="#000000" font-family="Verdana" font-size="14" font-weight="bold" lengthAdjust="spacing" textLength="202.4113" x="726.7944" y="811.93">Servidor de Banco (Windows)</text></g><!--cluster AgentNode--><g class="cluster" data-entity="AgentNode" data-source-line="44" data-uid="ent0017" id="cluster_AgentNode"><polygon fill="#FFFFFF" points="1060,71.9641,1070,61.9641,1376,61.9641,1376,159.9641,1366,169.9641,1060,169.9641,1060,71.9641" style="stroke:#000000;stroke-width:1;"/><line style="stroke:#000000;stroke-width:1;" x1="1366" x2="1376" y1="71.9641" y2="61.9641"/><line style="stroke:#000000;stroke-width:1;" x1="1060" x2="1366" y1="71.9641" y2="71.9641"/><line style="stroke:#000000;stroke-width:1;" x1="1366" x2="1366" y1="71.9641" y2="169.9641"/><text fill="#000000" font-family="Verdana" font-size="14" font-weight="bold" lengthAdjust="spacing" textLength="240.2251" x="1093.8874" y="89.93">Agente na Rede (Windows Service)</text></g><!--cluster Corp--><g class="cluster" data-entity="Corp" data-source-line="51" data-uid="ent0019" id="cluster_Corp"><polygon fill="#FFFFFF" points="1105,504.9641,1115,494.9641,1415,494.9641,1415,592.9641,1405,602.9641,1105,602.9641,1105,504.9641" style="stroke:#000000;stroke-width:1;"/><line style="stroke:#000000;stroke-width:1;" x1="1405" x2="1415" y1="504.9641" y2="494.9641"/><line style="stroke:#000000;stroke-width:1;" x1="1105" x2="1405" y1="504.9641" y2="504.9641"/><line style="stroke:#000000;stroke-width:1;" x1="1405" x2="1405" y1="504.9641" y2="602.9641"/><text fill="#000000" font-family="Verdana" font-size="14" font-weight="bold" lengthAdjust="spacing" textLength="188.5093" x="1161.7454" y="522.93">Infraestrutura Corporativa</text></g><!--entity BrowserOld--><g class="entity" data-entity="BrowserOld" data-source-line="9" data-uid="ent0003" id="entity_BrowserOld"><rect fill="#FFFFFF" height="49.0679" rx="2.5" ry="2.5" style="stroke:#000000;stroke-width:1;" width="216.0213" x="534" y="104.9641"/><rect fill="#FFFFFF" height="10" style="stroke:#000000;stroke-width:1;" width="15" x="730.0213" y="109.9641"/><rect fill="#FFFFFF" height="2" style="stroke:#000000;stroke-width:1;" width="4" x="728.0213" y="111.9641"/><rect fill="#FFFFFF" height="2" style="stroke:#000000;stroke-width:1;" width="4" x="728.0213" y="115.9641"/><text fill="#000000" font-family="Verdana" font-size="14" lengthAdjust="spacing" textLength="176.0213" x="549" y="139.93">Navegador (Painel Django)</text></g><!--entity React--><g class="entity" data-entity="React" data-source-line="10" data-uid="ent0004" id="entity_React"><rect fill="#FFFFFF" height="49.0679" rx="2.5" ry="2.5" style="stroke:#000000;stroke-width:1;" width="196.5054" x="785.5" y="104.9641"/><rect fill="#FFFFFF" height="10" style="stroke:#000000;stroke-width:1;" width="15" x="962.0054" y="109.9641"/><rect fill="#FFFFFF" height="2" style="stroke:#000000;stroke-width:1;" width="4" x="960.0054" y="111.9641"/><rect fill="#FFFFFF" height="2" style="stroke:#000000;stroke-width:1;" width="4" x="960.0054" y="115.9641"/><text fill="#000000" font-family="Verdana" font-size="14" lengthAdjust="spacing" textLength="156.5054" x="800.5" y="139.93">React App (Novo Painel)</text></g><!--entity Static--><g class="entity" data-entity="Static" data-source-line="31" data-uid="ent0014" id="entity_Static"><path d="M314,361.9641 L355,361.9641 A3.75,3.75 0 0 1 357.5,364.4641 L364.5,382.9641 L428.1377,382.9641 A2.5,2.5 0 0 1 430.6377,385.4641 L430.6377,416.532 A2.5,2.5 0 0 1 428.1377,419.032 L314,419.032 A2.5,2.5 0 0 1 311.5,416.532 L311.5,364.4641 A2.5,2.5 0 0 1 314,361.9641" fill="#FFFFFF" style="stroke:#000000;stroke-width:1;"/><line style="stroke:#000000;stroke-width:1;" x1="311.5" x2="364.5" y1="382.9641" y2="382.9641"/><text fill="#000000" font-family="Verdana" font-size="14" lengthAdjust="spacing" textLength="89.1377" x="321.5" y="404.93">Static / Media</text></g><!--entity MVT--><g class="entity" data-entity="MVT" data-source-line="20" data-uid="ent0008" id="entity_MVT"><rect fill="#FFFFFF" height="49.0679" rx="2.5" ry="2.5" style="stroke:#000000;stroke-width:1;" width="110.1397" x="662" y="365.9641"/><rect fill="#FFFFFF" height="10" style="stroke:#000000;stroke-width:1;" width="15" x="752.1397" y="370.9641"/><rect fill="#FFFFFF" height="2" style="stroke:#000000;stroke-width:1;" width="4" x="750.1397" y="372.9641"/><rect fill="#FFFFFF" height="2" style="stroke:#000000;stroke-width:1;" width="4" x="750.1397" y="376.9641"/><text fill="#000000" font-family="Verdana" font-size="14" lengthAdjust="spacing" textLength="70.1397" x="677" y="400.93">Views MVT</text></g><!--entity API--><g class="entity" data-entity="API" data-source-line="21" data-uid="ent0009" id="entity_API"><rect fill="#FFFFFF" height="49.0679" rx="2.5" ry="2.5" style="stroke:#000000;stroke-width:1;" width="135.9976" x="807" y="365.9641"/><rect fill="#FFFFFF" height="10" style="stroke:#000000;stroke-width:1;" width="15" x="922.9976" y="370.9641"/><rect fill="#FFFFFF" height="2" style="stroke:#000000;stroke-width:1;" width="4" x="920.9976" y="372.9641"/><rect fill="#FFFFFF" height="2" style="stroke:#000000;stroke-width:1;" width="4" x="920.9976" y="376.9641"/><text fill="#000000" font-family="Verdana" font-size="14" lengthAdjust="spacing" textLength="95.9976" x="822" y="400.93">API REST (DRF)</text></g><!--entity Admin--><g class="entity" data-entity="Admin" data-source-line="22" data-uid="ent0010" id="entity_Admin"><rect fill="#FFFFFF" height="49.0679" rx="2.5" ry="2.5" style="stroke:#000000;stroke-width:1;" width="123.0337" x="503.5" y="365.9641"/><rect fill="#FFFFFF" height="10" style="stroke:#000000;stroke-width:1;" width="15" x="606.5337" y="370.9641"/><rect fill="#FFFFFF" height="2" style="stroke:#000000;stroke-width:1;" width="4" x="604.5337" y="372.9641"/><rect fill="#FFFFFF" height="2" style="stroke:#000000;stroke-width:1;" width="4" x="604.5337" y="376.9641"/><text fill="#000000" font-family="Verdana" font-size="14" lengthAdjust="spacing" textLength="83.0337" x="518.5" y="400.93">Admin Panel</text></g><!--entity Workers--><g class="entity" data-entity="Workers" data-source-line="27" data-uid="ent0012" id="entity_Workers"><rect fill="#FFFFFF" height="49.0679" rx="2.5" ry="2.5" style="stroke:#000000;stroke-width:1;" width="139.9456" x="653" y="646.9641"/><rect fill="#FFFFFF" height="10" style="stroke:#000000;stroke-width:1;" width="15" x="772.9456" y="651.9641"/><rect fill="#FFFFFF" height="2" style="stroke:#000000;stroke-width:1;" width="4" x="770.9456" y="653.9641"/><rect fill="#FFFFFF" height="2" style="stroke:#000000;stroke-width:1;" width="4" x="770.9456" y="657.9641"/><text fill="#000000" font-family="Verdana" font-size="14" lengthAdjust="spacing" textLength="99.9456" x="668" y="681.93">Celery Workers</text></g><!--entity Redis--><g class="entity" data-entity="Redis" data-source-line="28" data-uid="ent0013" id="entity_Redis"><path d="M639.5,547.9641 L794.0354,547.9641 C799.0354,547.9641 799.0354,562.4981 799.0354,562.4981 C799.0354,562.4981 799.0354,577.032 794.0354,577.032 L639.5,577.032 C634.5,577.032 634.5,562.4981 634.5,562.4981 C634.5,562.4981 634.5,547.9641 639.5,547.9641" fill="#FFFFFF" style="stroke:#000000;stroke-width:1;"/><path d="M794.0354,547.9641 C789.0354,547.9641 789.0354,562.4981 789.0354,562.4981 C789.0354,577.032 794.0354,577.032 794.0354,577.032" fill="none" style="stroke:#000000;stroke-width:1;"/><text fill="#000000" font-family="Verdana" font-size="14" lengthAdjust="spacing" textLength="144.5354" x="639.5" y="567.93">Redis (Broker / Cache)</text></g><!--entity Postgres--><g class="entity" data-entity="Postgres" data-source-line="38" data-uid="ent0016" id="entity_Postgres"><path d="M829.5,844.9641 C829.5,834.9641 887.7998,834.9641 887.7998,834.9641 C887.7998,834.9641 946.0996,834.9641 946.0996,844.9641 L946.0996,873.032 C946.0996,883.032 887.7998,883.032 887.7998,883.032 C887.7998,883.032 829.5,883.032 829.5,873.032 L829.5,844.9641" fill="#FFFFFF" style="stroke:#000000;stroke-width:1;"/><path d="M829.5,844.9641 C829.5,854.9641 887.7998,854.9641 887.7998,854.9641 C887.7998,854.9641 946.0996,854.9641 946.0996,844.9641" fill="none" style="stroke:#000000;stroke-width:1;"/><text fill="#000000" font-family="Verdana" font-size="14" lengthAdjust="spacing" textLength="96.5996" x="839.5" y="873.93">PostgreSQL 16</text></g><!--entity AgentService--><g class="entity" data-entity="AgentService" data-source-line="45" data-uid="ent0018" id="entity_AgentService"><rect fill="#FFFFFF" height="49.0679" rx="2.5" ry="2.5" style="stroke:#000000;stroke-width:1;" width="166.2375" x="1094" y="104.9641"/><rect fill="#FFFFFF" height="10" style="stroke:#000000;stroke-width:1;" width="15" x="1240.2375" y="109.9641"/><rect fill="#FFFFFF" height="2" style="stroke:#000000;stroke-width:1;" width="4" x="1238.2375" y="111.9641"/><rect fill="#FFFFFF" height="2" style="stroke:#000000;stroke-width:1;" width="4" x="1238.2375" y="115.9641"/><text fill="#000000" font-family="Verdana" font-size="14" lengthAdjust="spacing" textLength="126.2375" x="1109" y="139.93">Agente AD Monitor</text></g><!--entity AD--><g class="entity" data-entity="AD" data-source-line="52" data-uid="ent0020" id="entity_AD"><rect fill="#FFFFFF" height="49.0679" rx="2.5" ry="2.5" style="stroke:#000000;stroke-width:1;" width="277.4111" x="1121.5" y="537.9641"/><rect fill="#FFFFFF" height="10" style="stroke:#000000;stroke-width:1;" width="15" x="1378.9111" y="542.9641"/><rect fill="#FFFFFF" height="2" style="stroke:#000000;stroke-width:1;" width="4" x="1376.9111" y="544.9641"/><rect fill="#FFFFFF" height="2" style="stroke:#000000;stroke-width:1;" width="4" x="1376.9111" y="548.9641"/><text fill="#000000" font-family="Verdana" font-size="14" lengthAdjust="spacing" textLength="237.4111" x="1136.5" y="572.93">Active Directory (Domain Controller)</text></g><g class="entity" data-entity="GMN33" data-source-line="85" data-uid="ent0034" id="entity_GMN33"><path d="M11,349.9641 L11,430.7882 L262.8542,430.7882 L262.8542,359.9641 L252.8542,349.9641 L11,349.9641" fill="#FFFFFF" style="stroke:#000000;stroke-width:1;"/><path d="M252.8542,349.9641 L252.8542,359.9641 L262.8542,359.9641 L252.8542,349.9641" fill="#FFFFFF" style="stroke:#000000;stroke-width:1;"/><text fill="#000000" font-family="Verdana" font-size="13" lengthAdjust="spacing" textLength="70.3041" x="17" y="368.8611">App Server:</text><text fill="#000000" font-family="Verdana" font-size="13" lengthAdjust="spacing" textLength="115.7261" x="17" y="386.5671">&#8226; Ubuntu 24.04 LTS</text><text fill="#000000" font-family="Verdana" font-size="13" lengthAdjust="spacing" textLength="166.8031" x="17" y="404.2731">&#8226; Gunicorn/Uvicorn + Nginx</text><text fill="#000000" font-family="Verdana" font-size="13" lengthAdjust="spacing" textLength="230.8542" x="17" y="421.9792">&#8226; Celery workers (systemd/supervisor)</text></g><g class="entity" data-entity="GMN36" data-source-line="92" data-uid="ent0037" id="entity_GMN36"><path d="M995,827.4641 L995,890.5822 L1234.8682,890.5822 L1234.8682,837.4641 L1224.8682,827.4641 L995,827.4641" fill="#FFFFFF" style="stroke:#000000;stroke-width:1;"/><path d="M1224.8682,827.4641 L1224.8682,837.4641 L1234.8682,837.4641 L1224.8682,827.4641" fill="#FFFFFF" style="stroke:#000000;stroke-width:1;"/><text fill="#000000" font-family="Verdana" font-size="13" lengthAdjust="spacing" textLength="63.9471" x="1001" y="846.3611">DB Server:</text><text fill="#000000" font-family="Verdana" font-size="13" lengthAdjust="spacing" textLength="106.5741" x="1001" y="864.0671">&#8226; Windows Server</text><text fill="#000000" font-family="Verdana" font-size="13" lengthAdjust="spacing" textLength="218.8682" x="1001" y="881.7731">&#8226; PostgreSQL 16 Standalone/Replica</text></g><g class="entity" data-entity="GMN39" data-source-line="98" data-uid="ent0040" id="entity_GMN39"><path d="M970.5,950.4641 L970.5,1031.2882 L1259.2612,1031.2882 L1259.2612,960.4641 L1249.2612,950.4641 L970.5,950.4641" fill="#FFFFFF" style="stroke:#000000;stroke-width:1;"/><path d="M1249.2612,950.4641 L1249.2612,960.4641 L1259.2612,960.4641 L1249.2612,950.4641" fill="#FFFFFF" style="stroke:#000000;stroke-width:1;"/><text fill="#000000" font-family="Verdana" font-size="13" lengthAdjust="spacing" textLength="68.2111" x="976.5" y="969.3611">Seguran&#231;a:</text><text fill="#000000" font-family="Verdana" font-size="13" lengthAdjust="spacing" textLength="147.3291" x="976.5" y="987.0671">&#8226; TLS entre Agente e API</text><text fill="#000000" font-family="Verdana" font-size="13" lengthAdjust="spacing" textLength="267.7612" x="976.5" y="1004.7731">&#8226; Firewall restritivo entre Linux &lt;-&gt; Windows</text><text fill="#000000" font-family="Verdana" font-size="13" lengthAdjust="spacing" textLength="247.9492" x="976.5" y="1022.4792">&#8226; Snapshots do DB e Backup incremental</text></g><!--link BrowserOld to MVT--><g class="link" data-entity-1="BrowserOld" data-entity-2="MVT" data-source-line="60" data-uid="lnk21" id="link_BrowserOld_MVT"><path d="M706,154.0141 C706,203.7641 706,309.9341 706,359.7841" fill="none" id="BrowserOld-to-MVT" style="stroke:#000000;stroke-width:1;"/><polygon fill="#000000" points="706,365.7841,710,356.7841,706,360.7841,702,356.7841,706,365.7841" style="stroke:#000000;stroke-width:1;"/><text fill="#000000" font-family="Verdana" font-size="13" lengthAdjust="spacing" textLength="78.5981" x="627" y="255.8011">HTTP (HTML)</text></g><!--link React to API--><g class="link" data-entity-1="React" data-entity-2="API" data-source-line="61" data-uid="lnk22" id="link_React_API"><path d="M875,154.0141 C875,203.7641 875,309.9341 875,359.7841" fill="none" id="React-to-API" style="stroke:#000000;stroke-width:1;"/><polygon fill="#000000" points="875,365.7841,879,356.7841,875,360.7841,871,356.7841,875,365.7841" style="stroke:#000000;stroke-width:1;"/><text fill="#000000" font-family="Verdana" font-size="13" lengthAdjust="spacing" textLength="114.4131" x="760" y="255.8011">HTTPS (REST / JWT)</text></g><!--link MVT to Postgres--><g class="link" data-entity-1="MVT" data-entity-2="Postgres" data-source-line="64" data-uid="lnk23" id="link_MVT_Postgres"><path d="M772.42,390.4641 C789.78,390.4641 804.5,390.4641 804.5,390.4641 C804.5,390.4641 804.5,843.4641 804.5,843.4641 C804.5,843.4641 809.28,843.4641 823.1,843.4641" fill="none" id="MVT-to-Postgres" style="stroke:#000000;stroke-width:1;stroke-dasharray:7,7;"/><polygon fill="#000000" points="829.1,843.4641,820.1,839.4641,824.1,843.4641,820.1,847.4641,829.1,843.4641" style="stroke:#000000;stroke-width:1;"/><text fill="#000000" font-family="Verdana" font-size="13" lengthAdjust="spacing" textLength="61.958" x="742.5" y="609.1211">l&#234;/escreve</text></g><!--link API to Postgres--><g class="link" data-entity-1="API" data-entity-2="Postgres" data-source-line="65" data-uid="lnk24" id="link_API_Postgres"><path d="M886.25,414.9941 C886.25,496.0441 886.25,748.6741 886.25,828.9541" fill="none" id="API-to-Postgres" style="stroke:#000000;stroke-width:1;stroke-dasharray:7,7;"/><polygon fill="#000000" points="886.25,834.9541,890.25,825.9541,886.25,829.9541,882.25,825.9541,886.25,834.9541" style="stroke:#000000;stroke-width:1;"/><text fill="#000000" font-family="Verdana" font-size="13" lengthAdjust="spacing" textLength="61.958" x="824.25" y="620.8711">l&#234;/escreve</text></g><!--link Workers to Postgres--><g class="link" data-entity-1="Workers" data-entity-2="Postgres" data-source-line="66" data-uid="lnk25" id="link_Workers_Postgres"><path d="M723,695.9741 C723,745.0041 723,850.4641 723,850.4641 C723,850.4641 775.94,850.4641 823.36,850.4641" fill="none" id="Workers-to-Postgres" style="stroke:#000000;stroke-width:1;"/><polygon fill="#000000" points="829.36,850.4641,820.36,846.4641,824.36,850.4641,820.36,854.4641,829.36,850.4641" style="stroke:#000000;stroke-width:1;"/><text fill="#000000" font-family="Verdana" font-size="13" lengthAdjust="spacing" textLength="161.5641" x="561" y="822.3011">ETL / Auditoria / Scorecard</text></g><!--link MVT to Redis--><g class="link" data-entity-1="MVT" data-entity-2="Redis" data-source-line="69" data-uid="lnk26" id="link_MVT_Redis"><path d="M717,415.1041 C717,451.3341 717,511.8741 717,541.5241" fill="none" id="MVT-to-Redis" style="stroke:#000000;stroke-width:1;"/><polygon fill="#000000" points="717,547.5241,721,538.5241,717,542.5241,713,538.5241,717,547.5241" style="stroke:#000000;stroke-width:1;"/><text fill="#000000" font-family="Verdana" font-size="13" lengthAdjust="spacing" textLength="82.6281" x="634" y="477.2111">enqueue task</text></g><!--link API to Redis--><g class="link" data-entity-1="API" data-entity-2="Redis" data-source-line="70" data-uid="lnk27" id="link_API_Redis"><path d="M818.25,415.1041 C818.25,462.6641 818.25,562.4641 818.25,562.4641 C818.25,562.4641 816.68,562.4641 805.68,562.4641" fill="none" id="API-to-Redis" style="stroke:#000000;stroke-width:1;"/><polygon fill="#000000" points="799.68,562.4641,808.68,566.4641,804.68,562.4641,808.68,558.4641,799.68,562.4641" style="stroke:#000000;stroke-width:1;"/><text fill="#000000" font-family="Verdana" font-size="13" lengthAdjust="spacing" textLength="82.6281" x="819.25" y="493.9711">enqueue task</text></g><!--link Redis to Workers--><g class="link" data-entity-1="Redis" data-entity-2="Workers" data-source-line="71" data-uid="lnk28" id="link_Redis_Workers"><path d="M723,577.1641 C723,594.9441 723,619.1541 723,640.5841" fill="none" id="Redis-to-Workers" style="stroke:#000000;stroke-width:1;"/><polygon fill="#000000" points="723,646.5841,727,637.5841,723,641.5841,719,637.5841,723,646.5841" style="stroke:#000000;stroke-width:1;"/><text fill="#000000" font-family="Verdana" font-size="13" lengthAdjust="spacing" textLength="87.8801" x="635" y="607.7711">entrega tarefa</text></g><!--link LinuxNode to WinNode--><g class="link" data-entity-1="LinuxNode" data-entity-2="WinNode" data-source-line="74" data-uid="lnk29" id="link_LinuxNode_WinNode"><path d="M802,745.4357 C802,746.9485 802,748.4526 802,749.9476 C802,752.9376 802,755.8911 802,758.8049 C802,764.6326 802,770.3013 802,775.7845 C802,778.5262 802,775.2215 802,777.8671" fill="none" id="LinuxNode-to-WinNode" style="stroke:#000000;stroke-width:1;"/><polygon fill="#000000" points="802,783.8671,806,774.8671,802,778.8671,798,774.8671,802,783.8671" style="stroke:#000000;stroke-width:1;"/><text fill="#000000" font-family="Verdana" font-size="13" lengthAdjust="spacing" textLength="102.6611" x="699" y="501.0111">TCP/IP 5432 (DB)</text></g><!--link AgentService to API--><g class="link" data-entity-1="AgentService" data-entity-2="API" data-source-line="77" data-uid="lnk30" id="link_AgentService_API"><path d="M1107.75,154.2541 C1107.75,217.2341 1107.75,378.4641 1107.75,378.4641 C1107.75,378.4641 1017.94,378.4641 949.26,378.4641" fill="none" id="AgentService-to-API" style="stroke:#000000;stroke-width:1;"/><polygon fill="#000000" points="943.26,378.4641,952.26,382.4641,948.26,378.4641,952.26,374.4641,943.26,378.4641" style="stroke:#000000;stroke-width:1;"/><text fill="#000000" font-family="Verdana" font-size="13" lengthAdjust="spacing" textLength="200.1222" x="906.75" y="344.5011">HTTPS 443 (POST /api/auditoria/)</text></g><!--link AgentService to AD--><g class="link" data-entity-1="AgentService" data-entity-2="AD" data-source-line="78" data-uid="lnk31" id="link_AgentService_AD"><path d="M1190.75,153.9841 C1190.75,230.1041 1190.75,455.8241 1190.75,531.9441" fill="none" id="AgentService-to-AD" style="stroke:#000000;stroke-width:1;"/><polygon fill="#000000" points="1190.75,537.9441,1194.75,528.9441,1190.75,532.9441,1186.75,528.9441,1190.75,537.9441" style="stroke:#000000;stroke-width:1;"/><text fill="#000000" font-family="Verdana" font-size="13" lengthAdjust="spacing" textLength="168.7011" x="1191.75" y="341.8611">leitura direta (Event Viewer)</text></g><!--link DjangoCore to AD--><g class="link" data-entity-1="DjangoCore" data-entity-2="AD" data-source-line="81" data-uid="lnk32" id="link_DjangoCore_AD"><path d="M978,439.0045 C978,439.2761 978,439.5482 978,439.8209 C978,440.9115 978,442.0105 978,443.1169 C978,451.9684 978,461.2932 978,470.5479 C978,507.5666 978,543.4641 978,543.4641 C978,543.4641 1044.16,543.4641 1115.48,543.4641" fill="none" id="DjangoCore-to-AD" style="stroke:#000000;stroke-width:1;"/><polygon fill="#000000" points="1121.48,543.4641,1112.48,539.4641,1116.48,543.4641,1112.48,547.4641,1121.48,543.4641" style="stroke:#000000;stroke-width:1;"/><text fill="#000000" font-family="Verdana" font-size="13" lengthAdjust="spacing" textLength="137.5531" x="840" y="534.8211">LDAP/LDAPS (389/636)</text></g><!--link GMN33 to LinuxNode--><g class="link" data-entity-1="GMN33" data-entity-2="LinuxNode" data-source-line="85" data-uid="lnk35" id="link_GMN33_LinuxNode"><path d="M263.47,356.4641 C267.3866,356.4641 271.3728,356.4641 275.4254,356.4641 C277.4518,356.4641 279.4948,356.4641 281.554,356.4641 C282.5836,356.4641 283.6172,356.4641 284.6549,356.4641" fill="none" id="GMN33-LinuxNode" style="stroke:#000000;stroke-width:1;stroke-dasharray:7,7;"/></g><!--link WinNode to GMN36--><g class="link" data-entity-1="WinNode" data-entity-2="GMN36" data-source-line="92" data-uid="lnk38" id="link_WinNode_GMN36"><path d="M971.8428,831.4641 C972.2071,831.4641 972.5712,831.4641 972.9352,831.4641 C974.3912,831.4641 975.8451,831.4641 977.2964,831.4641 C983.102,831.4641 988.8669,831.4641 994.56,831.4641" fill="none" id="WinNode-GMN36" style="stroke:#000000;stroke-width:1;stroke-dasharray:7,7;"/></g><!--link GMN36 to GMN39--><g class="link" data-entity-1="GMN36" data-entity-2="GMN39" data-source-line="98" data-uid="lnk41" id="link_GMN36_GMN39"><path d="M1115,890.5841 C1115,908.4241 1115,930.9341 1115,950.1041" fill="none" id="GMN36-GMN39" style="stroke:#000000;stroke-width:1;stroke-dasharray:7,7;"/></g><!--SRC=[jLRTRjis5BxNKvpbPZQ6H5lZ1Lkm5P0jENMds9ua9nc2NZ0Iut2HIPMad1X5WJv4-mBRHO41lHhs17wJFiaEITbntMqtyNHXYpmVZyxvpX-_q3TqHg4g2UEUkcMy8fBCe6ISwaL5GKXz8ppDT4aXa2zhfgck9O6Uc5KbrGG-ldaB0tmdN9Fb- -Nl0lhB3uhb1Bwo8C4frrH1lFnpodAXFEzB-F4H3nxl9wDX5Wt3nshYeg2mrvS23UG5n6H19RHw9JCMj_U0AB12UEK1FfT3CgTJKWW4ZP4kMaBuA-5JqNvXe5qfxXILex9mw8IIN4DGLT0QYha0TyHXhSnxlGCkqYWv6uIZ1EB1S781hMxG-mcfCUH7SPJyWYz950xIzcx8IgcSCyC0BeAgn32xcBTYnkjxnvbz7HhuAyzIuOvsINwxGND3dJsn4ZcUpPElCWVs711pIL8BTckptC1RniyOlLDmUfPPZl7_Kt4m7Y0NQORVJlek3hYrXIbcZ6EeC58EODPho6lF_Mvu5TtJl7OS14ejF_0SCuPOGmEruFc6ZPSzMbAvW7CXRwbKLd_pliQyh6cDMXDQC8N1b0Abu4EFv3TDHbhHfXtNeYmGj9TgebcEu5D4E0lSrcxpx7mm34VdAPR0ACrEaC__8REwXEUOK-UC5rXJpczSD3bbd2w89bT4uRcnK7egQVfp3DySMMIpetRYTt0IOQ-1C31b5Et6rM1g6WnmOe99rtw2fI1lucn16nvVDgU244u5Prh85sjOSt0d3W-6_IJ0AaacsIG9e3TAngCao0PdmMwS7_1hIQZIicxcYAo4n3ITkvGrwxN7EMvJ29caEVgxmC8LC-oY2E9QYXAhgIdZS2Ukz-F9nIY529qUHXVBTr7wM9r6wMgy_B3_TDNel8TP0VkuZQqAZk5PbesXzImxZTkU6nv6PhgMas7DsVRbm_Fph6rqh_gcKHrsFQFcuE3fkW3mNBdymwSgbtHEFQFfFyHDAx8VtO14MOnV3Eh2f1mZ-9xcs7jp8ejj4rnhCbRihrQeW7BNr3HHjzQ6VnMwJIDUsM80MkBGHO2aryHyqOuN-xtDkg7IUvWx-qvetuyXwutzmHY-xHm-mGpgMkRMnUHj5j1dX7SwXwxHWKygvfCL2txx7yw5Xb3AR5eNcBDuEMf5SpF3p632NDtcQpk_lOtHjjOOXy7ODpyO_iFlllUF3e-iej4L9j3SZD-_iDLnWTwKz5g3k7uOm5X6vlxX-3d6rSStly7agkQwXYUTWwyx46TfitrISxoUIUvFvlOVBmx3AUFtZRYPNNTDO5fgeJIT5RwgAyE14kYUySiOuZbp99lUM7kQKA2ciBjbp5O8tUOdBTqCCLwG4cy3VaBjbMFxGrT2Qp73mocT8lby-Pwiz6Tnwb9e5N7Qp7mZx2FnTwGiGPf-n30OeW5_bcFDYPIJIjq8hQ0GnXbgurbNm73kupqQxy3bWtL_0m00]--></g></svg>