<svg xmlns="http://www.w3.org/2000/svg" xmlns:xlink="http://www.w3.org/1999/xlink" contentStyleType="text/css" data-diagram-type="CLASS" height="157px" preserveAspectRatio="none" style="width:572px;height:157px;background:#FFFFFF;" version="1.1" viewBox="0 0 572 157" width="572px" zoomAndPan="magnify"><defs/><g><!--class RelatorioUnicidadeGeral--><g class="entity" data-entity="RelatorioUnicidadeGeral" data-source-line="1" data-uid="ent0002" id="entity_RelatorioUnicidadeGeral"><rect fill="#F1F1F1" height="143.3396" rx="2.5" ry="2.5" style="stroke:#181818;stroke-width:0.5;" width="226.2972" x="7" y="7"/><ellipse cx="37.1667" cy="23" fill="#ADD1B2" rx="11" ry="11" style="stroke:#181818;stroke-width:1;"/><path d="M40.1355,28.6406 Q39.5574,28.9375 38.9167,29.0781 Q38.2761,29.2344 37.573,29.2344 Q35.073,29.2344 33.7449,27.5938 Q32.4324,25.9375 32.4324,22.8125 Q32.4324,19.6875 33.7449,18.0313 Q35.073,16.375 37.573,16.375 Q38.2761,16.375 38.9167,16.5313 Q39.573,16.6875 40.1355,16.9844 L40.1355,19.7031 Q39.5105,19.125 38.9167,18.8594 Q38.323,18.5781 37.698,18.5781 Q36.3542,18.5781 35.6667,19.6563 Q34.9792,20.7188 34.9792,22.8125 Q34.9792,24.9063 35.6667,25.9844 Q36.3542,27.0469 37.698,27.0469 Q38.323,27.0469 38.9167,26.7813 Q39.5105,26.5 40.1355,25.9219 L40.1355,28.6406 Z " fill="#000000"/><text fill="#000000" font-family="sans-serif" font-size="14" lengthAdjust="spacing" textLength="160.5934" x="54.5371" y="28.432">RelatorioUnicidadeGeral</text><line style="stroke:#181818;stroke-width:0.5;" x1="8" x2="232.2972" y1="39" y2="39"/><ellipse cx="18" cy="54.034" fill="none" rx="3" ry="3" style="stroke:#038048;stroke-width:1;"/><text fill="#000000" font-family="sans-serif" font-size="14" lengthAdjust="spacing" textLength="182.6573" x="27" y="57.9659">timestamp_inicio: DateTime</text><ellipse cx="18" cy="73.1019" fill="none" rx="3" ry="3" style="stroke:#038048;stroke-width:1;"/><text fill="#000000" font-family="sans-serif" font-size="14" lengthAdjust="spacing" textLength="179.2273" x="27" y="77.0339">tabela_analisada: CharField</text><ellipse cx="18" cy="92.1698" fill="none" rx="3" ry="3" style="stroke:#038048;stroke-width:1;"/><text fill="#000000" font-family="sans-serif" font-size="14" lengthAdjust="spacing" textLength="151.1434" x="27" y="96.1018">media_unicidade: Float</text><ellipse cx="18" cy="111.2377" fill="none" rx="3" ry="3" style="stroke:#038048;stroke-width:1;"/><text fill="#000000" font-family="sans-serif" font-size="14" lengthAdjust="spacing" textLength="200.2972" x="27" y="115.1697">detalhe_por_coluna: JSONField</text><line style="stroke:#181818;stroke-width:1;" x1="8" x2="232.2972" y1="123.2717" y2="123.2717"/><ellipse cx="18" cy="138.3056" fill="#84BE84" rx="3" ry="3" style="stroke:#038048;stroke-width:1;"/><text fill="#000000" font-family="sans-serif" font-size="14" lengthAdjust="spacing" textLength="75.7397" x="27" y="142.2376">__str__(): str</text></g><path d="M268.5,59.5 L268.5,69.353 L178.1434,90.6698 L268.5,77.353 L268.5,87.206 A0,0 0 0 0 268.5,87.206 L565.3082,87.206 A0,0 0 0 0 565.3082,87.206 L565.3082,69.5 L555.3082,59.5 L268.5,59.5 A0,0 0 0 0 268.5,59.5" fill="#FEFFDD" style="stroke:#181818;stroke-width:0.5;"/><path d="M555.3082,59.5 L555.3082,69.5 L565.3082,69.5 L555.3082,59.5" fill="#FEFFDD" style="stroke:#181818;stroke-width:0.5;"/><text fill="#000000" font-family="sans-serif" font-size="13" lengthAdjust="spacing" textLength="275.8082" x="274.5" y="78.397">Calculada pela m&#233;dia ponderada das colunas</text><!--SRC=[TOuzJWD138NxEOLB4Ce5fWrA90gG-AajPstOaRpZrOotGXo8St0nF8dI8D5Pxxtl-KrAlSEpABcrOc-rJ8M9vIYD53uJm9sNHRhJic8PhcMu9vVNKCykdG96ggIb4rE6_KpjK4Hvs8jm8TokjHaEQkJ3ON7IMN2rXfFfLWDzU7bwlAAxtKWXTc-8DxSPuaXVALLpWLO-PWTx_szvpdyUHzUUTDeq9i8Q42m_tv60rIe74IfJXykGdgGoZ4U_]--></g></svg>