<svg xmlns="http://www.w3.org/2000/svg" xmlns:xlink="http://www.w3.org/1999/xlink" contentStyleType="text/css" data-diagram-type="SEQUENCE" height="692px" preserveAspectRatio="none" style="width:1161px;height:692px;background:#FFFFFF;" version="1.1" viewBox="0 0 1161 692" width="1161px" zoomAndPan="magnify"><defs/><g><g><title>Celery Worker</title><rect fill="#FFFFFF" height="313.3541" style="stroke:#000000;stroke-width:1;" width="10" x="653.8533" y="182.186"/></g><rect fill="#FFFFFF" height="191.2361" style="stroke:#000000;stroke-width:1;" width="377.4788" x="777.8667" y="228.892"/><g><title>Auditor</title><rect fill="#000000" fill-opacity="0.00000" height="523.5902" width="8" x="33.5629" y="85.0679"/><line style="stroke:#000000;stroke-width:1;stroke-dasharray:5,5;" x1="37" x2="37" y1="85.0679" y2="608.6582"/></g><g><title>DashboardView</title><rect fill="#000000" fill-opacity="0.00000" height="523.5902" width="8" x="262.0231" y="85.0679"/><line style="stroke:#000000;stroke-width:1;stroke-dasharray:5,5;" x1="265.1883" x2="265.1883" y1="85.0679" y2="608.6582"/></g><g><title>Redis</title><rect fill="#000000" fill-opacity="0.00000" height="523.5902" width="8" x="522.3073" y="85.0679"/><line style="stroke:#000000;stroke-width:1;stroke-dasharray:5,5;" x1="525.5413" x2="525.5413" y1="85.0679" y2="608.6582"/></g><g><title>Celery Worker</title><rect fill="#000000" fill-opacity="0.00000" height="523.5902" width="8" x="654.8533" y="85.0679"/><line style="stroke:#000000;stroke-width:1;stroke-dasharray:5,5;" x1="658.2335" x2="658.2335" y1="85.0679" y2="608.6582"/></g><g><title>Motor de Regras</title><rect fill="#000000" fill-opacity="0.00000" height="523.5902" width="8" x="855.7745" y="85.0679"/><line style="stroke:#000000;stroke-width:1;stroke-dasharray:5,5;" x1="858.8667" x2="858.8667" y1="85.0679" y2="608.6582"/></g><g><title>PostgreSQL</title><rect fill="#000000" fill-opacity="0.00000" height="523.5902" width="8" x="1099.8736" y="85.0679"/><line style="stroke:#000000;stroke-width:1;stroke-dasharray:5,5;" x1="1103.4018" x2="1103.4018" y1="85.0679" y2="608.6582"/></g><g class="participant participant-head" data-participant="User"><text fill="#000000" font-family="Verdana" font-size="14" lengthAdjust="spacing" textLength="49.1258" x="10" y="80.9659">Auditor</text><ellipse cx="37.5629" cy="14" fill="#FFFFFF" rx="8" ry="8" style="stroke:#000000;stroke-width:1;"/><path d="M37.5629,22 L37.5629,49 M24.5629,30 L50.5629,30 M37.5629,49 L24.5629,64 M37.5629,49 L50.5629,64" fill="none" style="stroke:#000000;stroke-width:1;"/></g><g class="participant participant-tail" data-participant="User"><text fill="#000000" font-family="Verdana" font-size="14" lengthAdjust="spacing" textLength="49.1258" x="10" y="622.6241">Auditor</text><ellipse cx="37.5629" cy="635.7261" fill="#FFFFFF" rx="8" ry="8" style="stroke:#000000;stroke-width:1;"/><path d="M37.5629,643.7261 L37.5629,670.7261 M24.5629,651.7261 L50.5629,651.7261 M37.5629,670.7261 L24.5629,685.7261 M37.5629,670.7261 L50.5629,685.7261" fill="none" style="stroke:#000000;stroke-width:1;"/></g><g class="participant participant-head" data-participant="View"><rect fill="#FFFFFF" height="33.0679" rx="2.5" ry="2.5" style="stroke:#000000;stroke-width:1;" width="117.6696" x="207.1883" y="51"/><text fill="#000000" font-family="Verdana" font-size="14" lengthAdjust="spacing" textLength="103.6696" x="214.1883" y="72.9659">DashboardView</text></g><g class="participant participant-tail" data-participant="View"><rect fill="#FFFFFF" height="33.0679" rx="2.5" ry="2.5" style="stroke:#000000;stroke-width:1;" width="117.6696" x="207.1883" y="607.6582"/><text fill="#000000" font-family="Verdana" font-size="14" lengthAdjust="spacing" textLength="103.6696" x="214.1883" y="629.6241">DashboardView</text></g><g class="participant participant-head" data-participant="Redis"><path d="M503.5413,56 L549.0732,56 C554.0732,56 554.0732,70.534 554.0732,70.534 C554.0732,70.534 554.0732,85.0679 549.0732,85.0679 L503.5413,85.0679 C498.5413,85.0679 498.5413,70.534 498.5413,70.534 C498.5413,70.534 498.5413,56 503.5413,56" fill="#FFFFFF" style="stroke:#000000;stroke-width:1;"/><path d="M549.0732,56 C544.0732,56 544.0732,70.534 544.0732,70.534 C544.0732,85.0679 549.0732,85.0679 549.0732,85.0679" fill="none" style="stroke:#000000;stroke-width:1;"/><text fill="#000000" font-family="Verdana" font-size="14" lengthAdjust="spacing" textLength="35.5319" x="503.5413" y="75.9659">Redis</text></g><g class="participant participant-tail" data-participant="Redis"><path d="M503.5413,607.6582 L549.0732,607.6582 C554.0732,607.6582 554.0732,622.1921 554.0732,622.1921 C554.0732,622.1921 554.0732,636.7261 549.0732,636.7261 L503.5413,636.7261 C498.5413,636.7261 498.5413,622.1921 498.5413,622.1921 C498.5413,622.1921 498.5413,607.6582 503.5413,607.6582" fill="#FFFFFF" style="stroke:#000000;stroke-width:1;"/><path d="M549.0732,607.6582 C544.0732,607.6582 544.0732,622.1921 544.0732,622.1921 C544.0732,636.7261 549.0732,636.7261 549.0732,636.7261" fill="none" style="stroke:#000000;stroke-width:1;"/><text fill="#000000" font-family="Verdana" font-size="14" lengthAdjust="spacing" textLength="35.5319" x="503.5413" y="627.6241">Redis</text></g><g class="participant participant-head" data-participant="Worker"><rect fill="#FFFFFF" height="33.0679" rx="2.5" ry="2.5" style="stroke:#000000;stroke-width:1;" width="107.2396" x="605.2335" y="51"/><text fill="#000000" font-family="Verdana" font-size="14" lengthAdjust="spacing" textLength="93.2396" x="612.2335" y="72.9659">Celery Worker</text></g><g class="participant participant-tail" data-participant="Worker"><rect fill="#FFFFFF" height="33.0679" rx="2.5" ry="2.5" style="stroke:#000000;stroke-width:1;" width="107.2396" x="605.2335" y="607.6582"/><text fill="#000000" font-family="Verdana" font-size="14" lengthAdjust="spacing" textLength="93.2396" x="612.2335" y="629.6241">Celery Worker</text></g><g class="participant participant-head" data-participant="Engine"><rect fill="#FFFFFF" height="33.0679" rx="2.5" ry="2.5" style="stroke:#000000;stroke-width:1;" width="123.8156" x="797.8667" y="51"/><text fill="#000000" font-family="Verdana" font-size="14" lengthAdjust="spacing" textLength="109.8156" x="804.8667" y="72.9659">Motor de Regras</text></g><g class="participant participant-tail" data-participant="Engine"><rect fill="#FFFFFF" height="33.0679" rx="2.5" ry="2.5" style="stroke:#000000;stroke-width:1;" width="123.8156" x="797.8667" y="607.6582"/><text fill="#000000" font-family="Verdana" font-size="14" lengthAdjust="spacing" textLength="109.8156" x="804.8667" y="629.6241">Motor de Regras</text></g><g class="participant participant-head" data-participant="DB"><text fill="#000000" font-family="Verdana" font-size="14" lengthAdjust="spacing" textLength="76.9437" x="1062.4018" y="80.9659">PostgreSQL</text><path d="M1085.8736,30 C1085.8736,20 1103.8736,20 1103.8736,20 C1103.8736,20 1121.8736,20 1121.8736,30 L1121.8736,56 C1121.8736,66 1103.8736,66 1103.8736,66 C1103.8736,66 1085.8736,66 1085.8736,56 L1085.8736,30" fill="#FFFFFF" style="stroke:#000000;stroke-width:1;"/><path d="M1085.8736,30 C1085.8736,40 1103.8736,40 1103.8736,40 C1103.8736,40 1121.8736,40 1121.8736,30" fill="none" style="stroke:#000000;stroke-width:1;"/></g><g class="participant participant-tail" data-participant="DB"><text fill="#000000" font-family="Verdana" font-size="14" lengthAdjust="spacing" textLength="76.9437" x="1062.4018" y="622.6241">PostgreSQL</text><path d="M1085.8736,636.7261 C1085.8736,626.7261 1103.8736,626.7261 1103.8736,626.7261 C1103.8736,626.7261 1121.8736,626.7261 1121.8736,636.7261 L1121.8736,662.7261 C1121.8736,672.7261 1103.8736,672.7261 1103.8736,672.7261 C1103.8736,672.7261 1085.8736,672.7261 1085.8736,662.7261 L1085.8736,636.7261" fill="#FFFFFF" style="stroke:#000000;stroke-width:1;"/><path d="M1085.8736,636.7261 C1085.8736,646.7261 1103.8736,646.7261 1103.8736,646.7261 C1103.8736,646.7261 1121.8736,646.7261 1121.8736,636.7261" fill="none" style="stroke:#000000;stroke-width:1;"/></g><g><title>Celery Worker</title><rect fill="#FFFFFF" height="313.3541" style="stroke:#000000;stroke-width:1;" width="10" x="653.8533" y="182.186"/></g><g class="message" data-participant-1="User" data-participant-2="View"><polygon fill="#000000" points="254.0231,114.7739,264.0231,118.7739,254.0231,122.7739,258.0231,118.7739" style="stroke:#000000;stroke-width:1;"/><line style="stroke:#000000;stroke-width:1;" x1="37.5629" x2="260.0231" y1="118.7739" y2="118.7739"/><text fill="#000000" font-family="Verdana" font-size="13" font-weight="bold" lengthAdjust="spacing" textLength="7.436" x="44.5629" y="112.9649">1</text><text fill="#000000" font-family="Verdana" font-size="13" lengthAdjust="spacing" textLength="193.0242" x="55.9989" y="112.9649">"Executar Auditoria (Produ&#231;&#227;o)"</text></g><g class="message" data-participant-1="View" data-participant-2="Redis"><polygon fill="#000000" points="514.3073,146.4799,524.3073,150.4799,514.3073,154.4799,518.3073,150.4799" style="stroke:#000000;stroke-width:1;"/><line style="stroke:#000000;stroke-width:1;" x1="266.0231" x2="520.3073" y1="150.4799" y2="150.4799"/><text fill="#000000" font-family="Verdana" font-size="13" font-weight="bold" lengthAdjust="spacing" textLength="7.436" x="273.0231" y="144.6709">2</text><text fill="#000000" font-family="Verdana" font-size="13" lengthAdjust="spacing" textLength="224.8482" x="284.4591" y="144.6709">enqueue(executar_regras_producao)</text></g><g class="message" data-participant-1="Redis" data-participant-2="Worker"><polygon fill="#000000" points="641.8533,178.186,651.8533,182.186,641.8533,186.186,645.8533,182.186" style="stroke:#000000;stroke-width:1;"/><line style="stroke:#000000;stroke-width:1;" x1="526.3073" x2="647.8533" y1="182.186" y2="182.186"/><text fill="#000000" font-family="Verdana" font-size="13" font-weight="bold" lengthAdjust="spacing" textLength="7.436" x="533.3073" y="176.377">3</text><text fill="#000000" font-family="Verdana" font-size="13" lengthAdjust="spacing" textLength="97.1101" x="544.7433" y="176.377">consumir tarefa</text></g><g class="message" data-participant-1="Worker" data-participant-2="Engine"><polygon fill="#000000" points="847.7745,209.892,857.7745,213.892,847.7745,217.892,851.7745,213.892" style="stroke:#000000;stroke-width:1;"/><line style="stroke:#000000;stroke-width:1;" x1="663.8533" x2="853.7745" y1="213.892" y2="213.892"/><text fill="#000000" font-family="Verdana" font-size="13" font-weight="bold" lengthAdjust="spacing" textLength="7.436" x="670.8533" y="208.083">4</text><text fill="#000000" font-family="Verdana" font-size="13" lengthAdjust="spacing" textLength="160.4851" x="682.2894" y="208.083">carregar lista de 28 regras</text></g><path d="M777.8667,228.892 L851.1547,228.892 L851.1547,238.598 L841.1547,248.598 L777.8667,248.598 L777.8667,228.892" fill="#FFFFFF" style="stroke:#000000;stroke-width:1;"/><rect fill="none" height="191.2361" style="stroke:#000000;stroke-width:1;" width="377.4788" x="777.8667" y="228.892"/><text fill="#000000" font-family="Verdana" font-size="13" font-weight="bold" lengthAdjust="spacing" textLength="28.288" x="792.8667" y="243.789">loop</text><text fill="#000000" font-family="Verdana" font-size="11" font-weight="bold" lengthAdjust="spacing" textLength="94.1923" x="866.1547" y="242.6509">[Para cada regra]</text><g class="message" data-participant-1="Engine" data-participant-2="DB"><polygon fill="#000000" points="1091.8736,268.304,1101.8736,272.304,1091.8736,276.304,1095.8736,272.304" style="stroke:#000000;stroke-width:1;"/><line style="stroke:#000000;stroke-width:1;" x1="859.7745" x2="1097.8736" y1="272.304" y2="272.304"/><text fill="#000000" font-family="Verdana" font-size="13" font-weight="bold" lengthAdjust="spacing" textLength="7.436" x="866.7745" y="266.495">5</text><text fill="#000000" font-family="Verdana" font-size="13" lengthAdjust="spacing" textLength="107.1721" x="878.2105" y="266.495">SELECT COUNT(*)</text></g><g class="message" data-participant-1="Engine" data-participant-2="DB"><polygon fill="#000000" points="1091.8736,300.01,1101.8736,304.01,1091.8736,308.01,1095.8736,304.01" style="stroke:#000000;stroke-width:1;"/><line style="stroke:#000000;stroke-width:1;" x1="859.7745" x2="1097.8736" y1="304.01" y2="304.01"/><text fill="#000000" font-family="Verdana" font-size="13" font-weight="bold" lengthAdjust="spacing" textLength="7.436" x="866.7745" y="298.201">6</text><text fill="#000000" font-family="Verdana" font-size="13" lengthAdjust="spacing" textLength="185.9782" x="878.2105" y="298.201">SELECT WHERE condi&#231;&#227;o_falha</text></g><g class="message" data-participant-1="DB" data-participant-2="Engine"><polygon fill="#000000" points="870.7745,331.716,860.7745,335.716,870.7745,339.716,866.7745,335.716" style="stroke:#000000;stroke-width:1;"/><line style="stroke:#000000;stroke-width:1;stroke-dasharray:2,2;" x1="864.7745" x2="1102.8736" y1="335.716" y2="335.716"/><text fill="#000000" font-family="Verdana" font-size="13" font-weight="bold" lengthAdjust="spacing" textLength="7.436" x="876.7745" y="329.907">7</text><text fill="#000000" font-family="Verdana" font-size="13" lengthAdjust="spacing" textLength="124.8391" x="888.2105" y="329.907">registros irregulares</text></g><g class="message" data-participant-1="Engine" data-participant-2="Engine"><line style="stroke:#000000;stroke-width:1;" x1="859.7745" x2="901.7745" y1="367.4221" y2="367.4221"/><line style="stroke:#000000;stroke-width:1;" x1="901.7745" x2="901.7745" y1="367.4221" y2="380.4221"/><line style="stroke:#000000;stroke-width:1;" x1="860.7745" x2="901.7745" y1="380.4221" y2="380.4221"/><polygon fill="#000000" points="870.7745,376.4221,860.7745,380.4221,870.7745,384.4221,866.7745,380.4221" style="stroke:#000000;stroke-width:1;"/><text fill="#000000" font-family="Verdana" font-size="13" font-weight="bold" lengthAdjust="spacing" textLength="7.436" x="866.7745" y="361.6131">8</text><text fill="#000000" font-family="Verdana" font-size="13" lengthAdjust="spacing" textLength="136.5261" x="878.2105" y="361.6131">calcular conformidade</text></g><g class="message" data-participant-1="Engine" data-participant-2="DB"><polygon fill="#000000" points="1091.8736,408.1281,1101.8736,412.1281,1091.8736,416.1281,1095.8736,412.1281" style="stroke:#000000;stroke-width:1;"/><line style="stroke:#000000;stroke-width:1;" x1="859.7745" x2="1097.8736" y1="412.1281" y2="412.1281"/><text fill="#000000" font-family="Verdana" font-size="13" font-weight="bold" lengthAdjust="spacing" textLength="7.436" x="866.7745" y="406.3191">9</text><text fill="#000000" font-family="Verdana" font-size="13" lengthAdjust="spacing" textLength="208.6632" x="878.2105" y="406.3191">INSERT RelatorioAnaliseRelacional</text></g><g class="message" data-participant-1="Worker" data-participant-2="Worker"><line style="stroke:#000000;stroke-width:1;" x1="663.8533" x2="705.8533" y1="450.8341" y2="450.8341"/><line style="stroke:#000000;stroke-width:1;" x1="705.8533" x2="705.8533" y1="450.8341" y2="463.8341"/><line style="stroke:#000000;stroke-width:1;" x1="664.8533" x2="705.8533" y1="463.8341" y2="463.8341"/><polygon fill="#000000" points="674.8533,459.8341,664.8533,463.8341,674.8533,467.8341,670.8533,463.8341" style="stroke:#000000;stroke-width:1;"/><text fill="#000000" font-family="Verdana" font-size="13" font-weight="bold" lengthAdjust="spacing" textLength="14.872" x="670.8533" y="445.0251">10</text><text fill="#000000" font-family="Verdana" font-size="13" lengthAdjust="spacing" textLength="74.6071" x="689.7254" y="445.0251">calcular DQI</text></g><path d="M785.4791,435.6281 L785.4791,462.6281 L1022.4791,462.6281 L1022.4791,445.6281 L1012.4791,435.6281 L785.4791,435.6281" fill="#FFFFFF" style="stroke:#000000;stroke-width:1;"/><path d="M1012.4791,435.6281 L1012.4791,445.6281 L1022.4791,445.6281 L1012.4791,435.6281" fill="#FFFFFF" style="stroke:#000000;stroke-width:1;"/><text fill="#000000" font-family="Verdana" font-size="13" lengthAdjust="spacing" textLength="216.4762" x="791.4791" y="454.5251">DQI = 0.3*C + 0.3*K + 0.2*V + 0.2*U</text><g class="message" data-participant-1="Worker" data-participant-2="DB"><polygon fill="#000000" points="1091.8736,491.5401,1101.8736,495.5401,1091.8736,499.5401,1095.8736,495.5401" style="stroke:#000000;stroke-width:1;"/><line style="stroke:#000000;stroke-width:1;" x1="658.8533" x2="1097.8736" y1="495.5401" y2="495.5401"/><text fill="#000000" font-family="Verdana" font-size="13" font-weight="bold" lengthAdjust="spacing" textLength="14.872" x="665.8533" y="489.7311">11</text><text fill="#000000" font-family="Verdana" font-size="13" lengthAdjust="spacing" textLength="126.6071" x="684.7254" y="489.7311">INSERT RelatorioDQI</text></g><g class="message" data-participant-1="User" data-participant-2="View"><polygon fill="#000000" points="254.0231,523.2461,264.0231,527.2461,254.0231,531.2461,258.0231,527.2461" style="stroke:#000000;stroke-width:1;"/><line style="stroke:#000000;stroke-width:1;" x1="37.5629" x2="260.0231" y1="527.2461" y2="527.2461"/><text fill="#000000" font-family="Verdana" font-size="13" font-weight="bold" lengthAdjust="spacing" textLength="14.872" x="44.5629" y="521.4371">12</text><text fill="#000000" font-family="Verdana" font-size="13" lengthAdjust="spacing" textLength="138.6191" x="63.4349" y="521.4371">Recarregar Dashboard</text></g><g class="message" data-participant-1="View" data-participant-2="DB"><polygon fill="#000000" points="1091.8736,554.9521,1101.8736,558.9521,1091.8736,562.9521,1095.8736,558.9521" style="stroke:#000000;stroke-width:1;"/><line style="stroke:#000000;stroke-width:1;" x1="266.0231" x2="1097.8736" y1="558.9521" y2="558.9521"/><text fill="#000000" font-family="Verdana" font-size="13" font-weight="bold" lengthAdjust="spacing" textLength="14.872" x="273.0231" y="553.1431">13</text><text fill="#000000" font-family="Verdana" font-size="13" lengthAdjust="spacing" textLength="161.8891" x="291.8951" y="553.1431">SELECT relat&#243;rios recentes</text></g><g class="message" data-participant-1="View" data-participant-2="User"><polygon fill="#000000" points="48.5629,586.6582,38.5629,590.6582,48.5629,594.6582,44.5629,590.6582" style="stroke:#000000;stroke-width:1;"/><line style="stroke:#000000;stroke-width:1;stroke-dasharray:2,2;" x1="42.5629" x2="265.0231" y1="590.6582" y2="590.6582"/><text fill="#000000" font-family="Verdana" font-size="13" font-weight="bold" lengthAdjust="spacing" textLength="14.872" x="54.5629" y="584.8492">14</text><text fill="#000000" font-family="Verdana" font-size="13" lengthAdjust="spacing" textLength="137.2151" x="73.4349" y="584.8492">Renderizar Dashboard</text></g><!--SRC=[VLFRZjCm47ttLmnvQeiMeUK58O6qsqPYnR9qUzbzhARnjBL8xM0xt7w71pw0J-YFCMDdImehykAnSywPSyR9axYZFK5Jex4As-Xikr-JLmghw3mK5wqsN1I00PQ1NpJeewbCWpP2CS6mMplq-ixGbuIHGdrggIKePgHDIAUfEgMEgIR_3UwT_qXPFfUdgFTEN6XYXQt7B5RQhR6aD4PSO-0-KnVYrjFyzZgzdrmg9LRXx4so0w-WABzIrKRqqEKn28EfTxez_3pySCD29I0JabDca4qX1jGHLpuPM3L2gj0DbSfGvcJZJAgS3UtUU602RL1cQ3vZf8TegaCo9uSG3dgMPcUr2H4bwlbBoCsKgfrhO8eU6QOn7olWfwEpqEIIHURbTJbUmFZ3ycOn60t_0xb_MyvACQfDYhxQOBtBcWmxwplZRcp9km16BBOrXs9Ffzgz77Kb4D7UEByt6ZKzPkJgPbxE5Zpe6kKYt8L5ZawohupZZIAh-wFwCzw75fFRAwMiuy5wizr5wS97y1gUFtin6iFJjBvBw_dehbkNeWl2wei_QadqDVrpUtzzL3CwtjtnFpX-H_sPUz4z_6BXm7L5Dl8SCv2HILNKh2Pllf-e_GO0]--></g></svg>