<svg xmlns="http://www.w3.org/2000/svg" xmlns:xlink="http://www.w3.org/1999/xlink" contentStyleType="text/css" data-diagram-type="SEQUENCE" height="525px" preserveAspectRatio="none" style="width:545px;height:525px;background:#FFFFFF;" version="1.1" viewBox="0 0 545 525" width="545px" zoomAndPan="magnify"><defs/><g><rect fill="#FFFFFF" height="163.512" style="stroke:#000000;stroke-width:1;" width="523.2082" x="15" y="228.892"/><rect fill="#FFFFFF" height="80.3939" style="stroke:none;stroke-width:1;" width="523.2082" x="15" y="312.01"/><g><title>Gerente de Governan.a</title><rect fill="#000000" fill-opacity="0.00000" height="356.0421" width="8" x="102.1687" y="85.0679"/><line style="stroke:#000000;stroke-width:1;stroke-dasharray:5,5;" x1="106" x2="106" y1="85.0679" y2="441.11"/></g><g><title>PainelGestaoView</title><rect fill="#000000" fill-opacity="0.00000" height="356.0421" width="8" x="268.9271" y="85.0679"/><line style="stroke:#000000;stroke-width:1;stroke-dasharray:5,5;" x1="272.3374" x2="272.3374" y1="85.0679" y2="441.11"/></g><g><title>PostgreSQL</title><rect fill="#000000" fill-opacity="0.00000" height="356.0421" width="8" x="482.7363" y="85.0679"/><line style="stroke:#000000;stroke-width:1;stroke-dasharray:5,5;" x1="486.2645" x2="486.2645" y1="85.0679" y2="441.11"/></g><g class="participant participant-head" data-participant="Manager"><text fill="#000000" font-family="Verdana" font-size="14" lengthAdjust="spacing" textLength="156.3374" x="25" y="80.9659">Gerente de Governan&#231;a</text><ellipse cx="106.1687" cy="14" fill="#FFFFFF" rx="8" ry="8" style="stroke:#000000;stroke-width:1;"/><path d="M106.1687,22 L106.1687,49 M93.1687,30 L119.1687,30 M106.1687,49 L93.1687,64 M106.1687,49 L119.1687,64" fill="none" style="stroke:#000000;stroke-width:1;"/></g><g class="participant participant-tail" data-participant="Manager"><text fill="#000000" font-family="Verdana" font-size="14" lengthAdjust="spacing" textLength="156.3374" x="25" y="455.0759">Gerente de Governan&#231;a</text><ellipse cx="106.1687" cy="468.1779" fill="#FFFFFF" rx="8" ry="8" style="stroke:#000000;stroke-width:1;"/><path d="M106.1687,476.1779 L106.1687,503.1779 M93.1687,484.1779 L119.1687,484.1779 M106.1687,503.1779 L93.1687,518.1779 M106.1687,503.1779 L119.1687,518.1779" fill="none" style="stroke:#000000;stroke-width:1;"/></g><g class="participant participant-head" data-participant="View"><rect fill="#FFFFFF" height="33.0679" rx="2.5" ry="2.5" style="stroke:#000000;stroke-width:1;" width="131.1795" x="207.3374" y="51"/><text fill="#000000" font-family="Verdana" font-size="14" lengthAdjust="spacing" textLength="117.1795" x="214.3374" y="72.9659">PainelGestaoView</text></g><g class="participant participant-tail" data-participant="View"><rect fill="#FFFFFF" height="33.0679" rx="2.5" ry="2.5" style="stroke:#000000;stroke-width:1;" width="131.1795" x="207.3374" y="440.11"/><text fill="#000000" font-family="Verdana" font-size="14" lengthAdjust="spacing" textLength="117.1795" x="214.3374" y="462.0759">PainelGestaoView</text></g><g class="participant participant-head" data-participant="DB"><text fill="#000000" font-family="Verdana" font-size="14" lengthAdjust="spacing" textLength="76.9437" x="445.2645" y="80.9659">PostgreSQL</text><path d="M468.7363,30 C468.7363,20 486.7363,20 486.7363,20 C486.7363,20 504.7363,20 504.7363,30 L504.7363,56 C504.7363,66 486.7363,66 486.7363,66 C486.7363,66 468.7363,66 468.7363,56 L468.7363,30" fill="#FFFFFF" style="stroke:#000000;stroke-width:1;"/><path d="M468.7363,30 C468.7363,40 486.7363,40 486.7363,40 C486.7363,40 504.7363,40 504.7363,30" fill="none" style="stroke:#000000;stroke-width:1;"/></g><g class="participant participant-tail" data-participant="DB"><text fill="#000000" font-family="Verdana" font-size="14" lengthAdjust="spacing" textLength="76.9437" x="445.2645" y="455.0759">PostgreSQL</text><path d="M468.7363,469.1779 C468.7363,459.1779 486.7363,459.1779 486.7363,459.1779 C486.7363,459.1779 504.7363,459.1779 504.7363,469.1779 L504.7363,495.1779 C504.7363,505.1779 486.7363,505.1779 486.7363,505.1779 C486.7363,505.1779 468.7363,505.1779 468.7363,495.1779 L468.7363,469.1779" fill="#FFFFFF" style="stroke:#000000;stroke-width:1;"/><path d="M468.7363,469.1779 C468.7363,479.1779 486.7363,479.1779 486.7363,479.1779 C486.7363,479.1779 504.7363,479.1779 504.7363,469.1779" fill="none" style="stroke:#000000;stroke-width:1;"/></g><g class="message" data-participant-1="Manager" data-participant-2="View"><polygon fill="#000000" points="260.9271,114.7739,270.9271,118.7739,260.9271,122.7739,264.9271,118.7739" style="stroke:#000000;stroke-width:1;"/><line style="stroke:#000000;stroke-width:1;" x1="106.1687" x2="266.9271" y1="118.7739" y2="118.7739"/><text fill="#000000" font-family="Verdana" font-size="13" font-weight="bold" lengthAdjust="spacing" textLength="7.436" x="113.1687" y="112.9649">1</text><text fill="#000000" font-family="Verdana" font-size="13" lengthAdjust="spacing" textLength="96.0831" x="124.6047" y="112.9649">Acessa /gestao/</text></g><g class="message" data-participant-1="View" data-participant-2="DB"><polygon fill="#000000" points="474.7363,146.4799,484.7363,150.4799,474.7363,154.4799,478.7363,150.4799" style="stroke:#000000;stroke-width:1;"/><line style="stroke:#000000;stroke-width:1;" x1="272.9271" x2="480.7363" y1="150.4799" y2="150.4799"/><text fill="#000000" font-family="Verdana" font-size="13" font-weight="bold" lengthAdjust="spacing" textLength="7.436" x="279.9271" y="144.6709">2</text><text fill="#000000" font-family="Verdana" font-size="13" lengthAdjust="spacing" textLength="178.1782" x="291.3631" y="144.6709">SELECT incidentes pendentes</text></g><g class="message" data-participant-1="View" data-participant-2="Manager"><polygon fill="#000000" points="117.1687,178.186,107.1687,182.186,117.1687,186.186,113.1687,182.186" style="stroke:#000000;stroke-width:1;"/><line style="stroke:#000000;stroke-width:1;stroke-dasharray:2,2;" x1="111.1687" x2="271.9271" y1="182.186" y2="182.186"/><text fill="#000000" font-family="Verdana" font-size="13" font-weight="bold" lengthAdjust="spacing" textLength="7.436" x="123.1687" y="176.377">3</text><text fill="#000000" font-family="Verdana" font-size="13" lengthAdjust="spacing" textLength="109.6031" x="134.6047" y="176.377">lista de incidentes</text></g><g class="message" data-participant-1="Manager" data-participant-2="View"><polygon fill="#000000" points="260.9271,209.892,270.9271,213.892,260.9271,217.892,264.9271,213.892" style="stroke:#000000;stroke-width:1;"/><line style="stroke:#000000;stroke-width:1;" x1="106.1687" x2="266.9271" y1="213.892" y2="213.892"/><text fill="#000000" font-family="Verdana" font-size="13" font-weight="bold" lengthAdjust="spacing" textLength="7.436" x="113.1687" y="208.083">4</text><text fill="#000000" font-family="Verdana" font-size="13" lengthAdjust="spacing" textLength="125.2811" x="124.6047" y="208.083">Abrir Incidente #123</text></g><path d="M15,228.892 L77.459,228.892 L77.459,238.598 L67.459,248.598 L15,248.598 L15,228.892" fill="#FFFFFF" style="stroke:#000000;stroke-width:1;"/><rect fill="none" height="163.512" style="stroke:#000000;stroke-width:1;" width="523.2082" x="15" y="228.892"/><text fill="#000000" font-family="Verdana" font-size="13" font-weight="bold" lengthAdjust="spacing" textLength="17.459" x="30" y="243.789">alt</text><text fill="#000000" font-family="Verdana" font-size="11" font-weight="bold" lengthAdjust="spacing" textLength="143.7469" x="92.459" y="242.6509">[Rejeitar (erro do t&#233;cnico)]</text><g class="message" data-participant-1="Manager" data-participant-2="View"><polygon fill="#000000" points="260.9271,268.304,270.9271,272.304,260.9271,276.304,264.9271,272.304" style="stroke:#000000;stroke-width:1;"/><line style="stroke:#000000;stroke-width:1;" x1="106.1687" x2="266.9271" y1="272.304" y2="272.304"/><text fill="#000000" font-family="Verdana" font-size="13" font-weight="bold" lengthAdjust="spacing" textLength="7.436" x="113.1687" y="266.495">5</text><text fill="#000000" font-family="Verdana" font-size="13" lengthAdjust="spacing" textLength="89.2581" x="124.6047" y="266.495">Clica "Rejeitar"</text></g><g class="message" data-participant-1="View" data-participant-2="DB"><polygon fill="#000000" points="474.7363,300.01,484.7363,304.01,474.7363,308.01,478.7363,304.01" style="stroke:#000000;stroke-width:1;"/><line style="stroke:#000000;stroke-width:1;" x1="272.9271" x2="480.7363" y1="304.01" y2="304.01"/><text fill="#000000" font-family="Verdana" font-size="13" font-weight="bold" lengthAdjust="spacing" textLength="7.436" x="279.9271" y="298.201">6</text><text fill="#000000" font-family="Verdana" font-size="13" lengthAdjust="spacing" textLength="173.8882" x="291.3631" y="298.201">UPDATE status="REJEITADO"</text></g><line style="stroke:#000000;stroke-width:1;stroke-dasharray:2,2;" x1="15" x2="538.2082" y1="313.01" y2="313.01"/><text fill="#000000" font-family="Verdana" font-size="11" font-weight="bold" lengthAdjust="spacing" textLength="98.1743" x="20" y="324.7689">[Aprovar Exce&#231;&#227;o]</text><g class="message" data-participant-1="Manager" data-participant-2="View"><polygon fill="#000000" points="260.9271,348.6979,270.9271,352.6979,260.9271,356.6979,264.9271,352.6979" style="stroke:#000000;stroke-width:1;"/><line style="stroke:#000000;stroke-width:1;" x1="106.1687" x2="266.9271" y1="352.6979" y2="352.6979"/><text fill="#000000" font-family="Verdana" font-size="13" font-weight="bold" lengthAdjust="spacing" textLength="7.436" x="113.1687" y="346.8889">7</text><text fill="#000000" font-family="Verdana" font-size="13" lengthAdjust="spacing" textLength="91.2471" x="124.6047" y="346.8889">Clica "Aprovar"</text></g><g class="message" data-participant-1="View" data-participant-2="DB"><polygon fill="#000000" points="474.7363,380.404,484.7363,384.404,474.7363,388.404,478.7363,384.404" style="stroke:#000000;stroke-width:1;"/><line style="stroke:#000000;stroke-width:1;" x1="272.9271" x2="480.7363" y1="384.404" y2="384.404"/><text fill="#000000" font-family="Verdana" font-size="13" font-weight="bold" lengthAdjust="spacing" textLength="7.436" x="279.9271" y="378.595">8</text><text fill="#000000" font-family="Verdana" font-size="13" lengthAdjust="spacing" textLength="178.3732" x="291.3631" y="378.595">UPDATE status="APROVADO"</text></g><g class="message" data-participant-1="View" data-participant-2="Manager"><polygon fill="#000000" points="117.1687,419.11,107.1687,423.11,117.1687,427.11,113.1687,423.11" style="stroke:#000000;stroke-width:1;"/><line style="stroke:#000000;stroke-width:1;stroke-dasharray:2,2;" x1="111.1687" x2="271.9271" y1="423.11" y2="423.11"/><text fill="#000000" font-family="Verdana" font-size="13" font-weight="bold" lengthAdjust="spacing" textLength="7.436" x="123.1687" y="417.301">9</text><text fill="#000000" font-family="Verdana" font-size="13" lengthAdjust="spacing" textLength="124.3971" x="134.6047" y="417.301">Confirma&#231;&#227;o "Salvo"</text></g><!--SRC=[XP3FJW8n4CRlVOgnNlHWY7eZqMHXDniC1kJVVUYEM5FQJJkWx-E1-1pxOfQon1Y9zZJfzvllcvapVg4rGMrGMu4RTdQpNf8N0XKx3x8aJvO9AeBIRSbRjCqE9M20HxIuYcYDdhNIDLe6EOu-P4eAZ6wXwIsH-q9KoBZ4G95nWLUUfa_3fEOz8LelkBfFC7GXKnG2GcULh3eYVKSvxqLnMWoB_WoqLRhQZnUW9dkeMZ2IHyyk61qzzYjyDvoCN7hjON1auFpwvZOUmZ1Cw9KqeuSByjv1vO2RJsMrSfS2ulljrJTQ8SXZeqpOZntcupoR5H0duqsuavFYeHZCidma1PbufQpsRXiJYtT5pQxvS7y7jVZ_ETbuCbeSOcmbJbshx-opzcjCgI2dQBPEYYy0]--></g></svg>