<svg xmlns="http://www.w3.org/2000/svg" xmlns:xlink="http://www.w3.org/1999/xlink" contentStyleType="text/css" data-diagram-type="ACTIVITY" height="628px" preserveAspectRatio="none" style="width:752px;height:628px;background:#FFFFFF;" version="1.1" viewBox="0 0 752 628" width="752px" zoomAndPan="magnify"><title>Fluxo de Resolu&#231;&#227;o de Incidentes &#8212; Gest&#227;o</title><defs/><g><g class="title" data-source-line="3"><text fill="#000000" font-family="Verdana" font-size="22" font-weight="bold" lengthAdjust="spacing" textLength="473.4196" x="137.8357" y="38.5181">Fluxo de Resolu&#231;&#227;o de Incidentes &#8212; Gest&#227;o</text></g><rect fill="#FFFFFF" height="24.5158" style="stroke:#FFFFFF;stroke-width:1;" width="729.091" x="10" y="59.7381"/><ellipse cx="173.301" cy="99.2539" fill="#FFFFFF" rx="10" ry="10" style="stroke:#000000;stroke-width:1;"/><rect fill="#FFFFFF" height="36.3441" rx="12.5" ry="12.5" style="stroke:#000000;stroke-width:1;" width="154.641" x="95.9805" y="129.2539"/><text fill="#000000" font-family="Verdana" font-size="12" lengthAdjust="spacing" textLength="134.641" x="105.9805" y="152.082">Acessa painel de gest&#227;o</text><rect fill="#FFFFFF" height="291.4157" style="stroke:#000000;stroke-width:1;" width="429.9922" x="16" y="288.2863"/><path d="M77.4778,288.2863 L77.4778,300.3542 L67.4778,310.3542 L16,310.3542" fill="none" style="stroke:#000000;stroke-width:1;"/><text fill="#000000" font-family="Verdana" font-size="14" lengthAdjust="spacing" textLength="51.4778" x="19" y="304.2522">Decis&#227;o</text><rect fill="#FFFFFF" height="36.3441" rx="12.5" ry="12.5" style="stroke:#000000;stroke-width:1;" width="104.2286" x="121.1867" y="376.8451"/><text fill="#000000" font-family="Verdana" font-size="12" lengthAdjust="spacing" textLength="84.2286" x="131.1867" y="399.6732">Clica "Aprovar"</text><rect fill="#FFFFFF" height="36.3441" rx="12.5" ry="12.5" style="stroke:#000000;stroke-width:1;" width="290.6019" x="28" y="487.3579"/><text fill="#000000" font-family="Verdana" font-size="12" lengthAdjust="spacing" textLength="270.6019" x="38" y="510.186">&gt; PainelGestaoView : UPDATE status=REJEITADO</text><polygon fill="#FFFFFF" points="128.0748,327.3542,218.5271,327.3542,230.5271,339.3542,218.5271,351.3542,128.0748,351.3542,116.0748,339.3542,128.0748,327.3542" style="stroke:#000000;stroke-width:1;"/><text fill="#000000" font-family="Verdana" font-size="11" lengthAdjust="spacing" textLength="18.3919" x="177.301" y="363.1131">sim</text><text fill="#000000" font-family="Verdana" font-size="11" lengthAdjust="spacing" textLength="90.4524" x="128.0748" y="343.6221">Aprovar Exce&#231;&#227;o?</text><polygon fill="#FFFFFF" points="173.301,543.702,185.301,555.702,173.301,567.702,161.301,555.702,173.301,543.702" style="stroke:#000000;stroke-width:1;"/><line style="stroke:#000000;stroke-width:1;" x1="10" x2="10" y1="59.7381" y2="621.702"/><rect fill="#FFFFFF" height="36.3441" rx="12.5" ry="12.5" style="stroke:#000000;stroke-width:1;" width="193.5812" x="455.9922" y="185.598"/><text fill="#000000" font-family="Verdana" font-size="12" lengthAdjust="spacing" textLength="173.5812" x="465.9922" y="208.4261">Consulta incidentes pendentes</text><rect fill="#FFFFFF" height="36.3441" rx="12.5" ry="12.5" style="stroke:#000000;stroke-width:1;" width="103.8926" x="500.8365" y="241.9421"/><text fill="#000000" font-family="Verdana" font-size="12" lengthAdjust="spacing" textLength="83.8926" x="510.8365" y="264.7702">Apresenta lista</text><line style="stroke:#000000;stroke-width:1;" x1="449.9922" x2="449.9922" y1="59.7381" y2="621.702"/><ellipse cx="696.1622" cy="610.702" fill="none" rx="11" ry="11" style="stroke:#000000;stroke-width:1;"/><ellipse cx="696.1622" cy="610.702" fill="#FFFFFF" rx="6" ry="6" style="stroke:#000000;stroke-width:1;"/><line style="stroke:#000000;stroke-width:1;" x1="653.5734" x2="653.5734" y1="59.7381" y2="621.702"/><line style="stroke:#000000;stroke-width:1;" x1="737.751" x2="737.751" y1="59.7381" y2="621.702"/><line style="stroke:#000000;stroke-width:1;" x1="173.301" x2="173.301" y1="109.2539" y2="129.2539"/><polygon fill="#000000" points="169.301,119.2539,173.301,129.2539,177.301,119.2539,173.301,123.2539" style="stroke:#000000;stroke-width:1;"/><line style="stroke:#000000;stroke-width:1;" x1="173.301" x2="173.301" y1="413.1892" y2="487.3579"/><polygon fill="#000000" points="169.301,477.3579,173.301,487.3579,177.301,477.3579,173.301,481.3579" style="stroke:#000000;stroke-width:1;"/><text fill="#000000" font-family="Verdana" font-size="11" lengthAdjust="spacing" textLength="242.6912" x="177.301" y="436.6711">PainelGestaoView : UPDATE status=APROVADO</text><text fill="#000000" font-family="Verdana" font-size="11" lengthAdjust="spacing" textLength="49.5986" x="177.301" y="451.653">else (n&#227;o)</text><text fill="#000000" font-family="Verdana" font-size="11" lengthAdjust="spacing" textLength="177.6488" x="183.0209" y="466.6349">:Clica "Rejeitar / Solicitar corre&#231;&#227;o"</text><line style="stroke:#000000;stroke-width:1;" x1="173.301" x2="173.301" y1="351.3542" y2="376.8451"/><polygon fill="#000000" points="169.301,366.8451,173.301,376.8451,177.301,366.8451,173.301,370.8451" style="stroke:#000000;stroke-width:1;"/><line style="stroke:#000000;stroke-width:1;" x1="230.5271" x2="429.9922" y1="339.3542" y2="339.3542"/><polygon fill="#000000" points="425.9922,437.385,429.9922,447.385,433.9922,437.385,429.9922,441.385" style="stroke:#000000;stroke-width:1;"/><line style="stroke:#000000;stroke-width:1;" x1="429.9922" x2="429.9922" y1="339.3542" y2="555.702"/><line style="stroke:#000000;stroke-width:1;" x1="429.9922" x2="185.301" y1="555.702" y2="555.702"/><polygon fill="#000000" points="195.301,551.702,185.301,555.702,195.301,559.702,191.301,555.702" style="stroke:#000000;stroke-width:1;"/><line style="stroke:#000000;stroke-width:1;" x1="173.301" x2="173.301" y1="523.702" y2="543.702"/><polygon fill="#000000" points="169.301,533.702,173.301,543.702,177.301,533.702,173.301,537.702" style="stroke:#000000;stroke-width:1;"/><line style="stroke:#000000;stroke-width:1;" x1="552.7828" x2="552.7828" y1="221.9421" y2="241.9421"/><polygon fill="#000000" points="548.7828,231.9421,552.7828,241.9421,556.7828,231.9421,552.7828,235.9421" style="stroke:#000000;stroke-width:1;"/><line style="stroke:#000000;stroke-width:1;" x1="173.301" x2="173.301" y1="165.598" y2="170.598"/><line style="stroke:#000000;stroke-width:1;" x1="173.301" x2="552.7828" y1="170.598" y2="170.598"/><line style="stroke:#000000;stroke-width:1;" x1="552.7828" x2="552.7828" y1="170.598" y2="185.598"/><polygon fill="#000000" points="548.7828,175.598,552.7828,185.598,556.7828,175.598,552.7828,179.598" style="stroke:#000000;stroke-width:1;"/><line style="stroke:#000000;stroke-width:1;" x1="552.7828" x2="552.7828" y1="278.2863" y2="290.3202"/><line style="stroke:#000000;stroke-width:1;" x1="552.7828" x2="173.301" y1="290.3202" y2="290.3202"/><line style="stroke:#000000;stroke-width:1;" x1="173.301" x2="173.301" y1="290.3202" y2="327.3542"/><polygon fill="#000000" points="169.301,317.3542,173.301,327.3542,177.301,317.3542,173.301,321.3542" style="stroke:#000000;stroke-width:1;"/><line style="stroke:#000000;stroke-width:1;" x1="173.301" x2="173.301" y1="567.702" y2="584.702"/><line style="stroke:#000000;stroke-width:1;" x1="173.301" x2="696.1622" y1="584.702" y2="584.702"/><line style="stroke:#000000;stroke-width:1;" x1="696.1622" x2="696.1622" y1="584.702" y2="599.702"/><polygon fill="#000000" points="692.1622,589.702,696.1622,599.702,700.1622,589.702,696.1622,593.702" style="stroke:#000000;stroke-width:1;"/><text fill="#000000" font-family="Verdana" font-size="18" lengthAdjust="spacing" textLength="201.0047" x="129.4937" y="78.9799">Gerente de Governan&#231;a</text><text fill="#000000" font-family="Verdana" font-size="18" lengthAdjust="spacing" textLength="150.659" x="476.4533" y="78.9799">PainelGestaoView</text><text fill="#000000" font-family="Verdana" font-size="18" lengthAdjust="spacing" textLength="74.1776" x="658.5734" y="78.9799">Postgres</text><!--SRC=[bL5BJW914DtFASfPmOAuXuYPo4Xm0ncHVMSeeBJfddJr84PCF8GtSC51k8adiRg7G4BYmbNNzxrwhw_y2jS8bLPa4duXKocdrg39e7-h4AppAvjuyXhXNjTR2tE40jdg-h0_VCTqP4gQe_78yFFv1KDaBvqasGtHXNAO6TeDEgFCOQzs2G1xvRoytQn4PWMLqACEWyjckoVDJbym9h4JC9MT4Rw6xUwTDLnhhu3Er1MQ9kf5tCeXIwf4YgoUuFu-IOIBJB86qW6Mn7942k_I0A05j0JGRfI3V5jYL7xR1l7EG8jftOvZuJ1DfOBqE9psZlLE7ovrG1UU9eDicWSlVCqtsQGOpxB1EAwWPeIM4PfBw0AVaSGzk8P7AwKObzQvvgf_KHRvGpwQdZZDd1OIVPoij-oNOcFpORRw1G00]--></g></svg>