<svg xmlns="http://www.w3.org/2000/svg" xmlns:xlink="http://www.w3.org/1999/xlink" contentStyleType="text/css" data-diagram-type="SEQUENCE" height="1073px" preserveAspectRatio="none" style="width:1383px;height:1073px;background:#FFFFFF;" version="1.1" viewBox="0 0 1383 1073" width="1383px" zoomAndPan="magnify"><defs/><g><rect fill="#FFFFFF" height="1061.1983" style="stroke:#000000;stroke-width:1;" width="169.7915" x="221.2963" y="6"/><text fill="#000000" font-family="Verdana" font-size="13" font-weight="bold" lengthAdjust="spacing" textLength="94.1071" x="259.1385" y="19.897">Aplica&#231;&#227;o Web</text><rect fill="#F5F5F5" height="1061.1983" style="stroke:#000000;stroke-width:1;" width="257.3173" x="514.4454" y="6"/><text fill="#000000" font-family="Verdana" font-size="13" font-weight="bold" lengthAdjust="spacing" textLength="169.3511" x="558.4285" y="19.897">Infraestrutura Ass&#237;ncrona</text><rect fill="#EFEFEF" height="1061.1983" style="stroke:#000000;stroke-width:1;" width="321.0729" x="878.0582" y="6"/><text fill="#000000" font-family="Verdana" font-size="13" font-weight="bold" lengthAdjust="spacing" textLength="79.001" x="999.0942" y="19.897">Persist&#234;ncia</text><g><title>Celery Worker</title><rect fill="#FFFFFF" height="653.1203" style="stroke:#000000;stroke-width:1;" width="10" x="699.1428" y="313.01"/></g><rect fill="#FFFFFF" height="127.8241" style="stroke:#000000;stroke-width:1;" width="735.5797" x="630.523" y="328.01"/><rect fill="#FFFFFF" height="109.118" style="stroke:#000000;stroke-width:1;" width="324.0659" x="630.523" y="469.8341"/><rect fill="#FFFFFF" height="89.118" style="stroke:#000000;stroke-width:1;" width="545.8311" x="630.523" y="592.9521"/><rect fill="#FFFFFF" height="239.3541" style="stroke:#000000;stroke-width:1;" width="657.1125" x="620.523" y="696.0702"/><rect fill="#FFFFFF" height="83.118" style="stroke:#000000;stroke-width:1;" width="574.6081" x="630.523" y="845.3063"/><g><title>Administrador</title><rect fill="#000000" fill-opacity="0.00000" height="891.3564" width="8" x="56.3898" y="92.7739"/><line style="stroke:#000000;stroke-width:1;stroke-dasharray:5,5;" x1="60" x2="60" y1="92.7739" y2="984.1304"/></g><g><title>PainelControleView</title><rect fill="#000000" fill-opacity="0.00000" height="891.3564" width="8" x="302.192" y="92.7739"/><line style="stroke:#000000;stroke-width:1;stroke-dasharray:5,5;" x1="305.2963" x2="305.2963" y1="92.7739" y2="984.1304"/></g><g><title>Redis .Broker.</title><rect fill="#000000" fill-opacity="0.00000" height="891.3564" width="8" x="570.4842" y="92.7739"/><line style="stroke:#000000;stroke-width:1;stroke-dasharray:5,5;" x1="574.4454" x2="574.4454" y1="92.7739" y2="984.1304"/></g><g><title>Celery Worker</title><rect fill="#000000" fill-opacity="0.00000" height="891.3564" width="8" x="700.1428" y="92.7739"/><line style="stroke:#000000;stroke-width:1;stroke-dasharray:5,5;" x1="703.523" x2="703.523" y1="92.7739" y2="984.1304"/></g><g><title>PostgreSQL .Staging.</title><rect fill="#000000" fill-opacity="0.00000" height="891.3564" width="8" x="950.589" y="92.7739"/><line style="stroke:#000000;stroke-width:1;stroke-dasharray:5,5;" x1="954.0582" x2="954.0582" y1="92.7739" y2="984.1304"/></g><g><title>PostgreSQL .Produ..o.</title><rect fill="#000000" fill-opacity="0.00000" height="891.3564" width="8" x="1112.1254" y="92.7739"/><line style="stroke:#000000;stroke-width:1;stroke-dasharray:5,5;" x1="1116.1197" x2="1116.1197" y1="92.7739" y2="984.1304"/></g><g><title>LDAP Server .AD.</title><rect fill="#000000" fill-opacity="0.00000" height="891.3564" width="8" x="1279.1169" y="92.7739"/><line style="stroke:#000000;stroke-width:1;stroke-dasharray:5,5;" x1="1282.1312" x2="1282.1312" y1="92.7739" y2="984.1304"/></g><g class="participant participant-head" data-participant="Admin"><text fill="#000000" font-family="Verdana" font-size="14" lengthAdjust="spacing" textLength="94.7797" x="10" y="88.672">Administrador</text><ellipse cx="60.3898" cy="21.706" fill="#FFFFFF" rx="8" ry="8" style="stroke:#000000;stroke-width:1;"/><path d="M60.3898,29.706 L60.3898,56.706 M47.3898,37.706 L73.3898,37.706 M60.3898,56.706 L47.3898,71.706 M60.3898,56.706 L73.3898,71.706" fill="none" style="stroke:#000000;stroke-width:1;"/></g><g class="participant participant-tail" data-participant="Admin"><text fill="#000000" font-family="Verdana" font-size="14" lengthAdjust="spacing" textLength="94.7797" x="10" y="998.0963">Administrador</text><ellipse cx="60.3898" cy="1011.1983" fill="#FFFFFF" rx="8" ry="8" style="stroke:#000000;stroke-width:1;"/><path d="M60.3898,1019.1983 L60.3898,1046.1983 M47.3898,1027.1983 L73.3898,1027.1983 M60.3898,1046.1983 L47.3898,1061.1983 M60.3898,1046.1983 L73.3898,1061.1983" fill="none" style="stroke:#000000;stroke-width:1;"/></g><g class="participant participant-head" data-participant="View"><rect fill="#FFFFFF" height="33.0679" rx="2.5" ry="2.5" style="stroke:#000000;stroke-width:1;" width="141.7915" x="235.2963" y="58.706"/><text fill="#000000" font-family="Verdana" font-size="14" lengthAdjust="spacing" textLength="127.7915" x="242.2963" y="80.672">PainelControleView</text></g><g class="participant participant-tail" data-participant="View"><rect fill="#FFFFFF" height="33.0679" rx="2.5" ry="2.5" style="stroke:#000000;stroke-width:1;" width="141.7915" x="235.2963" y="983.1304"/><text fill="#000000" font-family="Verdana" font-size="14" lengthAdjust="spacing" textLength="127.7915" x="242.2963" y="1005.0963">PainelControleView</text></g><g class="participant participant-head" data-participant="Redis"><path d="M523.4454,63.706 L625.523,63.706 C630.523,63.706 630.523,78.24 630.523,78.24 C630.523,78.24 630.523,92.7739 625.523,92.7739 L523.4454,92.7739 C518.4454,92.7739 518.4454,78.24 518.4454,78.24 C518.4454,78.24 518.4454,63.706 523.4454,63.706" fill="#FFFFFF" style="stroke:#000000;stroke-width:1;"/><path d="M625.523,63.706 C620.523,63.706 620.523,78.24 620.523,78.24 C620.523,92.7739 625.523,92.7739 625.523,92.7739" fill="none" style="stroke:#000000;stroke-width:1;"/><text fill="#000000" font-family="Verdana" font-size="14" lengthAdjust="spacing" textLength="92.0776" x="523.4454" y="83.672">Redis (Broker)</text></g><g class="participant participant-tail" data-participant="Redis"><path d="M523.4454,983.1304 L625.523,983.1304 C630.523,983.1304 630.523,997.6643 630.523,997.6643 C630.523,997.6643 630.523,1012.1983 625.523,1012.1983 L523.4454,1012.1983 C518.4454,1012.1983 518.4454,997.6643 518.4454,997.6643 C518.4454,997.6643 518.4454,983.1304 523.4454,983.1304" fill="#FFFFFF" style="stroke:#000000;stroke-width:1;"/><path d="M625.523,983.1304 C620.523,983.1304 620.523,997.6643 620.523,997.6643 C620.523,1012.1983 625.523,1012.1983 625.523,1012.1983" fill="none" style="stroke:#000000;stroke-width:1;"/><text fill="#000000" font-family="Verdana" font-size="14" lengthAdjust="spacing" textLength="92.0776" x="523.4454" y="1003.0963">Redis (Broker)</text></g><g class="participant participant-head" data-participant="Worker"><rect fill="#FFFFFF" height="33.0679" rx="2.5" ry="2.5" style="stroke:#000000;stroke-width:1;" width="107.2396" x="650.523" y="58.706"/><text fill="#000000" font-family="Verdana" font-size="14" lengthAdjust="spacing" textLength="93.2396" x="657.523" y="80.672">Celery Worker</text></g><g class="participant participant-tail" data-participant="Worker"><rect fill="#FFFFFF" height="33.0679" rx="2.5" ry="2.5" style="stroke:#000000;stroke-width:1;" width="107.2396" x="650.523" y="983.1304"/><text fill="#000000" font-family="Verdana" font-size="14" lengthAdjust="spacing" textLength="93.2396" x="657.523" y="1005.0963">Celery Worker</text></g><g class="participant participant-head" data-participant="Staging"><text fill="#000000" font-family="Verdana" font-size="14" lengthAdjust="spacing" textLength="139.0615" x="882.0582" y="88.672">PostgreSQL (Staging)</text><path d="M936.589,37.706 C936.589,27.706 954.589,27.706 954.589,27.706 C954.589,27.706 972.589,27.706 972.589,37.706 L972.589,63.706 C972.589,73.706 954.589,73.706 954.589,73.706 C954.589,73.706 936.589,73.706 936.589,63.706 L936.589,37.706" fill="#FFFFFF" style="stroke:#000000;stroke-width:1;"/><path d="M936.589,37.706 C936.589,47.706 954.589,47.706 954.589,47.706 C954.589,47.706 972.589,47.706 972.589,37.706" fill="none" style="stroke:#000000;stroke-width:1;"/></g><g class="participant participant-tail" data-participant="Staging"><text fill="#000000" font-family="Verdana" font-size="14" lengthAdjust="spacing" textLength="139.0615" x="882.0582" y="998.0963">PostgreSQL (Staging)</text><path d="M936.589,1012.1983 C936.589,1002.1983 954.589,1002.1983 954.589,1002.1983 C954.589,1002.1983 972.589,1002.1983 972.589,1012.1983 L972.589,1038.1983 C972.589,1048.1983 954.589,1048.1983 954.589,1048.1983 C954.589,1048.1983 936.589,1048.1983 936.589,1038.1983 L936.589,1012.1983" fill="#FFFFFF" style="stroke:#000000;stroke-width:1;"/><path d="M936.589,1012.1983 C936.589,1022.1983 954.589,1022.1983 954.589,1022.1983 C954.589,1022.1983 972.589,1022.1983 972.589,1012.1983" fill="none" style="stroke:#000000;stroke-width:1;"/></g><g class="participant participant-head" data-participant="Prod"><text fill="#000000" font-family="Verdana" font-size="14" lengthAdjust="spacing" textLength="152.0114" x="1037.1197" y="88.672">PostgreSQL (Produ&#231;&#227;o)</text><path d="M1098.1254,37.706 C1098.1254,27.706 1116.1254,27.706 1116.1254,27.706 C1116.1254,27.706 1134.1254,27.706 1134.1254,37.706 L1134.1254,63.706 C1134.1254,73.706 1116.1254,73.706 1116.1254,73.706 C1116.1254,73.706 1098.1254,73.706 1098.1254,63.706 L1098.1254,37.706" fill="#FFFFFF" style="stroke:#000000;stroke-width:1;"/><path d="M1098.1254,37.706 C1098.1254,47.706 1116.1254,47.706 1116.1254,47.706 C1116.1254,47.706 1134.1254,47.706 1134.1254,37.706" fill="none" style="stroke:#000000;stroke-width:1;"/></g><g class="participant participant-tail" data-participant="Prod"><text fill="#000000" font-family="Verdana" font-size="14" lengthAdjust="spacing" textLength="152.0114" x="1037.1197" y="998.0963">PostgreSQL (Produ&#231;&#227;o)</text><path d="M1098.1254,1012.1983 C1098.1254,1002.1983 1116.1254,1002.1983 1116.1254,1002.1983 C1116.1254,1002.1983 1134.1254,1002.1983 1134.1254,1012.1983 L1134.1254,1038.1983 C1134.1254,1048.1983 1116.1254,1048.1983 1116.1254,1048.1983 C1116.1254,1048.1983 1098.1254,1048.1983 1098.1254,1038.1983 L1098.1254,1012.1983" fill="#FFFFFF" style="stroke:#000000;stroke-width:1;"/><path d="M1098.1254,1012.1983 C1098.1254,1022.1983 1116.1254,1022.1983 1116.1254,1022.1983 C1116.1254,1022.1983 1134.1254,1022.1983 1134.1254,1012.1983" fill="none" style="stroke:#000000;stroke-width:1;"/></g><g class="participant participant-head" data-participant="AD"><rect fill="#FFFFFF" height="33.0679" rx="2.5" ry="2.5" style="stroke:#000000;stroke-width:1;" width="125.9716" x="1220.1312" y="58.706"/><text fill="#000000" font-family="Verdana" font-size="14" lengthAdjust="spacing" textLength="111.9716" x="1227.1312" y="80.672">LDAP Server (AD)</text></g><g class="participant participant-tail" data-participant="AD"><rect fill="#FFFFFF" height="33.0679" rx="2.5" ry="2.5" style="stroke:#000000;stroke-width:1;" width="125.9716" x="1220.1312" y="983.1304"/><text fill="#000000" font-family="Verdana" font-size="14" lengthAdjust="spacing" textLength="111.9716" x="1227.1312" y="1005.0963">LDAP Server (AD)</text></g><g><title>Celery Worker</title><rect fill="#FFFFFF" height="653.1203" style="stroke:#000000;stroke-width:1;" width="10" x="699.1428" y="313.01"/></g><rect fill="#FFFFFF" height="3" style="stroke:#FFFFFF;stroke-width:1;" width="1371.1027" x="5" y="124.6269"/><line style="stroke:#000000;stroke-width:0.5;" x1="5" x2="1376.1027" y1="124.6269" y2="124.6269"/><line style="stroke:#000000;stroke-width:0.5;" x1="5" x2="1376.1027" y1="127.6269" y2="127.6269"/><rect fill="#FFFFFF" height="25.706" style="stroke:#000000;stroke-width:1;" width="53.637" x="663.7328" y="112.7739"/><text fill="#000000" font-family="Verdana" font-size="13" font-weight="bold" lengthAdjust="spacing" textLength="36.257" x="669.7328" y="130.6709">In&#237;cio</text><g class="message" data-participant-1="Admin" data-participant-2="View"><polygon fill="#000000" points="294.192,168.186,304.192,172.186,294.192,176.186,298.192,172.186" style="stroke:#000000;stroke-width:1;"/><line style="stroke:#000000;stroke-width:1;" x1="60.3898" x2="300.192" y1="172.186" y2="172.186"/><text fill="#000000" font-family="Verdana" font-size="13" font-weight="bold" lengthAdjust="spacing" textLength="7.436" x="67.3898" y="166.377">1</text><text fill="#000000" font-family="Verdana" font-size="13" lengthAdjust="spacing" textLength="210.3662" x="78.8258" y="166.377">Clica "Executar Pipeline Completo"</text></g><g class="message" data-participant-1="View" data-participant-2="Redis"><polygon fill="#000000" points="562.4842,199.892,572.4842,203.892,562.4842,207.892,566.4842,203.892" style="stroke:#000000;stroke-width:1;"/><line style="stroke:#000000;stroke-width:1;" x1="306.192" x2="568.4842" y1="203.892" y2="203.892"/><text fill="#000000" font-family="Verdana" font-size="13" font-weight="bold" lengthAdjust="spacing" textLength="7.436" x="313.192" y="198.083">2</text><text fill="#000000" font-family="Verdana" font-size="13" lengthAdjust="spacing" textLength="232.8562" x="324.628" y="198.083">enqueue(executar_pipeline_completo)</text></g><g class="message" data-participant-1="View" data-participant-2="Admin"><polygon fill="#000000" points="71.3898,231.598,61.3898,235.598,71.3898,239.598,67.3898,235.598" style="stroke:#000000;stroke-width:1;"/><line style="stroke:#000000;stroke-width:1;stroke-dasharray:2,2;" x1="65.3898" x2="305.192" y1="235.598" y2="235.598"/><text fill="#000000" font-family="Verdana" font-size="13" font-weight="bold" lengthAdjust="spacing" textLength="7.436" x="77.3898" y="229.789">3</text><text fill="#000000" font-family="Verdana" font-size="13" lengthAdjust="spacing" textLength="111.1501" x="88.8258" y="229.789">"Pipeline Iniciado"</text></g><rect fill="#FFFFFF" height="3" style="stroke:#FFFFFF;stroke-width:1;" width="1371.1027" x="5" y="265.451"/><line style="stroke:#000000;stroke-width:0.5;" x1="5" x2="1376.1027" y1="265.451" y2="265.451"/><line style="stroke:#000000;stroke-width:0.5;" x1="5" x2="1376.1027" y1="268.451" y2="268.451"/><rect fill="#FFFFFF" height="25.706" style="stroke:#000000;stroke-width:1;" width="96.1991" x="642.4518" y="253.598"/><text fill="#000000" font-family="Verdana" font-size="13" font-weight="bold" lengthAdjust="spacing" textLength="78.8191" x="648.4518" y="271.495">Background</text><g class="message" data-participant-1="Redis" data-participant-2="Worker"><polygon fill="#000000" points="687.1428,309.01,697.1428,313.01,687.1428,317.01,691.1428,313.01" style="stroke:#000000;stroke-width:1;"/><line style="stroke:#000000;stroke-width:1;" x1="574.4842" x2="693.1428" y1="313.01" y2="313.01"/><text fill="#000000" font-family="Verdana" font-size="13" font-weight="bold" lengthAdjust="spacing" textLength="7.436" x="581.4842" y="307.201">4</text><text fill="#000000" font-family="Verdana" font-size="13" lengthAdjust="spacing" textLength="93.2491" x="592.9202" y="307.201">entregar tarefa</text></g><path d="M630.523,328.01 L787.0501,328.01 L787.0501,337.716 L777.0501,347.716 L630.523,347.716 L630.523,328.01" fill="#FFFFFF" style="stroke:#000000;stroke-width:1;"/><rect fill="none" height="127.8241" style="stroke:#000000;stroke-width:1;" width="735.5797" x="630.523" y="328.01"/><text fill="#000000" font-family="Verdana" font-size="13" font-weight="bold" lengthAdjust="spacing" textLength="111.5271" x="645.523" y="342.907">Etapa 1: Extra&#231;&#227;o</text><g class="message" data-participant-1="Worker" data-participant-2="AD"><polygon fill="#000000" points="1271.1169,367.4221,1281.1169,371.4221,1271.1169,375.4221,1275.1169,371.4221" style="stroke:#000000;stroke-width:1;"/><line style="stroke:#000000;stroke-width:1;" x1="709.1428" x2="1277.1169" y1="371.4221" y2="371.4221"/><text fill="#000000" font-family="Verdana" font-size="13" font-weight="bold" lengthAdjust="spacing" textLength="7.436" x="716.1428" y="365.6131">5</text><text fill="#000000" font-family="Verdana" font-size="13" lengthAdjust="spacing" textLength="96.7071" x="727.5788" y="365.6131">Consulta LDAPS</text></g><g class="message" data-participant-1="AD" data-participant-2="Worker"><polygon fill="#000000" points="720.1428,399.1281,710.1428,403.1281,720.1428,407.1281,716.1428,403.1281" style="stroke:#000000;stroke-width:1;"/><line style="stroke:#000000;stroke-width:1;stroke-dasharray:2,2;" x1="714.1428" x2="1282.1169" y1="403.1281" y2="403.1281"/><text fill="#000000" font-family="Verdana" font-size="13" font-weight="bold" lengthAdjust="spacing" textLength="7.436" x="726.1428" y="397.3191">6</text><text fill="#000000" font-family="Verdana" font-size="13" lengthAdjust="spacing" textLength="119.0411" x="737.5788" y="397.3191">Objetos retornados</text></g><g class="message" data-participant-1="Worker" data-participant-2="Worker"><line style="stroke:#000000;stroke-width:1;" x1="709.1428" x2="751.1428" y1="434.8341" y2="434.8341"/><line style="stroke:#000000;stroke-width:1;" x1="751.1428" x2="751.1428" y1="434.8341" y2="447.8341"/><line style="stroke:#000000;stroke-width:1;" x1="710.1428" x2="751.1428" y1="447.8341" y2="447.8341"/><polygon fill="#000000" points="720.1428,443.8341,710.1428,447.8341,720.1428,451.8341,716.1428,447.8341" style="stroke:#000000;stroke-width:1;"/><text fill="#000000" font-family="Verdana" font-size="13" font-weight="bold" lengthAdjust="spacing" textLength="7.436" x="716.1428" y="429.0251">7</text><text fill="#000000" font-family="Verdana" font-size="13" lengthAdjust="spacing" textLength="191.0091" x="727.5788" y="429.0251">Gera arquivos CSV tempor&#225;rios</text></g><path d="M630.523,469.8341 L843.7561,469.8341 L843.7561,479.5401 L833.7561,489.5401 L630.523,489.5401 L630.523,469.8341" fill="#FFFFFF" style="stroke:#000000;stroke-width:1;"/><rect fill="none" height="109.118" style="stroke:#000000;stroke-width:1;" width="324.0659" x="630.523" y="469.8341"/><text fill="#000000" font-family="Verdana" font-size="13" font-weight="bold" lengthAdjust="spacing" textLength="168.2331" x="645.523" y="484.7311">Etapa 2: Limpeza (Pandas)</text><g class="message" data-participant-1="Worker" data-participant-2="Worker"><line style="stroke:#000000;stroke-width:1;" x1="709.1428" x2="751.1428" y1="513.2461" y2="513.2461"/><line style="stroke:#000000;stroke-width:1;" x1="751.1428" x2="751.1428" y1="513.2461" y2="526.2461"/><line style="stroke:#000000;stroke-width:1;" x1="710.1428" x2="751.1428" y1="526.2461" y2="526.2461"/><polygon fill="#000000" points="720.1428,522.2461,710.1428,526.2461,720.1428,530.2461,716.1428,526.2461" style="stroke:#000000;stroke-width:1;"/><text fill="#000000" font-family="Verdana" font-size="13" font-weight="bold" lengthAdjust="spacing" textLength="7.436" x="716.1428" y="507.4371">8</text><text fill="#000000" font-family="Verdana" font-size="13" lengthAdjust="spacing" textLength="158.4051" x="727.5788" y="507.4371">Remover caracteres nulos</text></g><g class="message" data-participant-1="Worker" data-participant-2="Worker"><line style="stroke:#000000;stroke-width:1;" x1="709.1428" x2="751.1428" y1="557.9521" y2="557.9521"/><line style="stroke:#000000;stroke-width:1;" x1="751.1428" x2="751.1428" y1="557.9521" y2="570.9521"/><line style="stroke:#000000;stroke-width:1;" x1="710.1428" x2="751.1428" y1="570.9521" y2="570.9521"/><polygon fill="#000000" points="720.1428,566.9521,710.1428,570.9521,720.1428,574.9521,716.1428,570.9521" style="stroke:#000000;stroke-width:1;"/><text fill="#000000" font-family="Verdana" font-size="13" font-weight="bold" lengthAdjust="spacing" textLength="7.436" x="716.1428" y="552.1431">9</text><text fill="#000000" font-family="Verdana" font-size="13" lengthAdjust="spacing" textLength="205.0101" x="727.5788" y="552.1431">Normalizar espa&#231;os e acentua&#231;&#227;o</text></g><path d="M630.523,592.9521 L821.3961,592.9521 L821.3961,602.6582 L811.3961,612.6582 L630.523,612.6582 L630.523,592.9521" fill="#FFFFFF" style="stroke:#000000;stroke-width:1;"/><rect fill="none" height="89.118" style="stroke:#000000;stroke-width:1;" width="545.8311" x="630.523" y="592.9521"/><text fill="#000000" font-family="Verdana" font-size="13" font-weight="bold" lengthAdjust="spacing" textLength="145.8731" x="645.523" y="607.8492">Etapa 3: Carga Staging</text><g class="message" data-participant-1="Worker" data-participant-2="Staging"><polygon fill="#000000" points="942.589,632.3642,952.589,636.3642,942.589,640.3642,946.589,636.3642" style="stroke:#000000;stroke-width:1;"/><line style="stroke:#000000;stroke-width:1;" x1="709.1428" x2="948.589" y1="636.3642" y2="636.3642"/><text fill="#000000" font-family="Verdana" font-size="13" font-weight="bold" lengthAdjust="spacing" textLength="14.872" x="716.1428" y="630.5552">10</text><text fill="#000000" font-family="Verdana" font-size="13" lengthAdjust="spacing" textLength="65.6761" x="735.0148" y="630.5552">TRUNCATE</text></g><g class="message" data-participant-1="Worker" data-participant-2="Staging"><polygon fill="#000000" points="942.589,667.0702,952.589,671.0702,942.589,675.0702,946.589,671.0702" style="stroke:#000000;stroke-width:1;"/><line style="stroke:#000000;stroke-width:1;" x1="709.1428" x2="948.589" y1="671.0702" y2="671.0702"/><text fill="#000000" font-family="Verdana" font-size="13" font-weight="bold" lengthAdjust="spacing" textLength="14.872" x="716.1428" y="665.2612">11</text><text fill="#000000" font-family="Verdana" font-size="13" lengthAdjust="spacing" textLength="117.1301" x="735.0148" y="665.2612">COPY BULK INSERT</text></g><path d="M959,649.3642 L959,676.3642 L1160,676.3642 L1160,659.3642 L1150,649.3642 L959,649.3642" fill="#FFFFFF" style="stroke:#000000;stroke-width:1;"/><path d="M1150,649.3642 L1150,659.3642 L1160,659.3642 L1150,649.3642" fill="#FFFFFF" style="stroke:#000000;stroke-width:1;"/><text fill="#000000" font-family="Verdana" font-size="13" lengthAdjust="spacing" textLength="180.7652" x="965" y="668.2612">Dados armazenados em TEXT</text><path d="M620.523,696.0702 L883.5852,696.0702 L883.5852,705.7762 L873.5852,715.7762 L620.523,715.7762 L620.523,696.0702" fill="#FFFFFF" style="stroke:#000000;stroke-width:1;"/><rect fill="none" height="239.3541" style="stroke:#000000;stroke-width:1;" width="657.1125" x="620.523" y="696.0702"/><text fill="#000000" font-family="Verdana" font-size="13" font-weight="bold" lengthAdjust="spacing" textLength="218.0622" x="635.523" y="710.9672">Etapa 4: Transforma&#231;&#227;o Produ&#231;&#227;o</text><g class="message" data-participant-1="Worker" data-participant-2="Prod"><polygon fill="#000000" points="1104.1254,735.4822,1114.1254,739.4822,1104.1254,743.4822,1108.1254,739.4822" style="stroke:#000000;stroke-width:1;"/><line style="stroke:#000000;stroke-width:1;" x1="709.1428" x2="1110.1254" y1="739.4822" y2="739.4822"/><text fill="#000000" font-family="Verdana" font-size="13" font-weight="bold" lengthAdjust="spacing" textLength="14.872" x="716.1428" y="733.6732">12</text><text fill="#000000" font-family="Verdana" font-size="13" lengthAdjust="spacing" textLength="65.6761" x="735.0148" y="733.6732">TRUNCATE</text></g><g class="message" data-participant-1="Worker" data-participant-2="Prod"><polygon fill="#000000" points="1104.1254,796.7473,1114.1254,800.7473,1104.1254,804.7473,1108.1254,800.7473" style="stroke:#000000;stroke-width:1;"/><line style="stroke:#000000;stroke-width:1;" x1="709.1428" x2="1110.1254" y1="800.7473" y2="800.7473"/><text fill="#000000" font-family="Verdana" font-size="13" font-weight="bold" lengthAdjust="spacing" textLength="14.872" x="716.1428" y="794.9383">13</text><text fill="#000000" font-family="Verdana" font-size="13" lengthAdjust="spacing" textLength="180.3232" x="735.0148" y="794.9383">INSERT SELECT FROM staging</text></g><path d="M1121,752.4822 L1121,832.4822 L1262,832.4822 L1262,762.4822 L1252,752.4822 L1121,752.4822" fill="#FFFFFF" style="stroke:#000000;stroke-width:1;"/><path d="M1252,752.4822 L1252,762.4822 L1262,762.4822 L1252,752.4822" fill="#FFFFFF" style="stroke:#000000;stroke-width:1;"/><text fill="#000000" font-family="Verdana" font-size="13" lengthAdjust="spacing" textLength="120.5101" x="1127" y="771.3792">Convers&#227;o de tipos:</text><text fill="#000000" font-family="Verdana" font-size="13" lengthAdjust="spacing" textLength="61.7891" x="1127" y="789.0853">&#8226; INTEGER</text><text fill="#000000" font-family="Verdana" font-size="13" lengthAdjust="spacing" textLength="95.9141" x="1127" y="806.7913">&#8226; TIMESTAMPTZ</text><text fill="#000000" font-family="Verdana" font-size="13" lengthAdjust="spacing" textLength="41.171" x="1127" y="824.4973">&#8226; UUID</text><path d="M630.523,845.3063 L692.982,845.3063 L692.982,855.0123 L682.982,865.0123 L630.523,865.0123 L630.523,845.3063" fill="#FFFFFF" style="stroke:#000000;stroke-width:1;"/><rect fill="none" height="83.118" style="stroke:#000000;stroke-width:1;" width="574.6081" x="630.523" y="845.3063"/><text fill="#000000" font-family="Verdana" font-size="13" font-weight="bold" lengthAdjust="spacing" textLength="17.459" x="645.523" y="860.2033">alt</text><text fill="#000000" font-family="Verdana" font-size="11" font-weight="bold" lengthAdjust="spacing" textLength="107.1392" x="707.982" y="859.0652">[Erro de Convers&#227;o]</text><g class="message" data-participant-1="Prod" data-participant-2="Worker"><polygon fill="#000000" points="720.1428,884.7183,710.1428,888.7183,720.1428,892.7183,716.1428,888.7183" style="stroke:#000000;stroke-width:1;"/><line style="stroke:#000000;stroke-width:1;stroke-dasharray:2,2;" x1="714.1428" x2="1115.1254" y1="888.7183" y2="888.7183"/><text fill="#000000" font-family="Verdana" font-size="13" font-weight="bold" lengthAdjust="spacing" textLength="14.872" x="726.1428" y="882.9093">14</text><text fill="#000000" font-family="Verdana" font-size="13" lengthAdjust="spacing" textLength="83.7201" x="745.0148" y="882.9093">SQLException</text></g><g class="message" data-participant-1="Worker" data-participant-2="Prod"><polygon fill="#000000" points="1104.1254,916.4243,1114.1254,920.4243,1104.1254,924.4243,1108.1254,920.4243" style="stroke:#000000;stroke-width:1;"/><line style="stroke:#000000;stroke-width:1;" x1="709.1428" x2="1110.1254" y1="920.4243" y2="920.4243"/><text fill="#000000" font-family="Verdana" font-size="13" font-weight="bold" lengthAdjust="spacing" textLength="14.872" x="716.1428" y="914.6153">15</text><text fill="#000000" font-family="Verdana" font-size="13" lengthAdjust="spacing" textLength="159.8351" x="735.0148" y="914.6153">INSERT INTO etl_error_log</text></g><g class="message" data-participant-1="Worker" data-participant-2="Prod"><polygon fill="#000000" points="1104.1254,962.1304,1114.1254,966.1304,1104.1254,970.1304,1108.1254,966.1304" style="stroke:#000000;stroke-width:1;"/><line style="stroke:#000000;stroke-width:1;" x1="704.1428" x2="1110.1254" y1="966.1304" y2="966.1304"/><text fill="#000000" font-family="Verdana" font-size="13" font-weight="bold" lengthAdjust="spacing" textLength="14.872" x="711.1428" y="960.3214">16</text><text fill="#000000" font-family="Verdana" font-size="13" lengthAdjust="spacing" textLength="302.7573" x="730.0148" y="960.3214">Atualizar ExecucaoPipeline(status="CONCLU&#205;DO")</text></g><!--SRC=[VLJDRjD04BxxAGPpIGyzy7U95AJKSL54seJ4uUzIJUnfMB1tpUowb9vu0Hu2E20XyHHv4vw4sRNRa5R1aIBlxCptVVFjhE-vTrGHr2Kg7M7ZZ6wg5N4KOUuCGpmiAgMLTOo5uHZGGeX4qSfSocvTgXmtFpS_3BoYLGptZyCJWJmribEvgb4xY6U2JsLYj6DJqaj5dmAOVub85o1m7UPOdpEIC3QkOOIXjPlVEcUZqSC_yRy0_x6XXY2UKw4iz8xOV20-2A0XT5T2GYNnPtXbM393OljwYtz6RANXpI-TAq-P7ljVW2lGuGgjiCwCTMkcnOi9z1OErqglM-vkyP_q6PkY2PQr5NwzbR2ZU38Qpc11V44ClU6epH-EecWmWB7U_CwLWS4W2YS2Xq-3cz27n1yAnEabvOr3XfcggHJx8J5LNP8pSHGofQ9rhm-aWvqzwchEwgxcBEzg3heQAMhv-jBMDV1OYsQPa3X8EyBymvfD8ps9kfP2obgt0vbZMeim8Q9pzAEcBj3HzNb4lhY6r66DyA0FwQMCNt0isDhXU24ZtwtHjYaTWdTh4J8aVlWluNJrNZgmmFBFMdJQMq0tcSz8HWxvOwCk93zPl0H7LMruyusLLCanxQfxs8U9gcgwGZbOr0NQWttGSwgCFyWSMHec9WkwAVTBEJLSOQckn2UojVGlWWWm5_UQpeqxSXw97SXht1d3BNON5V1ilZnDXbcwDo6Ppjx0qNBo7CQdYtIUXKHjv91OhT-vFeoyZM9LXLSKB0Mg84jVPtTLFHO-HctFVKVjns9x2Mufy1lxzNMxhIHOf9CqoU1uFZq1-q_3MvbXwHyP4l7UUkg2mAdQsFxDvfyltmKoIv-byvrODZv95zdmP9QztOalb-DH2FXRwycYiCBIGSeS6BPyDvL1-yvOokSWlSofTihecxHzpOh0AP0hpqWe-Amqwsi9hU5tweOo9ktuX0z1ZkRwklR4BDVOGPnCJvF9SlDrD8qFee9ktyE_]--></g></svg>