<svg xmlns="http://www.w3.org/2000/svg" xmlns:xlink="http://www.w3.org/1999/xlink" contentStyleType="text/css" data-diagram-type="ACTIVITY" height="785px" preserveAspectRatio="none" style="width:1296px;height:785px;background:#FFFFFF;" version="1.1" viewBox="0 0 1296 785" width="1296px" zoomAndPan="magnify"><title>Governan&#231;a Ativa &#8212; Monitoramento em Tempo Real</title><defs/><g><g class="title" data-source-line="3"><text fill="#000000" font-family="Verdana" font-size="22" font-weight="bold" lengthAdjust="spacing" textLength="576.6219" x="358.5256" y="38.5181">Governan&#231;a Ativa &#8212; Monitoramento em Tempo Real</text></g><rect fill="#FFFFFF" height="24.5158" style="stroke:#FFFFFF;stroke-width:1;" width="1273.6732" x="10" y="59.7381"/><ellipse cx="97.5925" cy="99.2539" fill="#FFFFFF" rx="10" ry="10" style="stroke:#000000;stroke-width:1;"/><rect fill="#FFFFFF" height="36.3441" rx="12.5" ry="12.5" style="stroke:#000000;stroke-width:1;" width="163.1851" x="16" y="129.2539"/><text fill="#000000" font-family="Verdana" font-size="12" lengthAdjust="spacing" textLength="143.1851" x="26" y="152.082">Altera / Cria objeto no AD</text><line style="stroke:#000000;stroke-width:1;" x1="10" x2="10" y1="59.7381" y2="778.6951"/><rect fill="#FFFFFF" height="36.3441" rx="12.5" ry="12.5" style="stroke:#000000;stroke-width:1;" width="181.4732" x="189.1851" y="185.598"/><text fill="#000000" font-family="Verdana" font-size="12" lengthAdjust="spacing" textLength="161.4732" x="199.1851" y="208.4261">Event Viewer registra evento</text><line style="stroke:#000000;stroke-width:1;" x1="183.1851" x2="183.1851" y1="59.7381" y2="778.6951"/><rect fill="#FFFFFF" height="36.3441" rx="12.5" ry="12.5" style="stroke:#000000;stroke-width:1;" width="115.4607" x="432.2682" y="241.9421"/><text fill="#000000" font-family="Verdana" font-size="12" lengthAdjust="spacing" textLength="95.4607" x="442.2682" y="264.7702">Detecta novo log</text><rect fill="#FFFFFF" height="36.3441" rx="12.5" ry="12.5" style="stroke:#000000;stroke-width:1;" width="98.9366" x="440.5303" y="298.2863"/><text fill="#000000" font-family="Verdana" font-size="12" lengthAdjust="spacing" textLength="78.9366" x="450.5303" y="321.1143">Formata JSON</text><rect fill="#FFFFFF" height="36.3441" rx="12.5" ry="12.5" style="stroke:#000000;stroke-width:1;" width="182.4332" x="398.782" y="354.6304"/><text fill="#000000" font-family="Verdana" font-size="12" lengthAdjust="spacing" textLength="162.4332" x="408.782" y="377.4585">POST /api/auditoria/receber/</text><line style="stroke:#000000;stroke-width:1;" x1="374.6582" x2="374.6582" y1="59.7381" y2="778.6951"/><rect fill="#FFFFFF" height="36.3441" rx="12.5" ry="12.5" style="stroke:#000000;stroke-width:1;" width="215.4934" x="609.3389" y="410.9745"/><text fill="#000000" font-family="Verdana" font-size="12" lengthAdjust="spacing" textLength="195.4934" x="619.3389" y="433.8026">INSERT AuditoriaAD (evento bruto)</text><rect fill="#FFFFFF" height="36.3441" rx="12.5" ry="12.5" style="stroke:#000000;stroke-width:1;" width="166.089" x="634.0411" y="467.3186"/><text fill="#000000" font-family="Verdana" font-size="12" lengthAdjust="spacing" textLength="146.089" x="644.0411" y="490.1467">Dispara post_save / signal</text><line style="stroke:#000000;stroke-width:1;" x1="603.3389" x2="603.3389" y1="59.7381" y2="778.6951"/><rect fill="#FFFFFF" height="36.3441" rx="12.5" ry="12.5" style="stroke:#000000;stroke-width:1;" width="179.7572" x="951.4509" y="523.6627"/><text fill="#000000" font-family="Verdana" font-size="12" lengthAdjust="spacing" textLength="159.7572" x="961.4509" y="546.4908">Valida regras em tempo real</text><polygon fill="#FFFFFF" points="1016.7667,580.0068,1065.8923,580.0068,1077.8923,592.0068,1065.8923,604.0068,1016.7667,604.0068,1004.7667,592.0068,1016.7667,580.0068" style="stroke:#000000;stroke-width:1;"/><text fill="#000000" font-family="Verdana" font-size="11" lengthAdjust="spacing" textLength="49.1257" x="1016.7667" y="596.2748">violation?</text><text fill="#000000" font-family="Verdana" font-size="11" lengthAdjust="spacing" textLength="18.3919" x="986.3748" y="588.7839">sim</text><text fill="#000000" font-family="Verdana" font-size="11" lengthAdjust="spacing" textLength="19.6239" x="1077.8923" y="588.7839">n&#227;o</text><rect fill="#FFFFFF" height="36.3441" rx="12.5" ry="12.5" style="stroke:#000000;stroke-width:1;" width="245.9496" x="836.7223" y="614.0068"/><text fill="#000000" font-family="Verdana" font-size="12" lengthAdjust="spacing" textLength="225.9496" x="846.7223" y="636.8349">INSERT IncidenteQualidade (PENDENTE)</text><rect fill="#FFFFFF" height="36.3441" rx="12.5" ry="12.5" style="stroke:#000000;stroke-width:1;" width="249.7296" x="834.8323" y="670.3509"/><text fill="#000000" font-family="Verdana" font-size="12" lengthAdjust="spacing" textLength="229.7296" x="844.8323" y="693.179">Marcar AuditoriaAD.violou_regras = True</text><rect fill="#FFFFFF" height="36.3441" rx="12.5" ry="12.5" style="stroke:#000000;stroke-width:1;" width="36.8001" x="1104.5619" y="614.0068"/><text fill="#000000" font-family="Verdana" font-size="12" lengthAdjust="spacing" textLength="16.8001" x="1114.5619" y="636.8349">OK</text><polygon fill="#FFFFFF" points="1041.3295,712.6951,1053.3295,724.6951,1041.3295,736.6951,1029.3295,724.6951,1041.3295,712.6951" style="stroke:#000000;stroke-width:1;"/><line style="stroke:#000000;stroke-width:1;" x1="828.8323" x2="828.8323" y1="59.7381" y2="778.6951"/><ellipse cx="1214.3476" cy="767.6951" fill="none" rx="11" ry="11" style="stroke:#000000;stroke-width:1;"/><ellipse cx="1214.3476" cy="767.6951" fill="#FFFFFF" rx="6" ry="6" style="stroke:#000000;stroke-width:1;"/><line style="stroke:#000000;stroke-width:1;" x1="1145.362" x2="1145.362" y1="59.7381" y2="778.6951"/><line style="stroke:#000000;stroke-width:1;" x1="1282.3332" x2="1282.3332" y1="59.7381" y2="778.6951"/><line style="stroke:#000000;stroke-width:1;" x1="97.5925" x2="97.5925" y1="109.2539" y2="129.2539"/><polygon fill="#000000" points="93.5925,119.2539,97.5925,129.2539,101.5925,119.2539,97.5925,123.2539" style="stroke:#000000;stroke-width:1;"/><line style="stroke:#000000;stroke-width:1;" x1="489.9986" x2="489.9986" y1="278.2863" y2="298.2863"/><polygon fill="#000000" points="485.9986,288.2863,489.9986,298.2863,493.9986,288.2863,489.9986,292.2863" style="stroke:#000000;stroke-width:1;"/><line style="stroke:#000000;stroke-width:1;" x1="489.9986" x2="489.9986" y1="334.6304" y2="354.6304"/><polygon fill="#000000" points="485.9986,344.6304,489.9986,354.6304,493.9986,344.6304,489.9986,348.6304" style="stroke:#000000;stroke-width:1;"/><line style="stroke:#000000;stroke-width:1;" x1="717.0856" x2="717.0856" y1="447.3186" y2="467.3186"/><polygon fill="#000000" points="713.0856,457.3186,717.0856,467.3186,721.0856,457.3186,717.0856,461.3186" style="stroke:#000000;stroke-width:1;"/><line style="stroke:#000000;stroke-width:1;" x1="959.6971" x2="959.6971" y1="650.3509" y2="670.3509"/><polygon fill="#000000" points="955.6971,660.3509,959.6971,670.3509,963.6971,660.3509,959.6971,664.3509" style="stroke:#000000;stroke-width:1;"/><line style="stroke:#000000;stroke-width:1;" x1="1004.7667" x2="959.6971" y1="592.0068" y2="592.0068"/><line style="stroke:#000000;stroke-width:1;" x1="959.6971" x2="959.6971" y1="592.0068" y2="614.0068"/><polygon fill="#000000" points="955.6971,604.0068,959.6971,614.0068,963.6971,604.0068,959.6971,608.0068" style="stroke:#000000;stroke-width:1;"/><line style="stroke:#000000;stroke-width:1;" x1="1077.8923" x2="1122.962" y1="592.0068" y2="592.0068"/><line style="stroke:#000000;stroke-width:1;" x1="1122.962" x2="1122.962" y1="592.0068" y2="614.0068"/><polygon fill="#000000" points="1118.962,604.0068,1122.962,614.0068,1126.962,604.0068,1122.962,608.0068" style="stroke:#000000;stroke-width:1;"/><line style="stroke:#000000;stroke-width:1;" x1="959.6971" x2="959.6971" y1="706.6951" y2="724.6951"/><line style="stroke:#000000;stroke-width:1;" x1="959.6971" x2="1029.3295" y1="724.6951" y2="724.6951"/><polygon fill="#000000" points="1019.3295,720.6951,1029.3295,724.6951,1019.3295,728.6951,1023.3295,724.6951" style="stroke:#000000;stroke-width:1;"/><line style="stroke:#000000;stroke-width:1;" x1="1122.962" x2="1122.962" y1="650.3509" y2="724.6951"/><line style="stroke:#000000;stroke-width:1;" x1="1122.962" x2="1053.3295" y1="724.6951" y2="724.6951"/><polygon fill="#000000" points="1063.3295,720.6951,1053.3295,724.6951,1063.3295,728.6951,1059.3295,724.6951" style="stroke:#000000;stroke-width:1;"/><line style="stroke:#000000;stroke-width:1;" x1="1041.3295" x2="1041.3295" y1="560.0068" y2="580.0068"/><polygon fill="#000000" points="1037.3295,570.0068,1041.3295,580.0068,1045.3295,570.0068,1041.3295,574.0068" style="stroke:#000000;stroke-width:1;"/><line style="stroke:#000000;stroke-width:1;" x1="97.5925" x2="97.5925" y1="165.598" y2="170.598"/><line style="stroke:#000000;stroke-width:1;" x1="97.5925" x2="279.9216" y1="170.598" y2="170.598"/><line style="stroke:#000000;stroke-width:1;" x1="279.9216" x2="279.9216" y1="170.598" y2="185.598"/><polygon fill="#000000" points="275.9216,175.598,279.9216,185.598,283.9216,175.598,279.9216,179.598" style="stroke:#000000;stroke-width:1;"/><line style="stroke:#000000;stroke-width:1;" x1="279.9216" x2="279.9216" y1="221.9421" y2="226.9421"/><line style="stroke:#000000;stroke-width:1;" x1="279.9216" x2="489.9986" y1="226.9421" y2="226.9421"/><line style="stroke:#000000;stroke-width:1;" x1="489.9986" x2="489.9986" y1="226.9421" y2="241.9421"/><polygon fill="#000000" points="485.9986,231.9421,489.9986,241.9421,493.9986,231.9421,489.9986,235.9421" style="stroke:#000000;stroke-width:1;"/><line style="stroke:#000000;stroke-width:1;" x1="489.9986" x2="489.9986" y1="390.9745" y2="395.9745"/><line style="stroke:#000000;stroke-width:1;" x1="489.9986" x2="717.0856" y1="395.9745" y2="395.9745"/><line style="stroke:#000000;stroke-width:1;" x1="717.0856" x2="717.0856" y1="395.9745" y2="410.9745"/><polygon fill="#000000" points="713.0856,400.9745,717.0856,410.9745,721.0856,400.9745,717.0856,404.9745" style="stroke:#000000;stroke-width:1;"/><line style="stroke:#000000;stroke-width:1;" x1="717.0856" x2="717.0856" y1="503.6627" y2="508.6627"/><line style="stroke:#000000;stroke-width:1;" x1="717.0856" x2="1041.3295" y1="508.6627" y2="508.6627"/><line style="stroke:#000000;stroke-width:1;" x1="1041.3295" x2="1041.3295" y1="508.6627" y2="523.6627"/><polygon fill="#000000" points="1037.3295,513.6627,1041.3295,523.6627,1045.3295,513.6627,1041.3295,517.6627" style="stroke:#000000;stroke-width:1;"/><line style="stroke:#000000;stroke-width:1;" x1="1041.3295" x2="1041.3295" y1="736.6951" y2="741.6951"/><line style="stroke:#000000;stroke-width:1;" x1="1041.3295" x2="1214.3476" y1="741.6951" y2="741.6951"/><line style="stroke:#000000;stroke-width:1;" x1="1214.3476" x2="1214.3476" y1="741.6951" y2="756.6951"/><polygon fill="#000000" points="1210.3476,746.6951,1214.3476,756.6951,1218.3476,746.6951,1214.3476,750.6951" style="stroke:#000000;stroke-width:1;"/><text fill="#000000" font-family="Verdana" font-size="18" lengthAdjust="spacing" textLength="93.4194" x="49.8828" y="78.9799">T&#233;cnico AD</text><text fill="#000000" font-family="Verdana" font-size="18" lengthAdjust="spacing" textLength="133.2712" x="212.2861" y="78.9799">Active Directory</text><text fill="#000000" font-family="Verdana" font-size="18" lengthAdjust="spacing" textLength="218.6806" x="379.6582" y="78.9799">Agente Windows (Servi&#231;o)</text><text fill="#000000" font-family="Verdana" font-size="18" lengthAdjust="spacing" textLength="94.1394" x="669.0159" y="78.9799">API Django</text><text fill="#000000" font-family="Verdana" font-size="18" lengthAdjust="spacing" textLength="131.6332" x="921.2805" y="78.9799">Motor de Sinais</text><text fill="#000000" font-family="Verdana" font-size="18" lengthAdjust="spacing" textLength="126.9712" x="1150.362" y="78.9799">Painel / Gest&#227;o</text><!--SRC=[JP9DRjH048NtFaMnyop0-q60BEn40veVOYiiengxubHeTrdTRKUHik0Gt815n3dc9Za9rHw6oShgwdhVgrVkD-6EUeB18Dl4_s0xeCCU35iAZmE1k70dIU1W22vb8cVH7fuHyi0JmilFNx0Moq5KH3O8K0yrzOF05Q59agVwyAUnt0ZanLC2u0EweDzbRW8vX0m-EqQG_JsfsCQszthzzgDAyqOz20fsrAZ1OzGloqbju9hfWHmuwjW7nL2iobdPwP7WEzjM7Zoa5Rc93y-oc1451GMYkaq2HheeMrw8wr6BNwhjPYxijbKD6GwSuTZ6W8oP3a9xSjdPQBU2uXvj9pDvjQdAgnhoao0l83sE1dit1bdCv89zN38CuiEDHusOWUVEeldFNOlgeIMes2Bx6NwDXbkCcHtwkESmxzdHKSUta4ui1WEB_RG0_QyMKi_zGY_XFDpADjp6zNmRPw2QfBjoKvIRkfpdYxrhT0swrq7UHRQCD__iFq3jHehjPBmIxE6td8osN-UwRVdsb6UdhukCvhma7xJr-1Ha-0i0]--></g></svg>