<svg xmlns="http://www.w3.org/2000/svg" xmlns:xlink="http://www.w3.org/1999/xlink" contentStyleType="text/css" data-diagram-type="ACTIVITY" height="717px" preserveAspectRatio="none" style="width:1239px;height:717px;background:#FFFFFF;" version="1.1" viewBox="0 0 1239 717" width="1239px" zoomAndPan="magnify"><title>Motor de Auditoria (DQI) &#8212; Swimlanes</title><defs/><g><g class="title" data-source-line="3"><text fill="#000000" font-family="Verdana" font-size="22" font-weight="bold" lengthAdjust="spacing" textLength="423.3914" x="406.546" y="38.5181">Motor de Auditoria (DQI) &#8212; Swimlanes</text></g><rect fill="#FFFFFF" height="24.5158" style="stroke:#FFFFFF;stroke-width:1;" width="1216.4834" x="10" y="59.7381"/><ellipse cx="136.6288" cy="99.2539" fill="#FFFFFF" rx="10" ry="10" style="stroke:#000000;stroke-width:1;"/><rect fill="#FFFFFF" height="36.3441" rx="12.5" ry="12.5" style="stroke:#000000;stroke-width:1;" width="241.2576" x="16" y="129.2539"/><text fill="#000000" font-family="Verdana" font-size="12" lengthAdjust="spacing" textLength="221.2576" x="26" y="152.082">Solicita "Executar Auditoria (Produ&#231;&#227;o)"</text><line style="stroke:#000000;stroke-width:1;" x1="10" x2="10" y1="59.7381" y2="710.9525"/><rect fill="#FFFFFF" height="36.3441" rx="12.5" ry="12.5" style="stroke:#000000;stroke-width:1;" width="256.2697" x="267.2576" y="185.598"/><text fill="#000000" font-family="Verdana" font-size="12" lengthAdjust="spacing" textLength="236.2697" x="277.2576" y="208.4261">Enfileira tarefa executar_regras_producao</text><line style="stroke:#000000;stroke-width:1;" x1="261.2576" x2="261.2576" y1="59.7381" y2="710.9525"/><rect fill="#FFFFFF" height="36.3441" rx="12.5" ry="12.5" style="stroke:#000000;stroke-width:1;" width="110.5406" x="537.4495" y="241.9421"/><text fill="#000000" font-family="Verdana" font-size="12" lengthAdjust="spacing" textLength="90.5406" x="547.4495" y="264.7702">Fila de auditoria</text><line style="stroke:#000000;stroke-width:1;" x1="527.5272" x2="527.5272" y1="59.7381" y2="710.9525"/><rect fill="#FFFFFF" height="36.3441" rx="12.5" ry="12.5" style="stroke:#000000;stroke-width:1;" width="172.2091" x="741.335" y="298.2863"/><text fill="#000000" font-family="Verdana" font-size="12" lengthAdjust="spacing" textLength="152.2091" x="751.335" y="321.1143">Carrega lista de regras (28)</text><rect fill="#FFFFFF" height="36.3441" rx="12.5" ry="12.5" style="stroke:#000000;stroke-width:1;" width="331.0541" x="661.9125" y="398.6304"/><text fill="#000000" font-family="Verdana" font-size="12" lengthAdjust="spacing" textLength="311.0541" x="671.9125" y="421.4585">Executa SELECT COUNT(*) e SELECT WHERE &lt;condi&#231;&#227;o&gt;</text><rect fill="#FFFFFF" height="36.3441" rx="12.5" ry="12.5" style="stroke:#000000;stroke-width:1;" width="155.985" x="749.4471" y="454.9745"/><text fill="#000000" font-family="Verdana" font-size="12" lengthAdjust="spacing" textLength="135.985" x="759.4471" y="477.8026">Calcula % conformidade</text><rect fill="#FFFFFF" height="36.3441" rx="12.5" ry="12.5" style="stroke:#000000;stroke-width:1;" width="212.6134" x="721.1329" y="511.3186"/><text fill="#000000" font-family="Verdana" font-size="12" lengthAdjust="spacing" textLength="192.6134" x="731.1329" y="534.1467">INSERT RelatorioAnaliseRelacional</text><polygon fill="#FFFFFF" points="827.4395,354.6304,839.4395,366.6304,827.4395,378.6304,815.4395,366.6304,827.4395,354.6304" style="stroke:#000000;stroke-width:1;"/><polygon fill="#FFFFFF" points="764.0965,567.6627,890.7826,567.6627,902.7826,590.1355,890.7826,612.6084,764.0965,612.6084,752.0965,590.1355,764.0965,567.6627" style="stroke:#000000;stroke-width:1;"/><text fill="#000000" font-family="Verdana" font-size="11" lengthAdjust="spacing" textLength="114.0802" x="764.0965" y="579.4216">Restam regras?) is yes</text><text fill="#000000" font-family="Verdana" font-size="11" lengthAdjust="spacing" textLength="2.86" x="764.0965" y="594.4035">&#160;</text><text fill="#000000" font-family="Verdana" font-size="11" lengthAdjust="spacing" textLength="126.6861" x="764.0965" y="609.3854">:Calcula DQI (ponderado</text><rect fill="#FFFFFF" height="36.3441" rx="12.5" ry="12.5" style="stroke:#000000;stroke-width:1;" width="136.8688" x="759.0051" y="632.6084"/><text fill="#000000" font-family="Verdana" font-size="12" lengthAdjust="spacing" textLength="116.8688" x="769.0051" y="655.4365">INSERT RelatorioDQI</text><line style="stroke:#000000;stroke-width:1;" x1="655.9125" x2="655.9125" y1="59.7381" y2="710.9525"/><ellipse cx="1125.055" cy="699.9525" fill="none" rx="11" ry="11" style="stroke:#000000;stroke-width:1;"/><ellipse cx="1125.055" cy="699.9525" fill="#FFFFFF" rx="6" ry="6" style="stroke:#000000;stroke-width:1;"/><line style="stroke:#000000;stroke-width:1;" x1="1023.9666" x2="1023.9666" y1="59.7381" y2="710.9525"/><line style="stroke:#000000;stroke-width:1;" x1="1225.1434" x2="1225.1434" y1="59.7381" y2="710.9525"/><line style="stroke:#000000;stroke-width:1;" x1="136.6288" x2="136.6288" y1="109.2539" y2="129.2539"/><polygon fill="#000000" points="132.6288,119.2539,136.6288,129.2539,140.6288,119.2539,136.6288,123.2539" style="stroke:#000000;stroke-width:1;"/><line style="stroke:#000000;stroke-width:1;" x1="827.4395" x2="827.4395" y1="434.9745" y2="454.9745"/><polygon fill="#000000" points="823.4395,444.9745,827.4395,454.9745,831.4395,444.9745,827.4395,448.9745" style="stroke:#000000;stroke-width:1;"/><line style="stroke:#000000;stroke-width:1;" x1="827.4395" x2="827.4395" y1="491.3186" y2="511.3186"/><polygon fill="#000000" points="823.4395,501.3186,827.4395,511.3186,831.4395,501.3186,827.4395,505.3186" style="stroke:#000000;stroke-width:1;"/><line style="stroke:#000000;stroke-width:1;" x1="827.4395" x2="827.4395" y1="378.6304" y2="398.6304"/><polygon fill="#000000" points="823.4395,388.6304,827.4395,398.6304,831.4395,388.6304,827.4395,392.6304" style="stroke:#000000;stroke-width:1;"/><line style="stroke:#000000;stroke-width:1;" x1="902.7826" x2="1004.9666" y1="590.1355" y2="590.1355"/><polygon fill="#000000" points="1000.9666,488.383,1004.9666,478.383,1008.9666,488.383,1004.9666,484.383" style="stroke:#000000;stroke-width:1;"/><line style="stroke:#000000;stroke-width:1;" x1="1004.9666" x2="1004.9666" y1="366.6304" y2="590.1355"/><line style="stroke:#000000;stroke-width:1;" x1="1004.9666" x2="839.4395" y1="366.6304" y2="366.6304"/><polygon fill="#000000" points="849.4395,362.6304,839.4395,366.6304,849.4395,370.6304,845.4395,366.6304" style="stroke:#000000;stroke-width:1;"/><line style="stroke:#000000;stroke-width:1;" x1="827.4395" x2="827.4395" y1="547.6627" y2="567.6627"/><polygon fill="#000000" points="823.4395,557.6627,827.4395,567.6627,831.4395,557.6627,827.4395,561.6627" style="stroke:#000000;stroke-width:1;"/><line style="stroke:#000000;stroke-width:1;" x1="827.4395" x2="827.4395" y1="334.6304" y2="354.6304"/><polygon fill="#000000" points="823.4395,344.6304,827.4395,354.6304,831.4395,344.6304,827.4395,348.6304" style="stroke:#000000;stroke-width:1;"/><line style="stroke:#000000;stroke-width:1;" x1="827.4395" x2="827.4395" y1="612.6084" y2="632.6084"/><polygon fill="#000000" points="823.4395,622.6084,827.4395,632.6084,831.4395,622.6084,827.4395,626.6084" style="stroke:#000000;stroke-width:1;"/><line style="stroke:#000000;stroke-width:1;" x1="136.6288" x2="136.6288" y1="165.598" y2="170.598"/><line style="stroke:#000000;stroke-width:1;" x1="136.6288" x2="395.3924" y1="170.598" y2="170.598"/><line style="stroke:#000000;stroke-width:1;" x1="395.3924" x2="395.3924" y1="170.598" y2="185.598"/><polygon fill="#000000" points="391.3924,175.598,395.3924,185.598,399.3924,175.598,395.3924,179.598" style="stroke:#000000;stroke-width:1;"/><line style="stroke:#000000;stroke-width:1;" x1="395.3924" x2="395.3924" y1="221.9421" y2="226.9421"/><line style="stroke:#000000;stroke-width:1;" x1="395.3924" x2="592.7199" y1="226.9421" y2="226.9421"/><line style="stroke:#000000;stroke-width:1;" x1="592.7199" x2="592.7199" y1="226.9421" y2="241.9421"/><polygon fill="#000000" points="588.7199,231.9421,592.7199,241.9421,596.7199,231.9421,592.7199,235.9421" style="stroke:#000000;stroke-width:1;"/><line style="stroke:#000000;stroke-width:1;" x1="592.7199" x2="592.7199" y1="278.2863" y2="283.2863"/><line style="stroke:#000000;stroke-width:1;" x1="592.7199" x2="827.4395" y1="283.2863" y2="283.2863"/><line style="stroke:#000000;stroke-width:1;" x1="827.4395" x2="827.4395" y1="283.2863" y2="298.2863"/><polygon fill="#000000" points="823.4395,288.2863,827.4395,298.2863,831.4395,288.2863,827.4395,292.2863" style="stroke:#000000;stroke-width:1;"/><line style="stroke:#000000;stroke-width:1;" x1="827.4395" x2="827.4395" y1="668.9525" y2="673.9525"/><line style="stroke:#000000;stroke-width:1;" x1="827.4395" x2="1125.055" y1="673.9525" y2="673.9525"/><line style="stroke:#000000;stroke-width:1;" x1="1125.055" x2="1125.055" y1="673.9525" y2="688.9525"/><polygon fill="#000000" points="1121.055,678.9525,1125.055,688.9525,1129.055,678.9525,1125.055,682.9525" style="stroke:#000000;stroke-width:1;"/><text fill="#000000" font-family="Verdana" font-size="18" lengthAdjust="spacing" textLength="63.1616" x="104.048" y="78.9799">Auditor</text><text fill="#000000" font-family="Verdana" font-size="18" lengthAdjust="spacing" textLength="114.9833" x="336.9008" y="78.9799">Web / Django</text><text fill="#000000" font-family="Verdana" font-size="18" lengthAdjust="spacing" textLength="118.3853" x="532.5272" y="78.9799">Broker (Redis)</text><text fill="#000000" font-family="Verdana" font-size="18" lengthAdjust="spacing" textLength="136.4392" x="771.72" y="78.9799">Worker / Engine</text><text fill="#000000" font-family="Verdana" font-size="18" lengthAdjust="spacing" textLength="191.1768" x="1028.9666" y="78.9799">Persist&#234;ncia (Postgres)</text><!--SRC=[PL7DQXj13BxFKwY1m6ulWPo2NHeIUqC2-QljucDGTcLRyUneqOn90pxq8Ve6FHJw6dwJF4arxYOKUXkDzEdxqOUqefQWyyZ1nJM73XLRy1melNG4ecabBd7o13UIHA4XEDiqR4z6ACPVhafu_Vu3fi_SUWmKdTls_QsB2JMvmLGyrvmG3gflL6_iyzyLzohDPlThzrFAWw6Xv_G8Hp1-mh2KhHjKOS6UM14CHmi4wdSyA2qLuqENyJLAnfwhh4cXc533iJJq1NlCal6DRyyWcgUEe0fBCsfZ8rJRXkRR9EVvlxkXE3uf3Q7K4IO7CEWDmBIwhaOp6DrzlPqL7qkWjv_vPJMfu5CjeU6zgS_3Z1kXhpScvH2iin1jkS66zgshssarcS64F6Q5SXRGP52kQnOhXZq_FAyiYMpEHBQznDCIEC9BplsTn8u2HMSAIB4HC_0VXqta8Ev9epdU_Gxr_X8Iqr8f1nUJTEuF]--></g></svg>