<svg xmlns="http://www.w3.org/2000/svg" xmlns:xlink="http://www.w3.org/1999/xlink" contentStyleType="text/css" data-diagram-type="DESCRIPTION" height="834px" preserveAspectRatio="none" style="width:2828px;height:834px;background:#FFFFFF;" version="1.1" viewBox="0 0 2828 834" width="2828px" zoomAndPan="magnify"><title>Arquitetura Interna &#8212; M&#243;dulos de C&#243;digo e Servi&#231;os</title><defs/><g><g class="title" data-source-line="3"><text fill="#000000" font-family="Verdana" font-size="22" font-weight="bold" lengthAdjust="spacing" textLength="575.3679" x="1121.8161" y="38.5181">Arquitetura Interna &#8212; M&#243;dulos de C&#243;digo e Servi&#231;os</text></g><!--cluster Camada Web (Django)--><g class="cluster" data-entity="Camada Web .Django." data-source-line="8" data-uid="ent0002" id="cluster_Camada Web .Django."><path d="M13.5,62.5661 L168.6534,62.5661 A3.75,3.75 0 0 1 171.1534,65.0661 L178.1534,87.634 L819.5,87.634 A2.5,2.5 0 0 1 822,90.134 L822,443.0661 A2.5,2.5 0 0 1 819.5,445.5661 L13.5,445.5661 A2.5,2.5 0 0 1 11,443.0661 L11,65.0661 A2.5,2.5 0 0 1 13.5,62.5661" fill="#FFFFFF" style="stroke:#000000;stroke-width:1;"/><line style="stroke:#000000;stroke-width:1;" x1="11" x2="178.1534" y1="87.634" y2="87.634"/><text fill="#000000" font-family="Verdana" font-size="14" font-weight="bold" lengthAdjust="spacing" textLength="154.1534" x="15" y="79.532">Camada Web (Django)</text></g><!--cluster Pain?is / UI--><g class="cluster" data-entity="Pain.is . UI" data-source-line="13" data-uid="ent0005" id="cluster_Pain.is . UI"><path d="M37.5,318.5661 L117.8097,318.5661 A3.75,3.75 0 0 1 120.3097,321.0661 L127.3097,343.634 L795.5,343.634 A2.5,2.5 0 0 1 798,346.134 L798,419.0661 A2.5,2.5 0 0 1 795.5,421.5661 L37.5,421.5661 A2.5,2.5 0 0 1 35,419.0661 L35,321.0661 A2.5,2.5 0 0 1 37.5,318.5661" fill="#FFFFFF" style="stroke:#000000;stroke-width:1;"/><line style="stroke:#000000;stroke-width:1;" x1="35" x2="127.3097" y1="343.634" y2="343.634"/><text fill="#000000" font-family="Verdana" font-size="14" font-weight="bold" lengthAdjust="spacing" textLength="79.3097" x="39" y="335.532">Pain&#233;is / UI</text></g><!--cluster Servi?os Internos (Domain Services)--><g class="cluster" data-entity="Servi.os Internos .Domain Services." data-source-line="31" data-uid="ent0015" id="cluster_Servi.os Internos .Domain Services."><path d="M405.5,469.5661 L656.1891,469.5661 A3.75,3.75 0 0 1 658.6891,472.0661 L665.6891,494.634 L1306.5,494.634 A2.5,2.5 0 0 1 1309,497.134 L1309,589.0661 A2.5,2.5 0 0 1 1306.5,591.5661 L405.5,591.5661 A2.5,2.5 0 0 1 403,589.0661 L403,472.0661 A2.5,2.5 0 0 1 405.5,469.5661" fill="#FFFFFF" style="stroke:#000000;stroke-width:1;"/><line style="stroke:#000000;stroke-width:1;" x1="403" x2="665.6891" y1="494.634" y2="494.634"/><text fill="#000000" font-family="Verdana" font-size="14" font-weight="bold" lengthAdjust="spacing" textLength="249.6891" x="407" y="486.532">Servi&#231;os Internos (Domain Services)</text></g><!--cluster Tarefas Ass?ncronas (Celery Tasks)--><g class="cluster" data-entity="Tarefas Ass.ncronas .Celery Tasks." data-source-line="43" data-uid="ent0021" id="cluster_Tarefas Ass.ncronas .Celery Tasks."><path d="M848.5,318.5661 L1089.0251,318.5661 A3.75,3.75 0 0 1 1091.5251,321.0661 L1098.5251,343.634 L1504.5,343.634 A2.5,2.5 0 0 1 1507,346.134 L1507,419.0661 A2.5,2.5 0 0 1 1504.5,421.5661 L848.5,421.5661 A2.5,2.5 0 0 1 846,419.0661 L846,321.0661 A2.5,2.5 0 0 1 848.5,318.5661" fill="#FFFFFF" style="stroke:#000000;stroke-width:1;"/><line style="stroke:#000000;stroke-width:1;" x1="846" x2="1098.5251" y1="343.634" y2="343.634"/><text fill="#000000" font-family="Verdana" font-size="14" font-weight="bold" lengthAdjust="spacing" textLength="239.5251" x="850" y="335.532">Tarefas Ass&#237;ncronas (Celery Tasks)</text></g><!--cluster Models (ORM)--><g class="cluster" data-entity="Models .ORM." data-source-line="72" data-uid="ent0039" id="cluster_Models .ORM."><path d="M27.5,615.5661 L125.4496,615.5661 A3.75,3.75 0 0 1 127.9496,618.0661 L134.9496,640.634 L2818.5,640.634 A2.5,2.5 0 0 1 2821,643.134 L2821,825.0661 A2.5,2.5 0 0 1 2818.5,827.5661 L27.5,827.5661 A2.5,2.5 0 0 1 25,825.0661 L25,618.0661 A2.5,2.5 0 0 1 27.5,615.5661" fill="#FFFFFF" style="stroke:#000000;stroke-width:1;"/><line style="stroke:#000000;stroke-width:1;" x1="25" x2="134.9496" y1="640.634" y2="640.634"/><text fill="#000000" font-family="Verdana" font-size="14" font-weight="bold" lengthAdjust="spacing" textLength="96.9496" x="29" y="632.532">Models (ORM)</text></g><!--entity MVT--><g class="entity" data-entity="MVT" data-source-line="10" data-uid="ent0003" id="entity_MVT"><rect fill="#FFFFFF" height="68.1358" rx="2.5" ry="2.5" style="stroke:#000000;stroke-width:1;" width="110.1397" x="696" y="228.5661"/><rect fill="#FFFFFF" height="10" style="stroke:#000000;stroke-width:1;" width="15" x="786.1397" y="233.5661"/><rect fill="#FFFFFF" height="2" style="stroke:#000000;stroke-width:1;" width="4" x="784.1397" y="235.5661"/><rect fill="#FFFFFF" height="2" style="stroke:#000000;stroke-width:1;" width="4" x="784.1397" y="239.5661"/><text fill="#000000" font-family="Verdana" font-size="14" lengthAdjust="spacing" textLength="70.1397" x="711" y="263.532">Views MVT</text><text fill="#000000" font-family="Verdana" font-size="14" lengthAdjust="spacing" textLength="46.5918" x="711" y="282.5999">(HTML)</text></g><!--entity API--><g class="entity" data-entity="API" data-source-line="11" data-uid="ent0004" id="entity_API"><rect fill="#FFFFFF" height="68.1358" rx="2.5" ry="2.5" style="stroke:#000000;stroke-width:1;" width="97.7638" x="708" y="100.5661"/><rect fill="#FFFFFF" height="10" style="stroke:#000000;stroke-width:1;" width="15" x="785.7638" y="105.5661"/><rect fill="#FFFFFF" height="2" style="stroke:#000000;stroke-width:1;" width="4" x="783.7638" y="107.5661"/><rect fill="#FFFFFF" height="2" style="stroke:#000000;stroke-width:1;" width="4" x="783.7638" y="111.5661"/><text fill="#000000" font-family="Verdana" font-size="14" lengthAdjust="spacing" textLength="57.7638" x="723" y="135.532">API REST</text><text fill="#000000" font-family="Verdana" font-size="14" lengthAdjust="spacing" textLength="34.5939" x="723" y="154.5999">(DRF)</text></g><!--entity UI_ETL--><g class="entity" data-entity="UI_ETL" data-source-line="14" data-uid="ent0006" id="entity_UI_ETL"><rect fill="#FFFFFF" height="49.0679" rx="2.5" ry="2.5" style="stroke:#000000;stroke-width:1;" width="106.6397" x="675.5" y="356.5661"/><rect fill="#FFFFFF" height="10" style="stroke:#000000;stroke-width:1;" width="15" x="762.1397" y="361.5661"/><rect fill="#FFFFFF" height="2" style="stroke:#000000;stroke-width:1;" width="4" x="760.1397" y="363.5661"/><rect fill="#FFFFFF" height="2" style="stroke:#000000;stroke-width:1;" width="4" x="760.1397" y="367.5661"/><text fill="#000000" font-family="Verdana" font-size="14" lengthAdjust="spacing" textLength="66.6397" x="690.5" y="391.532">Painel ETL</text></g><!--entity UI_DAMA--><g class="entity" data-entity="UI_DAMA" data-source-line="15" data-uid="ent0007" id="entity_UI_DAMA"><rect fill="#FFFFFF" height="49.0679" rx="2.5" ry="2.5" style="stroke:#000000;stroke-width:1;" width="204.2194" x="436" y="356.5661"/><rect fill="#FFFFFF" height="10" style="stroke:#000000;stroke-width:1;" width="15" x="620.2194" y="361.5661"/><rect fill="#FFFFFF" height="2" style="stroke:#000000;stroke-width:1;" width="4" x="618.2194" y="363.5661"/><rect fill="#FFFFFF" height="2" style="stroke:#000000;stroke-width:1;" width="4" x="618.2194" y="367.5661"/><text fill="#000000" font-family="Verdana" font-size="14" lengthAdjust="spacing" textLength="164.2194" x="451" y="391.532">Painel Qualidade (DAMA)</text></g><!--entity UI_REL--><g class="entity" data-entity="UI_REL" data-source-line="16" data-uid="ent0008" id="entity_UI_REL"><rect fill="#FFFFFF" height="49.0679" rx="2.5" ry="2.5" style="stroke:#000000;stroke-width:1;" width="150.7256" x="249.5" y="356.5661"/><rect fill="#FFFFFF" height="10" style="stroke:#000000;stroke-width:1;" width="15" x="380.2256" y="361.5661"/><rect fill="#FFFFFF" height="2" style="stroke:#000000;stroke-width:1;" width="4" x="378.2256" y="363.5661"/><rect fill="#FFFFFF" height="2" style="stroke:#000000;stroke-width:1;" width="4" x="378.2256" y="367.5661"/><text fill="#000000" font-family="Verdana" font-size="14" lengthAdjust="spacing" textLength="110.7256" x="264.5" y="391.532">Painel Relacional</text></g><!--entity UI_GOV--><g class="entity" data-entity="UI_GOV" data-source-line="17" data-uid="ent0009" id="entity_UI_GOV"><rect fill="#FFFFFF" height="49.0679" rx="2.5" ry="2.5" style="stroke:#000000;stroke-width:1;" width="162.9195" x="51.5" y="356.5661"/><rect fill="#FFFFFF" height="10" style="stroke:#000000;stroke-width:1;" width="15" x="194.4195" y="361.5661"/><rect fill="#FFFFFF" height="2" style="stroke:#000000;stroke-width:1;" width="4" x="192.4195" y="363.5661"/><rect fill="#FFFFFF" height="2" style="stroke:#000000;stroke-width:1;" width="4" x="192.4195" y="367.5661"/><text fill="#000000" font-family="Verdana" font-size="14" lengthAdjust="spacing" textLength="122.9195" x="66.5" y="391.532">Painel Governan&#231;a</text></g><!--entity Pipeline--><g class="entity" data-entity="Pipeline" data-source-line="33" data-uid="ent0016" id="entity_Pipeline"><rect fill="#FFFFFF" height="68.1358" rx="2.5" ry="2.5" style="stroke:#000000;stroke-width:1;" width="139.0636" x="783.5" y="507.5661"/><rect fill="#FFFFFF" height="10" style="stroke:#000000;stroke-width:1;" width="15" x="902.5636" y="512.5661"/><rect fill="#FFFFFF" height="2" style="stroke:#000000;stroke-width:1;" width="4" x="900.5636" y="514.5661"/><rect fill="#FFFFFF" height="2" style="stroke:#000000;stroke-width:1;" width="4" x="900.5636" y="518.5661"/><text fill="#000000" font-family="Verdana" font-size="14" lengthAdjust="spacing" textLength="99.0636" x="798.5" y="542.532">PipelineService</text><text fill="#000000" font-family="Verdana" font-size="14" lengthAdjust="spacing" textLength="31.3039" x="798.5" y="561.5999">(ETL)</text></g><!--entity Unicidade--><g class="entity" data-entity="Unicidade" data-source-line="34" data-uid="ent0017" id="entity_Unicidade"><rect fill="#FFFFFF" height="68.1358" rx="2.5" ry="2.5" style="stroke:#000000;stroke-width:1;" width="148.4016" x="1145" y="507.5661"/><rect fill="#FFFFFF" height="10" style="stroke:#000000;stroke-width:1;" width="15" x="1273.4016" y="512.5661"/><rect fill="#FFFFFF" height="2" style="stroke:#000000;stroke-width:1;" width="4" x="1271.4016" y="514.5661"/><rect fill="#FFFFFF" height="2" style="stroke:#000000;stroke-width:1;" width="4" x="1271.4016" y="518.5661"/><text fill="#000000" font-family="Verdana" font-size="14" lengthAdjust="spacing" textLength="108.4016" x="1160" y="542.532">LogicaUnicidade</text><text fill="#000000" font-family="Verdana" font-size="14" lengthAdjust="spacing" textLength="37.6179" x="1160" y="561.5999">(Utils)</text></g><!--entity Regras--><g class="entity" data-entity="Regras" data-source-line="35" data-uid="ent0018" id="entity_Regras"><rect fill="#FFFFFF" height="68.1358" rx="2.5" ry="2.5" style="stroke:#000000;stroke-width:1;" width="151.9856" x="958" y="507.5661"/><rect fill="#FFFFFF" height="10" style="stroke:#000000;stroke-width:1;" width="15" x="1089.9856" y="512.5661"/><rect fill="#FFFFFF" height="2" style="stroke:#000000;stroke-width:1;" width="4" x="1087.9856" y="514.5661"/><rect fill="#FFFFFF" height="2" style="stroke:#000000;stroke-width:1;" width="4" x="1087.9856" y="518.5661"/><text fill="#000000" font-family="Verdana" font-size="14" lengthAdjust="spacing" textLength="111.9856" x="973" y="542.532">MotorRegrasSQL</text><text fill="#000000" font-family="Verdana" font-size="14" lengthAdjust="spacing" textLength="55.1038" x="973" y="561.5999">(Service)</text></g><!--entity Scorecard--><g class="entity" data-entity="Scorecard" data-source-line="36" data-uid="ent0019" id="entity_Scorecard"><rect fill="#FFFFFF" height="68.1358" rx="2.5" ry="2.5" style="stroke:#000000;stroke-width:1;" width="148.1216" x="600" y="507.5661"/><rect fill="#FFFFFF" height="10" style="stroke:#000000;stroke-width:1;" width="15" x="728.1216" y="512.5661"/><rect fill="#FFFFFF" height="2" style="stroke:#000000;stroke-width:1;" width="4" x="726.1216" y="514.5661"/><rect fill="#FFFFFF" height="2" style="stroke:#000000;stroke-width:1;" width="4" x="726.1216" y="518.5661"/><text fill="#000000" font-family="Verdana" font-size="14" lengthAdjust="spacing" textLength="108.1216" x="615" y="542.532">LogicaScorecard</text><text fill="#000000" font-family="Verdana" font-size="14" lengthAdjust="spacing" textLength="37.6179" x="615" y="561.5999">(Utils)</text></g><!--entity Signals--><g class="entity" data-entity="Signals" data-source-line="37" data-uid="ent0020" id="entity_Signals"><rect fill="#FFFFFF" height="68.1358" rx="2.5" ry="2.5" style="stroke:#000000;stroke-width:1;" width="146.1896" x="419" y="507.5661"/><rect fill="#FFFFFF" height="10" style="stroke:#000000;stroke-width:1;" width="15" x="545.1896" y="512.5661"/><rect fill="#FFFFFF" height="2" style="stroke:#000000;stroke-width:1;" width="4" x="543.1896" y="514.5661"/><rect fill="#FFFFFF" height="2" style="stroke:#000000;stroke-width:1;" width="4" x="543.1896" y="518.5661"/><text fill="#000000" font-family="Verdana" font-size="14" lengthAdjust="spacing" textLength="81.6057" x="434" y="542.532">AuditSignals</text><text fill="#000000" font-family="Verdana" font-size="14" lengthAdjust="spacing" textLength="106.1896" x="434" y="561.5999">(Django Signals)</text></g><!--entity ETLTasks--><g class="entity" data-entity="ETLTasks" data-source-line="45" data-uid="ent0022" id="entity_ETLTasks"><rect fill="#FFFFFF" height="49.0679" rx="2.5" ry="2.5" style="stroke:#000000;stroke-width:1;" width="99.4298" x="1041.5" y="356.5661"/><rect fill="#FFFFFF" height="10" style="stroke:#000000;stroke-width:1;" width="15" x="1120.9298" y="361.5661"/><rect fill="#FFFFFF" height="2" style="stroke:#000000;stroke-width:1;" width="4" x="1118.9298" y="363.5661"/><rect fill="#FFFFFF" height="2" style="stroke:#000000;stroke-width:1;" width="4" x="1118.9298" y="367.5661"/><text fill="#000000" font-family="Verdana" font-size="14" lengthAdjust="spacing" textLength="59.4298" x="1056.5" y="391.532">ETLTasks</text></g><!--entity SimplesTasks--><g class="entity" data-entity="SimplesTasks" data-source-line="46" data-uid="ent0023" id="entity_SimplesTasks"><rect fill="#FFFFFF" height="49.0679" rx="2.5" ry="2.5" style="stroke:#000000;stroke-width:1;" width="127.7377" x="1176" y="356.5661"/><rect fill="#FFFFFF" height="10" style="stroke:#000000;stroke-width:1;" width="15" x="1283.7377" y="361.5661"/><rect fill="#FFFFFF" height="2" style="stroke:#000000;stroke-width:1;" width="4" x="1281.7377" y="363.5661"/><rect fill="#FFFFFF" height="2" style="stroke:#000000;stroke-width:1;" width="4" x="1281.7377" y="367.5661"/><text fill="#000000" font-family="Verdana" font-size="14" lengthAdjust="spacing" textLength="87.7377" x="1191" y="391.532">SimplesTasks</text></g><!--entity RelacionalTasks--><g class="entity" data-entity="RelacionalTasks" data-source-line="47" data-uid="ent0024" id="entity_RelacionalTasks"><rect fill="#FFFFFF" height="49.0679" rx="2.5" ry="2.5" style="stroke:#000000;stroke-width:1;" width="143.5156" x="862" y="356.5661"/><rect fill="#FFFFFF" height="10" style="stroke:#000000;stroke-width:1;" width="15" x="985.5156" y="361.5661"/><rect fill="#FFFFFF" height="2" style="stroke:#000000;stroke-width:1;" width="4" x="983.5156" y="363.5661"/><rect fill="#FFFFFF" height="2" style="stroke:#000000;stroke-width:1;" width="4" x="983.5156" y="367.5661"/><text fill="#000000" font-family="Verdana" font-size="14" lengthAdjust="spacing" textLength="103.5156" x="877" y="391.532">RelacionalTasks</text></g><!--entity EngenhariaTasks--><g class="entity" data-entity="EngenhariaTasks" data-source-line="48" data-uid="ent0025" id="entity_EngenhariaTasks"><rect fill="#FFFFFF" height="49.0679" rx="2.5" ry="2.5" style="stroke:#000000;stroke-width:1;" width="151.8736" x="1339" y="356.5661"/><rect fill="#FFFFFF" height="10" style="stroke:#000000;stroke-width:1;" width="15" x="1470.8736" y="361.5661"/><rect fill="#FFFFFF" height="2" style="stroke:#000000;stroke-width:1;" width="4" x="1468.8736" y="363.5661"/><rect fill="#FFFFFF" height="2" style="stroke:#000000;stroke-width:1;" width="4" x="1468.8736" y="367.5661"/><text fill="#000000" font-family="Verdana" font-size="14" lengthAdjust="spacing" textLength="111.8736" x="1354" y="391.532">EngenhariaTasks</text></g><!--entity ExecucaoPipeline--><g class="entity" data-entity="ExecucaoPipeline" data-source-line="74" data-uid="ent0040" id="entity_ExecucaoPipeline"><rect fill="#FFFFFF" height="49.0679" rx="2.5" ry="2.5" style="stroke:#000000;stroke-width:1;" width="153.8615" x="600" y="653.5661"/><rect fill="#FFFFFF" height="10" style="stroke:#000000;stroke-width:1;" width="15" x="733.8615" y="658.5661"/><rect fill="#FFFFFF" height="2" style="stroke:#000000;stroke-width:1;" width="4" x="731.8615" y="660.5661"/><rect fill="#FFFFFF" height="2" style="stroke:#000000;stroke-width:1;" width="4" x="731.8615" y="664.5661"/><text fill="#000000" font-family="Verdana" font-size="14" lengthAdjust="spacing" textLength="113.8615" x="615" y="688.532">ExecucaoPipeline</text></g><!--entity LogEtapa--><g class="entity" data-entity="LogEtapa" data-source-line="75" data-uid="ent0041" id="entity_LogEtapa"><rect fill="#FFFFFF" height="49.0679" rx="2.5" ry="2.5" style="stroke:#000000;stroke-width:1;" width="101.5718" x="789" y="653.5661"/><rect fill="#FFFFFF" height="10" style="stroke:#000000;stroke-width:1;" width="15" x="870.5718" y="658.5661"/><rect fill="#FFFFFF" height="2" style="stroke:#000000;stroke-width:1;" width="4" x="868.5718" y="660.5661"/><rect fill="#FFFFFF" height="2" style="stroke:#000000;stroke-width:1;" width="4" x="868.5718" y="664.5661"/><text fill="#000000" font-family="Verdana" font-size="14" lengthAdjust="spacing" textLength="61.5718" x="804" y="688.532">LogEtapa</text></g><!--entity RelatorioCompletude--><g class="entity" data-entity="RelatorioCompletude" data-source-line="77" data-uid="ent0042" id="entity_RelatorioCompletude"><rect fill="#FFFFFF" height="49.0679" rx="2.5" ry="2.5" style="stroke:#000000;stroke-width:1;" width="180.1955" x="2141" y="653.5661"/><rect fill="#FFFFFF" height="10" style="stroke:#000000;stroke-width:1;" width="15" x="2301.1955" y="658.5661"/><rect fill="#FFFFFF" height="2" style="stroke:#000000;stroke-width:1;" width="4" x="2299.1955" y="660.5661"/><rect fill="#FFFFFF" height="2" style="stroke:#000000;stroke-width:1;" width="4" x="2299.1955" y="664.5661"/><text fill="#000000" font-family="Verdana" font-size="14" lengthAdjust="spacing" textLength="140.1955" x="2156" y="688.532">RelatorioCompletude</text></g><!--entity RelatorioValidade--><g class="entity" data-entity="RelatorioValidade" data-source-line="78" data-uid="ent0043" id="entity_RelatorioValidade"><rect fill="#FFFFFF" height="49.0679" rx="2.5" ry="2.5" style="stroke:#000000;stroke-width:1;" width="155.9056" x="2356" y="653.5661"/><rect fill="#FFFFFF" height="10" style="stroke:#000000;stroke-width:1;" width="15" x="2491.9056" y="658.5661"/><rect fill="#FFFFFF" height="2" style="stroke:#000000;stroke-width:1;" width="4" x="2489.9056" y="660.5661"/><rect fill="#FFFFFF" height="2" style="stroke:#000000;stroke-width:1;" width="4" x="2489.9056" y="664.5661"/><text fill="#000000" font-family="Verdana" font-size="14" lengthAdjust="spacing" textLength="115.9056" x="2371" y="688.532">RelatorioValidade</text></g><!--entity RelatorioUnicidade--><g class="entity" data-entity="RelatorioUnicidade" data-source-line="79" data-uid="ent0044" id="entity_RelatorioUnicidade"><rect fill="#FFFFFF" height="49.0679" rx="2.5" ry="2.5" style="stroke:#000000;stroke-width:1;" width="165.2575" x="1336.5" y="653.5661"/><rect fill="#FFFFFF" height="10" style="stroke:#000000;stroke-width:1;" width="15" x="1481.7575" y="658.5661"/><rect fill="#FFFFFF" height="2" style="stroke:#000000;stroke-width:1;" width="4" x="1479.7575" y="660.5661"/><rect fill="#FFFFFF" height="2" style="stroke:#000000;stroke-width:1;" width="4" x="1479.7575" y="664.5661"/><text fill="#000000" font-family="Verdana" font-size="14" lengthAdjust="spacing" textLength="125.2575" x="1351.5" y="688.532">RelatorioUnicidade</text></g><!--entity RelatorioUnicidadePersonalizada--><g class="entity" data-entity="RelatorioUnicidadePersonalizada" data-source-line="80" data-uid="ent0045" id="entity_RelatorioUnicidadePersonalizada"><rect fill="#FFFFFF" height="49.0679" rx="2.5" ry="2.5" style="stroke:#000000;stroke-width:1;" width="257.2092" x="2547.5" y="653.5661"/><rect fill="#FFFFFF" height="10" style="stroke:#000000;stroke-width:1;" width="15" x="2784.7092" y="658.5661"/><rect fill="#FFFFFF" height="2" style="stroke:#000000;stroke-width:1;" width="4" x="2782.7092" y="660.5661"/><rect fill="#FFFFFF" height="2" style="stroke:#000000;stroke-width:1;" width="4" x="2782.7092" y="664.5661"/><text fill="#000000" font-family="Verdana" font-size="14" lengthAdjust="spacing" textLength="217.2092" x="2562.5" y="688.532">RelatorioUnicidadePersonalizada</text></g><!--entity RelatorioRegraNegocio--><g class="entity" data-entity="RelatorioRegraNegocio" data-source-line="82" data-uid="ent0046" id="entity_RelatorioRegraNegocio"><rect fill="#FFFFFF" height="49.0679" rx="2.5" ry="2.5" style="stroke:#000000;stroke-width:1;" width="192.7254" x="1536.5" y="653.5661"/><rect fill="#FFFFFF" height="10" style="stroke:#000000;stroke-width:1;" width="15" x="1709.2254" y="658.5661"/><rect fill="#FFFFFF" height="2" style="stroke:#000000;stroke-width:1;" width="4" x="1707.2254" y="660.5661"/><rect fill="#FFFFFF" height="2" style="stroke:#000000;stroke-width:1;" width="4" x="1707.2254" y="664.5661"/><text fill="#000000" font-family="Verdana" font-size="14" lengthAdjust="spacing" textLength="152.7254" x="1551.5" y="688.532">RelatorioRegraNegocio</text></g><!--entity RelatorioAnaliseRelacional--><g class="entity" data-entity="RelatorioAnaliseRelacional" data-source-line="83" data-uid="ent0047" id="entity_RelatorioAnaliseRelacional"><rect fill="#FFFFFF" height="49.0679" rx="2.5" ry="2.5" style="stroke:#000000;stroke-width:1;" width="213.7253" x="1087" y="653.5661"/><rect fill="#FFFFFF" height="10" style="stroke:#000000;stroke-width:1;" width="15" x="1280.7253" y="658.5661"/><rect fill="#FFFFFF" height="2" style="stroke:#000000;stroke-width:1;" width="4" x="1278.7253" y="660.5661"/><rect fill="#FFFFFF" height="2" style="stroke:#000000;stroke-width:1;" width="4" x="1278.7253" y="664.5661"/><text fill="#000000" font-family="Verdana" font-size="14" lengthAdjust="spacing" textLength="173.7253" x="1102" y="688.532">RelatorioAnaliseRelacional</text></g><!--entity RelatorioDQI--><g class="entity" data-entity="RelatorioDQI" data-source-line="85" data-uid="ent0048" id="entity_RelatorioDQI"><rect fill="#FFFFFF" height="49.0679" rx="2.5" ry="2.5" style="stroke:#000000;stroke-width:1;" width="125.3577" x="926.5" y="653.5661"/><rect fill="#FFFFFF" height="10" style="stroke:#000000;stroke-width:1;" width="15" x="1031.8577" y="658.5661"/><rect fill="#FFFFFF" height="2" style="stroke:#000000;stroke-width:1;" width="4" x="1029.8577" y="660.5661"/><rect fill="#FFFFFF" height="2" style="stroke:#000000;stroke-width:1;" width="4" x="1029.8577" y="664.5661"/><text fill="#000000" font-family="Verdana" font-size="14" lengthAdjust="spacing" textLength="85.3577" x="941.5" y="688.532">RelatorioDQI</text></g><!--entity RelatorioRiscoSenha--><g class="entity" data-entity="RelatorioRiscoSenha" data-source-line="86" data-uid="ent0049" id="entity_RelatorioRiscoSenha"><rect fill="#FFFFFF" height="49.0679" rx="2.5" ry="2.5" style="stroke:#000000;stroke-width:1;" width="174.4135" x="2144" y="762.5661"/><rect fill="#FFFFFF" height="10" style="stroke:#000000;stroke-width:1;" width="15" x="2298.4135" y="767.5661"/><rect fill="#FFFFFF" height="2" style="stroke:#000000;stroke-width:1;" width="4" x="2296.4135" y="769.5661"/><rect fill="#FFFFFF" height="2" style="stroke:#000000;stroke-width:1;" width="4" x="2296.4135" y="773.5661"/><text fill="#000000" font-family="Verdana" font-size="14" lengthAdjust="spacing" textLength="134.4135" x="2159" y="797.532">RelatorioRiscoSenha</text></g><!--entity RelatorioScorecard--><g class="entity" data-entity="RelatorioScorecard" data-source-line="87" data-uid="ent0050" id="entity_RelatorioScorecard"><rect fill="#FFFFFF" height="49.0679" rx="2.5" ry="2.5" style="stroke:#000000;stroke-width:1;" width="164.9775" x="399.5" y="653.5661"/><rect fill="#FFFFFF" height="10" style="stroke:#000000;stroke-width:1;" width="15" x="544.4775" y="658.5661"/><rect fill="#FFFFFF" height="2" style="stroke:#000000;stroke-width:1;" width="4" x="542.4775" y="660.5661"/><rect fill="#FFFFFF" height="2" style="stroke:#000000;stroke-width:1;" width="4" x="542.4775" y="664.5661"/><text fill="#000000" font-family="Verdana" font-size="14" lengthAdjust="spacing" textLength="124.9775" x="414.5" y="688.532">RelatorioScorecard</text></g><!--entity MapeamentoCarga--><g class="entity" data-entity="MapeamentoCarga" data-source-line="89" data-uid="ent0051" id="entity_MapeamentoCarga"><rect fill="#FFFFFF" height="49.0679" rx="2.5" ry="2.5" style="stroke:#000000;stroke-width:1;" width="167.0215" x="1938.5" y="653.5661"/><rect fill="#FFFFFF" height="10" style="stroke:#000000;stroke-width:1;" width="15" x="2085.5215" y="658.5661"/><rect fill="#FFFFFF" height="2" style="stroke:#000000;stroke-width:1;" width="4" x="2083.5215" y="660.5661"/><rect fill="#FFFFFF" height="2" style="stroke:#000000;stroke-width:1;" width="4" x="2083.5215" y="664.5661"/><text fill="#000000" font-family="Verdana" font-size="14" lengthAdjust="spacing" textLength="127.0215" x="1953.5" y="688.532">MapeamentoCarga</text></g><!--entity HistoricoCarga--><g class="entity" data-entity="HistoricoCarga" data-source-line="90" data-uid="ent0052" id="entity_HistoricoCarga"><rect fill="#FFFFFF" height="49.0679" rx="2.5" ry="2.5" style="stroke:#000000;stroke-width:1;" width="137.7477" x="1765" y="653.5661"/><rect fill="#FFFFFF" height="10" style="stroke:#000000;stroke-width:1;" width="15" x="1882.7477" y="658.5661"/><rect fill="#FFFFFF" height="2" style="stroke:#000000;stroke-width:1;" width="4" x="1880.7477" y="660.5661"/><rect fill="#FFFFFF" height="2" style="stroke:#000000;stroke-width:1;" width="4" x="1880.7477" y="664.5661"/><text fill="#000000" font-family="Verdana" font-size="14" lengthAdjust="spacing" textLength="97.7477" x="1780" y="688.532">HistoricoCarga</text></g><!--entity AuditoriaAD--><g class="entity" data-entity="AuditoriaAD" data-source-line="92" data-uid="ent0053" id="entity_AuditoriaAD"><rect fill="#FFFFFF" height="49.0679" rx="2.5" ry="2.5" style="stroke:#000000;stroke-width:1;" width="119.7577" x="244" y="653.5661"/><rect fill="#FFFFFF" height="10" style="stroke:#000000;stroke-width:1;" width="15" x="343.7577" y="658.5661"/><rect fill="#FFFFFF" height="2" style="stroke:#000000;stroke-width:1;" width="4" x="341.7577" y="660.5661"/><rect fill="#FFFFFF" height="2" style="stroke:#000000;stroke-width:1;" width="4" x="341.7577" y="664.5661"/><text fill="#000000" font-family="Verdana" font-size="14" lengthAdjust="spacing" textLength="79.7577" x="259" y="688.532">AuditoriaAD</text></g><!--entity IncidenteQualidade--><g class="entity" data-entity="IncidenteQualidade" data-source-line="93" data-uid="ent0054" id="entity_IncidenteQualidade"><rect fill="#FFFFFF" height="49.0679" rx="2.5" ry="2.5" style="stroke:#000000;stroke-width:1;" width="169.4715" x="40.5" y="653.5661"/><rect fill="#FFFFFF" height="10" style="stroke:#000000;stroke-width:1;" width="15" x="189.9715" y="658.5661"/><rect fill="#FFFFFF" height="2" style="stroke:#000000;stroke-width:1;" width="4" x="187.9715" y="660.5661"/><rect fill="#FFFFFF" height="2" style="stroke:#000000;stroke-width:1;" width="4" x="187.9715" y="664.5661"/><text fill="#000000" font-family="Verdana" font-size="14" lengthAdjust="spacing" textLength="129.4715" x="55.5" y="688.532">IncidenteQualidade</text></g><!--entity PerfilGerente--><g class="entity" data-entity="PerfilGerente" data-source-line="94" data-uid="ent0055" id="entity_PerfilGerente"><rect fill="#FFFFFF" height="49.0679" rx="2.5" ry="2.5" style="stroke:#000000;stroke-width:1;" width="127.5556" x="2353" y="762.5661"/><rect fill="#FFFFFF" height="10" style="stroke:#000000;stroke-width:1;" width="15" x="2460.5556" y="767.5661"/><rect fill="#FFFFFF" height="2" style="stroke:#000000;stroke-width:1;" width="4" x="2458.5556" y="769.5661"/><rect fill="#FFFFFF" height="2" style="stroke:#000000;stroke-width:1;" width="4" x="2458.5556" y="773.5661"/><text fill="#000000" font-family="Verdana" font-size="14" lengthAdjust="spacing" textLength="87.5556" x="2368" y="797.532">PerfilGerente</text></g><!--link MVT to UI_ETL--><g class="link" data-entity-1="MVT" data-entity-2="UI_ETL" data-source-line="20" data-uid="lnk10" id="link_MVT_UI_ETL"><path d="M739.25,296.8461 C739.25,315.8461 739.25,333.0461 739.25,350.2761" fill="none" id="MVT-to-UI_ETL" style="stroke:#000000;stroke-width:1;"/><polygon fill="#000000" points="739.25,356.2761,743.25,347.2761,739.25,351.2761,735.25,347.2761,739.25,356.2761" style="stroke:#000000;stroke-width:1;"/></g><!--link MVT to UI_DAMA--><g class="link" data-entity-1="MVT" data-entity-2="UI_DAMA" data-source-line="21" data-uid="lnk11" id="link_MVT_UI_DAMA"><path d="M695.87,279.5661 C632.76,279.5661 538,279.5661 538,279.5661 C538,279.5661 538,320.4561 538,350.4961" fill="none" id="MVT-to-UI_DAMA" style="stroke:#000000;stroke-width:1;"/><polygon fill="#000000" points="538,356.4961,542,347.4961,538,351.4961,534,347.4961,538,356.4961" style="stroke:#000000;stroke-width:1;"/></g><!--link MVT to UI_REL--><g class="link" data-entity-1="MVT" data-entity-2="UI_REL" data-source-line="22" data-uid="lnk12" id="link_MVT_UI_REL"><path d="M695.74,262.5661 C580.48,262.5661 325,262.5661 325,262.5661 C325,262.5661 325,315.8061 325,350.5161" fill="none" id="MVT-to-UI_REL" style="stroke:#000000;stroke-width:1;"/><polygon fill="#000000" points="325,356.5161,329,347.5161,325,351.5161,321,347.5161,325,356.5161" style="stroke:#000000;stroke-width:1;"/></g><!--link MVT to UI_GOV--><g class="link" data-entity-1="MVT" data-entity-2="UI_GOV" data-source-line="23" data-uid="lnk13" id="link_MVT_UI_GOV"><path d="M695.88,245.5661 C544.42,245.5661 133,245.5661 133,245.5661 C133,245.5661 133,311.4761 133,350.5261" fill="none" id="MVT-to-UI_GOV" style="stroke:#000000;stroke-width:1;"/><polygon fill="#000000" points="133,356.5261,137,347.5261,133,351.5261,129,347.5261,133,356.5261" style="stroke:#000000;stroke-width:1;"/></g><!--link API to MVT--><g class="link" data-entity-1="API" data-entity-2="MVT" data-source-line="25" data-uid="lnk14" id="link_API_MVT"><path d="M757,168.8661 C757,187.2361 757,203.7861 757,222.1661" fill="none" id="API-to-MVT" style="stroke:#000000;stroke-width:1;"/><polygon fill="#000000" points="757,228.1661,761,219.1661,757,223.1661,753,219.1661,757,228.1661" style="stroke:#000000;stroke-width:1;"/><text fill="#000000" font-family="Verdana" font-size="13" lengthAdjust="spacing" textLength="95.7711" x="661" y="194.4131">Suporte h&#237;brido</text></g><!--link MVT to ETLTasks--><g class="link" data-entity-1="MVT" data-entity-2="ETLTasks" data-source-line="52" data-uid="lnk26" id="link_MVT_ETLTasks"><path d="M806.24,279.5661 C898.64,279.5661 1074.5,279.5661 1074.5,279.5661 C1074.5,279.5661 1074.5,320.4561 1074.5,350.4961" fill="none" id="MVT-to-ETLTasks" style="stroke:#000000;stroke-width:1;"/><polygon fill="#000000" points="1074.5,356.4961,1078.5,347.4961,1074.5,351.4961,1070.5,347.4961,1074.5,356.4961" style="stroke:#000000;stroke-width:1;"/><text fill="#000000" font-family="Verdana" font-size="13" lengthAdjust="spacing" textLength="40.404" x="937.84" y="275.4631">delay()</text></g><!--link MVT to SimplesTasks--><g class="link" data-entity-1="MVT" data-entity-2="SimplesTasks" data-source-line="53" data-uid="lnk27" id="link_MVT_SimplesTasks"><path d="M806.02,262.5661 C929.65,262.5661 1218.67,262.5661 1218.67,262.5661 C1218.67,262.5661 1218.67,315.8061 1218.67,350.5161" fill="none" id="MVT-to-SimplesTasks" style="stroke:#000000;stroke-width:1;"/><polygon fill="#000000" points="1218.67,356.5161,1222.67,347.5161,1218.67,351.5161,1214.67,347.5161,1218.67,356.5161" style="stroke:#000000;stroke-width:1;"/><text fill="#000000" font-family="Verdana" font-size="13" lengthAdjust="spacing" textLength="40.404" x="1018.32" y="258.4631">delay()</text></g><!--link MVT to RelacionalTasks--><g class="link" data-entity-1="MVT" data-entity-2="RelacionalTasks" data-source-line="54" data-uid="lnk28" id="link_MVT_RelacionalTasks"><path d="M794.75,296.6661 C794.75,331.8261 794.75,381.5661 794.75,381.5661 C794.75,381.5661 821.95,381.5661 855.93,381.5661" fill="none" id="MVT-to-RelacionalTasks" style="stroke:#000000;stroke-width:1;"/><polygon fill="#000000" points="861.93,381.5661,852.93,377.5661,856.93,381.5661,852.93,385.5661,861.93,381.5661" style="stroke:#000000;stroke-width:1;"/><text fill="#000000" font-family="Verdana" font-size="13" lengthAdjust="spacing" textLength="40.404" x="795.75" y="368.6031">delay()</text></g><!--link MVT to EngenhariaTasks--><g class="link" data-entity-1="MVT" data-entity-2="EngenhariaTasks" data-source-line="55" data-uid="lnk29" id="link_MVT_EngenhariaTasks"><path d="M806.01,245.5661 C960.92,245.5661 1389.67,245.5661 1389.67,245.5661 C1389.67,245.5661 1389.67,311.4761 1389.67,350.5261" fill="none" id="MVT-to-EngenhariaTasks" style="stroke:#000000;stroke-width:1;"/><polygon fill="#000000" points="1389.67,356.5261,1393.67,347.5261,1389.67,351.5261,1385.67,347.5261,1389.67,356.5261" style="stroke:#000000;stroke-width:1;"/><text fill="#000000" font-family="Verdana" font-size="13" lengthAdjust="spacing" textLength="40.404" x="1112.32" y="241.4631">delay()</text></g><!--link API to ETLTasks--><g class="link" data-entity-1="API" data-entity-2="ETLTasks" data-source-line="57" data-uid="lnk30" id="link_API_ETLTasks"><path d="M806.1,141.5661 C902.57,141.5661 1107.5,141.5661 1107.5,141.5661 C1107.5,141.5661 1107.5,289.1461 1107.5,350.3361" fill="none" id="API-to-ETLTasks" style="stroke:#000000;stroke-width:1;"/><polygon fill="#000000" points="1107.5,356.3361,1111.5,347.3361,1107.5,351.3361,1103.5,347.3361,1107.5,356.3361" style="stroke:#000000;stroke-width:1;"/><text fill="#000000" font-family="Verdana" font-size="13" lengthAdjust="spacing" textLength="40.404" x="1023.19" y="137.4631">delay()</text></g><!--link API to SimplesTasks--><g class="link" data-entity-1="API" data-entity-2="SimplesTasks" data-source-line="58" data-uid="lnk31" id="link_API_SimplesTasks"><path d="M806.28,128.5661 C933.18,128.5661 1261.33,128.5661 1261.33,128.5661 C1261.33,128.5661 1261.33,286.8561 1261.33,350.3961" fill="none" id="API-to-SimplesTasks" style="stroke:#000000;stroke-width:1;"/><polygon fill="#000000" points="1261.33,356.3961,1265.33,347.3961,1261.33,351.3961,1257.33,347.3961,1261.33,356.3961" style="stroke:#000000;stroke-width:1;"/><text fill="#000000" font-family="Verdana" font-size="13" lengthAdjust="spacing" textLength="40.404" x="1106.72" y="124.4631">delay()</text></g><!--link API to RelacionalTasks--><g class="link" data-entity-1="API" data-entity-2="RelacionalTasks" data-source-line="59" data-uid="lnk32" id="link_API_RelacionalTasks"><path d="M806.3,155.5661 C858.68,155.5661 934,155.5661 934,155.5661 C934,155.5661 934,292.0561 934,350.5061" fill="none" id="API-to-RelacionalTasks" style="stroke:#000000;stroke-width:1;"/><polygon fill="#000000" points="934,356.5061,938,347.5061,934,351.5061,930,347.5061,934,356.5061" style="stroke:#000000;stroke-width:1;"/><text fill="#000000" font-family="Verdana" font-size="13" lengthAdjust="spacing" textLength="40.404" x="893" y="188.0831">delay()</text></g><!--link API to EngenhariaTasks--><g class="link" data-entity-1="API" data-entity-2="EngenhariaTasks" data-source-line="60" data-uid="lnk33" id="link_API_EngenhariaTasks"><path d="M806.14,114.5661 C962.83,114.5661 1440.33,114.5661 1440.33,114.5661 C1440.33,114.5661 1440.33,284.4961 1440.33,350.4761" fill="none" id="API-to-EngenhariaTasks" style="stroke:#000000;stroke-width:1;"/><polygon fill="#000000" points="1440.33,356.4761,1444.33,347.4761,1440.33,351.4761,1436.33,347.4761,1440.33,356.4761" style="stroke:#000000;stroke-width:1;"/><text fill="#000000" font-family="Verdana" font-size="13" lengthAdjust="spacing" textLength="40.404" x="1203.19" y="110.4631">delay()</text></g><!--link ETLTasks to Pipeline--><g class="link" data-entity-1="ETLTasks" data-entity-2="Pipeline" data-source-line="63" data-uid="lnk34" id="link_ETLTasks_Pipeline"><path d="M1064.33,405.6261 C1064.33,431.1961 1064.33,467.5661 1064.33,467.5661 C1064.33,467.5661 902.33,467.5661 902.33,467.5661 C902.33,467.5661 902.33,481.8461 902.33,501.1661" fill="none" id="ETLTasks-to-Pipeline" style="stroke:#000000;stroke-width:1;stroke-dasharray:7,7;"/><polygon fill="#000000" points="902.33,507.1661,906.33,498.1661,902.33,502.1661,898.33,498.1661,902.33,507.1661" style="stroke:#000000;stroke-width:1;"/><text fill="#000000" font-family="Verdana" font-size="13" lengthAdjust="spacing" textLength="47.801" x="995.51" y="463.4631">executa</text></g><!--link SimplesTasks to Unicidade--><g class="link" data-entity-1="SimplesTasks" data-entity-2="Unicidade" data-source-line="64" data-uid="lnk35" id="link_SimplesTasks_Unicidade"><path d="M1254,405.7961 C1254,432.9661 1254,470.7961 1254,501.2761" fill="none" id="SimplesTasks-to-Unicidade" style="stroke:#000000;stroke-width:1;stroke-dasharray:7,7;"/><polygon fill="#000000" points="1254,507.2761,1258,498.2761,1254,502.2761,1250,498.2761,1254,507.2761" style="stroke:#000000;stroke-width:1;"/><text fill="#000000" font-family="Verdana" font-size="13" lengthAdjust="spacing" textLength="21.554" x="1232" y="452.4331">usa</text></g><!--link SimplesTasks to Regras--><g class="link" data-entity-1="SimplesTasks" data-entity-2="Regras" data-source-line="65" data-uid="lnk36" id="link_SimplesTasks_Regras"><path d="M1215,405.7661 C1215,437.2261 1215,487.5661 1215,487.5661 C1215,487.5661 1087.17,487.5661 1087.17,487.5661 C1087.17,487.5661 1087.17,490.6461 1087.17,501.3661" fill="none" id="SimplesTasks-to-Regras" style="stroke:#000000;stroke-width:1;stroke-dasharray:7,7;"/><polygon fill="#000000" points="1087.17,507.3661,1091.17,498.3661,1087.17,502.3661,1083.17,498.3661,1087.17,507.3661" style="stroke:#000000;stroke-width:1;"/><text fill="#000000" font-family="Verdana" font-size="13" lengthAdjust="spacing" textLength="117.0911" x="1064.08" y="483.4631">regras SQL simples</text></g><!--link RelacionalTasks to Regras--><g class="link" data-entity-1="RelacionalTasks" data-entity-2="Regras" data-source-line="66" data-uid="lnk37" id="link_RelacionalTasks_Regras"><path d="M982,405.7961 C982,432.9661 982,470.7961 982,501.2761" fill="none" id="RelacionalTasks-to-Regras" style="stroke:#000000;stroke-width:1;stroke-dasharray:7,7;"/><polygon fill="#000000" points="982,507.2761,986,498.2761,982,502.2761,978,498.2761,982,507.2761" style="stroke:#000000;stroke-width:1;"/><text fill="#000000" font-family="Verdana" font-size="13" lengthAdjust="spacing" textLength="134.7191" x="847" y="452.4331">regras SQL avan&#231;adas</text></g><!--link RelacionalTasks to Scorecard--><g class="link" data-entity-1="RelacionalTasks" data-entity-2="Scorecard" data-source-line="67" data-uid="lnk38" id="link_RelacionalTasks_Scorecard"><path d="M882.17,405.8261 C882.17,424.3761 882.17,446.5661 882.17,446.5661 C882.17,446.5661 711.75,446.5661 711.75,446.5661 C711.75,446.5661 711.75,474.2761 711.75,501.5361" fill="none" id="RelacionalTasks-to-Scorecard" style="stroke:#000000;stroke-width:1;stroke-dasharray:7,7;"/><polygon fill="#000000" points="711.75,507.5361,715.75,498.5361,711.75,502.5361,707.75,498.5361,711.75,507.5361" style="stroke:#000000;stroke-width:1;"/><text fill="#000000" font-family="Verdana" font-size="13" lengthAdjust="spacing" textLength="116.8311" x="669.84" y="442.4631">c&#225;lculos avan&#231;ados</text></g><!--link Pipeline to ExecucaoPipeline--><g class="link" data-entity-1="Pipeline" data-entity-2="ExecucaoPipeline" data-source-line="98" data-uid="lnk56" id="link_Pipeline_ExecucaoPipeline"><path d="M783.4,541.5661 C774.41,541.5661 768.25,541.5661 768.25,541.5661 C768.25,541.5661 768.25,678.5661 768.25,678.5661 C768.25,678.5661 768.72,678.5661 760.39,678.5661" fill="none" id="Pipeline-to-ExecucaoPipeline" style="stroke:#000000;stroke-width:1;"/><polygon fill="#000000" points="754.39,678.5661,763.39,682.5661,759.39,678.5661,763.39,674.5661,754.39,678.5661" style="stroke:#000000;stroke-width:1;"/></g><!--link Pipeline to LogEtapa--><g class="link" data-entity-1="Pipeline" data-entity-2="LogEtapa" data-source-line="99" data-uid="lnk57" id="link_Pipeline_LogEtapa"><path d="M840,575.6561 C840,599.8261 840,625.6861 840,647.4061" fill="none" id="Pipeline-to-LogEtapa" style="stroke:#000000;stroke-width:1;"/><polygon fill="#000000" points="840,653.4061,844,644.4061,840,648.4061,836,644.4061,840,653.4061" style="stroke:#000000;stroke-width:1;"/></g><!--link Unicidade to RelatorioUnicidade--><g class="link" data-entity-1="Unicidade" data-entity-2="RelatorioUnicidade" data-source-line="101" data-uid="lnk58" id="link_Unicidade_RelatorioUnicidade"><path d="M1293.1,541.5661 C1348.6,541.5661 1415,541.5661 1415,541.5661 C1415,541.5661 1415,608.0161 1415,647.3461" fill="none" id="Unicidade-to-RelatorioUnicidade" style="stroke:#000000;stroke-width:1;"/><polygon fill="#000000" points="1415,653.3461,1419,644.3461,1415,648.3461,1411,644.3461,1415,653.3461" style="stroke:#000000;stroke-width:1;"/></g><!--link SimplesTasks to RelatorioRegraNegocio--><g class="link" data-entity-1="SimplesTasks" data-entity-2="RelatorioRegraNegocio" data-source-line="102" data-uid="lnk59" id="link_SimplesTasks_RelatorioRegraNegocio"><path d="M1297,405.6761 C1297,416.4061 1297,426.5661 1297,426.5661 C1297,426.5661 1665.17,426.5661 1665.17,426.5661 C1665.17,426.5661 1665.17,584.2061 1665.17,647.4961" fill="none" id="SimplesTasks-to-RelatorioRegraNegocio" style="stroke:#000000;stroke-width:1;"/><polygon fill="#000000" points="1665.17,653.4961,1669.17,644.4961,1665.17,648.4961,1661.17,644.4961,1665.17,653.4961" style="stroke:#000000;stroke-width:1;"/></g><!--link Regras to RelatorioRegraNegocio--><g class="link" data-entity-1="Regras" data-entity-2="RelatorioRegraNegocio" data-source-line="104" data-uid="lnk60" id="link_Regras_RelatorioRegraNegocio"><path d="M1102.33,575.9261 C1102.33,594.8661 1102.33,614.5661 1102.33,614.5661 C1102.33,614.5661 1600.83,614.5661 1600.83,614.5661 C1600.83,614.5661 1600.83,629.5061 1600.83,647.3361" fill="none" id="Regras-to-RelatorioRegraNegocio" style="stroke:#000000;stroke-width:1;"/><polygon fill="#000000" points="1600.83,653.3361,1604.83,644.3361,1600.83,648.3361,1596.83,644.3361,1600.83,653.3361" style="stroke:#000000;stroke-width:1;"/></g><!--link Regras to RelatorioAnaliseRelacional--><g class="link" data-entity-1="Regras" data-entity-2="RelatorioAnaliseRelacional" data-source-line="105" data-uid="lnk61" id="link_Regras_RelatorioAnaliseRelacional"><path d="M1094.67,575.6561 C1094.67,599.8261 1094.67,625.6861 1094.67,647.4061" fill="none" id="Regras-to-RelatorioAnaliseRelacional" style="stroke:#000000;stroke-width:1;"/><polygon fill="#000000" points="1094.67,653.4061,1098.67,644.4061,1094.67,648.4061,1090.67,644.4061,1094.67,653.4061" style="stroke:#000000;stroke-width:1;"/></g><!--link Regras to RelatorioDQI--><g class="link" data-entity-1="Regras" data-entity-2="RelatorioDQI" data-source-line="106" data-uid="lnk62" id="link_Regras_RelatorioDQI"><path d="M1004.75,575.6561 C1004.75,599.8261 1004.75,625.6861 1004.75,647.4061" fill="none" id="Regras-to-RelatorioDQI" style="stroke:#000000;stroke-width:1;"/><polygon fill="#000000" points="1004.75,653.4061,1008.75,644.4061,1004.75,648.4061,1000.75,644.4061,1004.75,653.4061" style="stroke:#000000;stroke-width:1;"/></g><!--link Scorecard to RelatorioScorecard--><g class="link" data-entity-1="Scorecard" data-entity-2="RelatorioScorecard" data-source-line="108" data-uid="lnk63" id="link_Scorecard_RelatorioScorecard"><path d="M599.71,541.5661 C589.54,541.5661 582.5,541.5661 582.5,541.5661 C582.5,541.5661 582.5,678.5661 582.5,678.5661 C582.5,678.5661 581.2,678.5661 570.53,678.5661" fill="none" id="Scorecard-to-RelatorioScorecard" style="stroke:#000000;stroke-width:1;"/><polygon fill="#000000" points="564.53,678.5661,573.53,682.5661,569.53,678.5661,573.53,674.5661,564.53,678.5661" style="stroke:#000000;stroke-width:1;"/></g><!--link Signals to IncidenteQualidade--><g class="link" data-entity-1="Signals" data-entity-2="IncidenteQualidade" data-source-line="110" data-uid="lnk64" id="link_Signals_IncidenteQualidade"><path d="M418.85,530.5661 C313.21,530.5661 130.5,530.5661 130.5,530.5661 C130.5,530.5661 130.5,605.3861 130.5,647.3761" fill="none" id="Signals-to-IncidenteQualidade" style="stroke:#000000;stroke-width:1;"/><polygon fill="#000000" points="130.5,653.3761,134.5,644.3761,130.5,648.3761,126.5,644.3761,130.5,653.3761" style="stroke:#000000;stroke-width:1;"/></g><!--link Signals to AuditoriaAD--><g class="link" data-entity-1="Signals" data-entity-2="AuditoriaAD" data-source-line="111" data-uid="lnk65" id="link_Signals_AuditoriaAD"><path d="M418.78,553.5661 C367,553.5661 306.75,553.5661 306.75,553.5661 C306.75,553.5661 306.75,611.1861 306.75,647.4661" fill="none" id="Signals-to-AuditoriaAD" style="stroke:#000000;stroke-width:1;"/><polygon fill="#000000" points="306.75,653.4661,310.75,644.4661,306.75,648.4661,302.75,644.4661,306.75,653.4661" style="stroke:#000000;stroke-width:1;"/></g><!--link EngenhariaTasks to MapeamentoCarga--><g class="link" data-entity-1="EngenhariaTasks" data-entity-2="MapeamentoCarga" data-source-line="113" data-uid="lnk66" id="link_EngenhariaTasks_MapeamentoCarga"><path d="M1491.26,373.5661 C1654.29,373.5661 2022,373.5661 2022,373.5661 C2022,373.5661 2022,574.9161 2022,647.4061" fill="none" id="EngenhariaTasks-to-MapeamentoCarga" style="stroke:#000000;stroke-width:1;"/><polygon fill="#000000" points="2022,653.4061,2026,644.4061,2022,648.4061,2018,644.4061,2022,653.4061" style="stroke:#000000;stroke-width:1;"/></g><!--link EngenhariaTasks to HistoricoCarga--><g class="link" data-entity-1="EngenhariaTasks" data-entity-2="HistoricoCarga" data-source-line="114" data-uid="lnk67" id="link_EngenhariaTasks_HistoricoCarga"><path d="M1491.36,389.5661 C1612.22,389.5661 1834,389.5661 1834,389.5661 C1834,389.5661 1834,577.7061 1834,647.4661" fill="none" id="EngenhariaTasks-to-HistoricoCarga" style="stroke:#000000;stroke-width:1;"/><polygon fill="#000000" points="1834,653.4661,1838,644.4661,1834,648.4661,1830,644.4661,1834,653.4661" style="stroke:#000000;stroke-width:1;"/></g><!--SRC=[hLRDRjj64BxlKqnrYNn8SYzG0uAeE494ooPbzLAWs90JUckAo-wIRjmYG6uzzTONwCde8QUYJy0toPDabkHI_3K2H3mjTxxvuNxppVAxx1OF26dCHSBqdKXIhlW1Of5Wzf0YI9NTIfQ9B4POg5zpaM6MAmxh94ELSFZyyMzmY__2F9OQGeGbhKKa0S57TI-AHwaPUmO_VCD3xg-yxULkTUbGsCNL-blZfJouun72RCaFFEJm8xw5kVCBJo9vDeC_60Dw0db8PO991hEzmDyqkFlTJydyzSxT48YNxtqWrGRUoZSuntjLmKoz9Qx9UaL7NVmhDBo4cxN91_NJYcGm6CDgjoc3tAn_fkKJmEkSnoBaHC3SMRYBC-jbNfvmyp3cWP09Zws3jtegpOMyDwmdnIEt3XVRVUdmeVfAEXLu_loyNN5hgocdjMSpjhPCp7BF7AZPCxRlmSzJQaU4s-BJMoL2oJwSeBMML9Ap06S5_ihRhui_jxvvSRPkyTVbUdkoNclaK4k75dD77kXSAwK4g4URxqgaQDHOWwYrw5mhVgsfxxAHaGZuJIA2iYN8vIOJiQwRmcxtlLoPIULXfBZshpVaL6Uit2h3U2O_a0e3hi9kfcPx89Cy59al8cexRQHIAW_gZTgtUZanmxk5_yQ7-H9ZL0zd9wDsnnM-CrBNklYK18hqf6qMs75zDyuiyLWQom-sBtsGBmvfZFe8R6_qmKSv7_6zlK4HIOJ9BLU2jshfxbKaR4J4YyVYVzHGpiENfJRFg-zZLhpsCqYj8IL-c9yrfdRX8-PUdIE8Nbaj1BDpOYIzDKsaj-Rfz4tiwVJFgbCmnz6JD6igUl7Yl14i-U9x3FACiqvP1jFeaq2v7W5KIYIhgXOaLj0LYFM_OWhFxyiP7l9nbqQvv1KK_yH1URjRfvFSw4THkbjdjV7j1GnRppsTCbr9794MJT1H2HeM0YujCREH0RVAUCfdR4nhD325N4fpzbaU3hqRpBw-dQSH3UrV0Rb2fGrXudTYy8dAIkOlCPB4xtJOXOcaiVKhC1tHkLvF1_A43gHlD3ADQJfhcCJbAV83BUMIgsWOuxNG9aHWpQEt2W7umXduhXCwELfXyvyqWD2XlXFn1Ie3crKpRqcsz-N8ites4g-QYZLYBeT3hv6wLjj5Z1tLROTEbzgkt3kODfkCrQgUHem11bIFeeXaneuZe6Cxtkcilg9B-_1yE-OMDOprvsZvVzVbVXJJvPzz0G00]--></g></svg>