<svg xmlns="http://www.w3.org/2000/svg" xmlns:xlink="http://www.w3.org/1999/xlink" contentStyleType="text/css" data-diagram-type="SEQUENCE" height="642px" preserveAspectRatio="none" style="width:1104px;height:642px;background:#FFFFFF;" version="1.1" viewBox="0 0 1104 642" width="1104px" zoomAndPan="magnify"><defs/><g><g><title>Agente Python</title><rect fill="#FFFFFF" height="76.412" style="stroke:#000000;stroke-width:1;" width="10" x="435.3401" y="195.186"/></g><g><title>API Django</title><rect fill="#FFFFFF" height="268.6481" style="stroke:#000000;stroke-width:1;" width="10" x="599.9392" y="271.598"/></g><g><title>Signal .Observer.</title><rect fill="#FFFFFF" height="181.5301" style="stroke:#000000;stroke-width:1;" width="10" x="736.9409" y="335.01"/></g><rect fill="#FFFFFF" height="83.118" style="stroke:#000000;stroke-width:1;" width="439.5195" x="658.5491" y="426.4221"/><g><title>T.cnico AD</title><rect fill="#000000" fill-opacity="0.00000" height="473.1782" width="8" x="45.3298" y="85.0679"/><line style="stroke:#000000;stroke-width:1;stroke-dasharray:5,5;" x1="49" x2="49" y1="85.0679" y2="558.2461"/></g><g><title>Windows Server .AD.</title><rect fill="#000000" fill-opacity="0.00000" height="473.1782" width="8" x="258.632" y="85.0679"/><line style="stroke:#000000;stroke-width:1;stroke-dasharray:5,5;" x1="262.0953" x2="262.0953" y1="85.0679" y2="558.2461"/></g><g><title>Agente Python</title><rect fill="#000000" fill-opacity="0.00000" height="473.1782" width="8" x="436.3401" y="85.0679"/><line style="stroke:#000000;stroke-width:1;stroke-dasharray:5,5;" x1="439.7743" x2="439.7743" y1="85.0679" y2="558.2461"/></g><g><title>API Django</title><rect fill="#000000" fill-opacity="0.00000" height="473.1782" width="8" x="600.9392" y="85.0679"/><line style="stroke:#000000;stroke-width:1;stroke-dasharray:5,5;" x1="604.3293" x2="604.3293" y1="85.0679" y2="558.2461"/></g><g><title>Signal .Observer.</title><rect fill="#000000" fill-opacity="0.00000" height="473.1782" width="8" x="737.9409" y="85.0679"/><line style="stroke:#000000;stroke-width:1;stroke-dasharray:5,5;" x1="741.5491" x2="741.5491" y1="85.0679" y2="558.2461"/></g><g><title>AuditoriaAD</title><rect fill="#000000" fill-opacity="0.00000" height="473.1782" width="8" x="956.646" y="85.0679"/><line style="stroke:#000000;stroke-width:1;stroke-dasharray:5,5;" x1="959.7672" x2="959.7672" y1="85.0679" y2="558.2461"/></g><g><title>Incidentes</title><rect fill="#000000" fill-opacity="0.00000" height="473.1782" width="8" x="1046.7967" y="85.0679"/><line style="stroke:#000000;stroke-width:1;stroke-dasharray:5,5;" x1="1050.5249" x2="1050.5249" y1="85.0679" y2="558.2461"/></g><g class="participant participant-head" data-participant="Tech"><text fill="#000000" font-family="Verdana" font-size="14" lengthAdjust="spacing" textLength="72.6597" x="10" y="80.9659">T&#233;cnico AD</text><ellipse cx="49.3298" cy="14" fill="#FFFFFF" rx="8" ry="8" style="stroke:#000000;stroke-width:1;"/><path d="M49.3298,22 L49.3298,49 M36.3298,30 L62.3298,30 M49.3298,49 L36.3298,64 M49.3298,49 L62.3298,64" fill="none" style="stroke:#000000;stroke-width:1;"/></g><g class="participant participant-tail" data-participant="Tech"><text fill="#000000" font-family="Verdana" font-size="14" lengthAdjust="spacing" textLength="72.6597" x="10" y="572.2121">T&#233;cnico AD</text><ellipse cx="49.3298" cy="585.314" fill="#FFFFFF" rx="8" ry="8" style="stroke:#000000;stroke-width:1;"/><path d="M49.3298,593.314 L49.3298,620.314 M36.3298,601.314 L62.3298,601.314 M49.3298,620.314 L36.3298,635.314 M49.3298,620.314 L62.3298,635.314" fill="none" style="stroke:#000000;stroke-width:1;"/></g><g class="participant participant-head" data-participant="Windows"><rect fill="#FFFFFF" height="33.0679" rx="2.5" ry="2.5" style="stroke:#000000;stroke-width:1;" width="151.0735" x="187.0953" y="51"/><text fill="#000000" font-family="Verdana" font-size="14" lengthAdjust="spacing" textLength="137.0735" x="194.0953" y="72.9659">Windows Server (AD)</text></g><g class="participant participant-tail" data-participant="Windows"><rect fill="#FFFFFF" height="33.0679" rx="2.5" ry="2.5" style="stroke:#000000;stroke-width:1;" width="151.0735" x="187.0953" y="557.2461"/><text fill="#000000" font-family="Verdana" font-size="14" lengthAdjust="spacing" textLength="137.0735" x="194.0953" y="579.2121">Windows Server (AD)</text></g><g class="participant participant-head" data-participant="Agent"><rect fill="#FFFFFF" height="33.0679" rx="2.5" ry="2.5" style="stroke:#000000;stroke-width:1;" width="111.1316" x="384.7743" y="51"/><text fill="#000000" font-family="Verdana" font-size="14" lengthAdjust="spacing" textLength="97.1316" x="391.7743" y="72.9659">Agente Python</text></g><g class="participant participant-tail" data-participant="Agent"><rect fill="#FFFFFF" height="33.0679" rx="2.5" ry="2.5" style="stroke:#000000;stroke-width:1;" width="111.1316" x="384.7743" y="557.2461"/><text fill="#000000" font-family="Verdana" font-size="14" lengthAdjust="spacing" textLength="97.1316" x="391.7743" y="579.2121">Agente Python</text></g><g class="participant participant-head" data-participant="API"><rect fill="#FFFFFF" height="33.0679" rx="2.5" ry="2.5" style="stroke:#000000;stroke-width:1;" width="87.2197" x="561.3293" y="51"/><text fill="#000000" font-family="Verdana" font-size="14" lengthAdjust="spacing" textLength="73.2197" x="568.3293" y="72.9659">API Django</text></g><g class="participant participant-tail" data-participant="API"><rect fill="#FFFFFF" height="33.0679" rx="2.5" ry="2.5" style="stroke:#000000;stroke-width:1;" width="87.2197" x="561.3293" y="557.2461"/><text fill="#000000" font-family="Verdana" font-size="14" lengthAdjust="spacing" textLength="73.2197" x="568.3293" y="579.2121">API Django</text></g><g class="participant participant-head" data-participant="Signal"><rect fill="#FFFFFF" height="33.0679" rx="2.5" ry="2.5" style="stroke:#000000;stroke-width:1;" width="126.7836" x="678.5491" y="51"/><text fill="#000000" font-family="Verdana" font-size="14" lengthAdjust="spacing" textLength="112.7836" x="685.5491" y="72.9659">Signal (Observer)</text></g><g class="participant participant-tail" data-participant="Signal"><rect fill="#FFFFFF" height="33.0679" rx="2.5" ry="2.5" style="stroke:#000000;stroke-width:1;" width="126.7836" x="678.5491" y="557.2461"/><text fill="#000000" font-family="Verdana" font-size="14" lengthAdjust="spacing" textLength="112.7836" x="685.5491" y="579.2121">Signal (Observer)</text></g><g class="participant participant-head" data-participant="LogDB"><text fill="#000000" font-family="Verdana" font-size="14" lengthAdjust="spacing" textLength="79.7577" x="917.7672" y="80.9659">AuditoriaAD</text><path d="M942.646,30 C942.646,20 960.646,20 960.646,20 C960.646,20 978.646,20 978.646,30 L978.646,56 C978.646,66 960.646,66 960.646,66 C960.646,66 942.646,66 942.646,56 L942.646,30" fill="#FFFFFF" style="stroke:#000000;stroke-width:1;"/><path d="M942.646,30 C942.646,40 960.646,40 960.646,40 C960.646,40 978.646,40 978.646,30" fill="none" style="stroke:#000000;stroke-width:1;"/></g><g class="participant participant-tail" data-participant="LogDB"><text fill="#000000" font-family="Verdana" font-size="14" lengthAdjust="spacing" textLength="79.7577" x="917.7672" y="572.2121">AuditoriaAD</text><path d="M942.646,586.314 C942.646,576.314 960.646,576.314 960.646,576.314 C960.646,576.314 978.646,576.314 978.646,586.314 L978.646,612.314 C978.646,622.314 960.646,622.314 960.646,622.314 C960.646,622.314 942.646,622.314 942.646,612.314 L942.646,586.314" fill="#FFFFFF" style="stroke:#000000;stroke-width:1;"/><path d="M942.646,586.314 C942.646,596.314 960.646,596.314 960.646,596.314 C960.646,596.314 978.646,596.314 978.646,586.314" fill="none" style="stroke:#000000;stroke-width:1;"/></g><g class="participant participant-head" data-participant="TicketDB"><text fill="#000000" font-family="Verdana" font-size="14" lengthAdjust="spacing" textLength="68.5437" x="1013.5249" y="80.9659">Incidentes</text><path d="M1032.7967,30 C1032.7967,20 1050.7967,20 1050.7967,20 C1050.7967,20 1068.7967,20 1068.7967,30 L1068.7967,56 C1068.7967,66 1050.7967,66 1050.7967,66 C1050.7967,66 1032.7967,66 1032.7967,56 L1032.7967,30" fill="#FFFFFF" style="stroke:#000000;stroke-width:1;"/><path d="M1032.7967,30 C1032.7967,40 1050.7967,40 1050.7967,40 C1050.7967,40 1068.7967,40 1068.7967,30" fill="none" style="stroke:#000000;stroke-width:1;"/></g><g class="participant participant-tail" data-participant="TicketDB"><text fill="#000000" font-family="Verdana" font-size="14" lengthAdjust="spacing" textLength="68.5437" x="1013.5249" y="572.2121">Incidentes</text><path d="M1032.7967,586.314 C1032.7967,576.314 1050.7967,576.314 1050.7967,576.314 C1050.7967,576.314 1068.7967,576.314 1068.7967,586.314 L1068.7967,612.314 C1068.7967,622.314 1050.7967,622.314 1050.7967,622.314 C1050.7967,622.314 1032.7967,622.314 1032.7967,612.314 L1032.7967,586.314" fill="#FFFFFF" style="stroke:#000000;stroke-width:1;"/><path d="M1032.7967,586.314 C1032.7967,596.314 1050.7967,596.314 1050.7967,596.314 C1050.7967,596.314 1068.7967,596.314 1068.7967,586.314" fill="none" style="stroke:#000000;stroke-width:1;"/></g><g><title>Agente Python</title><rect fill="#FFFFFF" height="76.412" style="stroke:#000000;stroke-width:1;" width="10" x="435.3401" y="195.186"/></g><g><title>API Django</title><rect fill="#FFFFFF" height="268.6481" style="stroke:#000000;stroke-width:1;" width="10" x="599.9392" y="271.598"/></g><g><title>Signal .Observer.</title><rect fill="#FFFFFF" height="181.5301" style="stroke:#000000;stroke-width:1;" width="10" x="736.9409" y="335.01"/></g><g class="message" data-participant-1="Tech" data-participant-2="Windows"><polygon fill="#000000" points="250.632,114.7739,260.632,118.7739,250.632,122.7739,254.632,118.7739" style="stroke:#000000;stroke-width:1;"/><line style="stroke:#000000;stroke-width:1;" x1="49.3298" x2="256.632" y1="118.7739" y2="118.7739"/><text fill="#000000" font-family="Verdana" font-size="13" font-weight="bold" lengthAdjust="spacing" textLength="7.436" x="56.3298" y="112.9649">1</text><text fill="#000000" font-family="Verdana" font-size="13" lengthAdjust="spacing" textLength="177.8661" x="67.7659" y="112.9649">Cria Usu&#225;rio (fora do padr&#227;o)</text></g><g class="message" data-participant-1="Windows" data-participant-2="Windows"><line style="stroke:#000000;stroke-width:1;" x1="262.632" x2="304.632" y1="150.4799" y2="150.4799"/><line style="stroke:#000000;stroke-width:1;" x1="304.632" x2="304.632" y1="150.4799" y2="163.4799"/><line style="stroke:#000000;stroke-width:1;" x1="263.632" x2="304.632" y1="163.4799" y2="163.4799"/><polygon fill="#000000" points="273.632,159.4799,263.632,163.4799,273.632,167.4799,269.632,163.4799" style="stroke:#000000;stroke-width:1;"/><text fill="#000000" font-family="Verdana" font-size="13" font-weight="bold" lengthAdjust="spacing" textLength="7.436" x="269.632" y="144.6709">2</text><text fill="#000000" font-family="Verdana" font-size="13" lengthAdjust="spacing" textLength="111.5141" x="281.068" y="144.6709">Gera Event Viewer</text></g><g class="message" data-participant-1="Windows" data-participant-2="Agent"><polygon fill="#000000" points="423.3401,191.186,433.3401,195.186,423.3401,199.186,427.3401,195.186" style="stroke:#000000;stroke-width:1;"/><line style="stroke:#000000;stroke-width:1;" x1="262.632" x2="429.3401" y1="195.186" y2="195.186"/><text fill="#000000" font-family="Verdana" font-size="13" font-weight="bold" lengthAdjust="spacing" textLength="7.436" x="269.632" y="189.377">3</text><text fill="#000000" font-family="Verdana" font-size="13" lengthAdjust="spacing" textLength="142.2721" x="281.068" y="189.377">Novo evento detectado</text></g><g class="message" data-participant-1="Agent" data-participant-2="Agent"><line style="stroke:#000000;stroke-width:1;" x1="445.3401" x2="487.3401" y1="226.892" y2="226.892"/><line style="stroke:#000000;stroke-width:1;" x1="487.3401" x2="487.3401" y1="226.892" y2="239.892"/><line style="stroke:#000000;stroke-width:1;" x1="446.3401" x2="487.3401" y1="239.892" y2="239.892"/><polygon fill="#000000" points="456.3401,235.892,446.3401,239.892,456.3401,243.892,452.3401,239.892" style="stroke:#000000;stroke-width:1;"/><text fill="#000000" font-family="Verdana" font-size="13" font-weight="bold" lengthAdjust="spacing" textLength="7.436" x="452.3401" y="221.083">4</text><text fill="#000000" font-family="Verdana" font-size="13" lengthAdjust="spacing" textLength="90.8831" x="463.7761" y="221.083">Formatar JSON</text></g><g class="message" data-participant-1="Agent" data-participant-2="API"><polygon fill="#000000" points="587.9392,267.598,597.9392,271.598,587.9392,275.598,591.9392,271.598" style="stroke:#000000;stroke-width:1;"/><line style="stroke:#000000;stroke-width:1;" x1="440.3401" x2="593.9392" y1="271.598" y2="271.598"/><text fill="#000000" font-family="Verdana" font-size="13" font-weight="bold" lengthAdjust="spacing" textLength="7.436" x="447.3401" y="265.789">5</text><text fill="#000000" font-family="Verdana" font-size="13" lengthAdjust="spacing" textLength="124.1631" x="458.7761" y="265.789">POST /api/auditoria/</text></g><g class="message" data-participant-1="API" data-participant-2="LogDB"><polygon fill="#000000" points="948.646,299.304,958.646,303.304,948.646,307.304,952.646,303.304" style="stroke:#000000;stroke-width:1;"/><line style="stroke:#000000;stroke-width:1;" x1="609.9392" x2="954.646" y1="303.304" y2="303.304"/><text fill="#000000" font-family="Verdana" font-size="13" font-weight="bold" lengthAdjust="spacing" textLength="7.436" x="616.9392" y="297.495">6</text><text fill="#000000" font-family="Verdana" font-size="13" lengthAdjust="spacing" textLength="121.4071" x="628.3752" y="297.495">INSERT AuditoriaAD</text></g><g class="message" data-participant-1="API" data-participant-2="Signal"><polygon fill="#000000" points="724.9409,331.01,734.9409,335.01,724.9409,339.01,728.9409,335.01" style="stroke:#000000;stroke-width:1;"/><line style="stroke:#000000;stroke-width:1;" x1="609.9392" x2="730.9409" y1="335.01" y2="335.01"/><text fill="#000000" font-family="Verdana" font-size="13" font-weight="bold" lengthAdjust="spacing" textLength="7.436" x="616.9392" y="329.201">7</text><text fill="#000000" font-family="Verdana" font-size="13" lengthAdjust="spacing" textLength="67.8081" x="628.3752" y="329.201">post_save()</text></g><g class="message" data-participant-1="Signal" data-participant-2="LogDB"><polygon fill="#000000" points="948.646,362.716,958.646,366.716,948.646,370.716,952.646,366.716" style="stroke:#000000;stroke-width:1;"/><line style="stroke:#000000;stroke-width:1;" x1="746.9409" x2="954.646" y1="366.716" y2="366.716"/><text fill="#000000" font-family="Verdana" font-size="13" font-weight="bold" lengthAdjust="spacing" textLength="7.436" x="753.9409" y="360.907">8</text><text fill="#000000" font-family="Verdana" font-size="13" lengthAdjust="spacing" textLength="102.3491" x="765.3769" y="360.907">consultar evento</text></g><g class="message" data-participant-1="Signal" data-participant-2="Signal"><line style="stroke:#000000;stroke-width:1;" x1="746.9409" x2="788.9409" y1="398.4221" y2="398.4221"/><line style="stroke:#000000;stroke-width:1;" x1="788.9409" x2="788.9409" y1="398.4221" y2="411.4221"/><line style="stroke:#000000;stroke-width:1;" x1="747.9409" x2="788.9409" y1="411.4221" y2="411.4221"/><polygon fill="#000000" points="757.9409,407.4221,747.9409,411.4221,757.9409,415.4221,753.9409,411.4221" style="stroke:#000000;stroke-width:1;"/><text fill="#000000" font-family="Verdana" font-size="13" font-weight="bold" lengthAdjust="spacing" textLength="7.436" x="753.9409" y="392.6131">9</text><text fill="#000000" font-family="Verdana" font-size="13" lengthAdjust="spacing" textLength="92.3521" x="765.3769" y="392.6131">verificar regras</text></g><path d="M658.5491,426.4221 L721.0081,426.4221 L721.0081,436.1281 L711.0081,446.1281 L658.5491,446.1281 L658.5491,426.4221" fill="#FFFFFF" style="stroke:#000000;stroke-width:1;"/><rect fill="none" height="83.118" style="stroke:#000000;stroke-width:1;" width="439.5195" x="658.5491" y="426.4221"/><text fill="#000000" font-family="Verdana" font-size="13" font-weight="bold" lengthAdjust="spacing" textLength="17.459" x="673.5491" y="441.3191">alt</text><text fill="#000000" font-family="Verdana" font-size="11" font-weight="bold" lengthAdjust="spacing" textLength="113.1562" x="736.0081" y="440.181">[Viola&#231;&#227;o Detectada]</text><g class="message" data-participant-1="Signal" data-participant-2="TicketDB"><polygon fill="#000000" points="1038.7967,465.8341,1048.7967,469.8341,1038.7967,473.8341,1042.7967,469.8341" style="stroke:#000000;stroke-width:1;"/><line style="stroke:#000000;stroke-width:1;" x1="746.9409" x2="1044.7967" y1="469.8341" y2="469.8341"/><text fill="#000000" font-family="Verdana" font-size="13" font-weight="bold" lengthAdjust="spacing" textLength="14.872" x="753.9409" y="464.0251">10</text><text fill="#000000" font-family="Verdana" font-size="13" lengthAdjust="spacing" textLength="233.8052" x="772.8129" y="464.0251">INSERT Incidente(status="PENDENTE")</text></g><g class="message" data-participant-1="Signal" data-participant-2="LogDB"><polygon fill="#000000" points="948.646,497.5401,958.646,501.5401,948.646,505.5401,952.646,501.5401" style="stroke:#000000;stroke-width:1;"/><line style="stroke:#000000;stroke-width:1;" x1="746.9409" x2="954.646" y1="501.5401" y2="501.5401"/><text fill="#000000" font-family="Verdana" font-size="13" font-weight="bold" lengthAdjust="spacing" textLength="14.872" x="753.9409" y="495.7311">11</text><text fill="#000000" font-family="Verdana" font-size="13" lengthAdjust="spacing" textLength="170.8331" x="772.8129" y="495.7311">UPDATE violou_regras=True</text></g><g class="message" data-participant-1="API" data-participant-2="Agent"><polygon fill="#000000" points="451.3401,536.2461,441.3401,540.2461,451.3401,544.2461,447.3401,540.2461" style="stroke:#000000;stroke-width:1;"/><line style="stroke:#000000;stroke-width:1;stroke-dasharray:2,2;" x1="445.3401" x2="603.9392" y1="540.2461" y2="540.2461"/><text fill="#000000" font-family="Verdana" font-size="13" font-weight="bold" lengthAdjust="spacing" textLength="14.872" x="457.3401" y="534.4371">12</text><text fill="#000000" font-family="Verdana" font-size="13" lengthAdjust="spacing" textLength="57.6421" x="476.2121" y="534.4371">HTTP 201</text></g><!--SRC=[NP7FZjCm48VlVeeXf_I02XmhBL8X0OfG6f4i75TJsviQKazaErdnE8W3uZdwOap-RTFwQ7_-pSmtBy9HdpGqDHehi0raszD1Eo5G1d8GbUT_qXf9i4qYG0-bbaVHe0j6cWPjWEYxiOgUF1JQTTf1l4rM0pdTNyFRIjkW8VyLZcG7RBYvWV8T93_GLZGI-UxwlJ2LnHhY_S4FDSTwuwrG6F20NdDCgmpFO71g_GjLoRl5-yvAe_fs_3YPaJzrO4BqCyBBj_C4i87td0BtlZt_TeOWVYI7e0WQLExyXrPY9gy-VTHCfHrNW6z6F_LI5zmmDrCPTGIwfmYK3be6LDJRDnsogL7F22z-VI1tua4SV2xssUAPpMqWtnSbhB4nQvmLh8NIDvcB6You_ya1WoEEs6L5-hM4XSAPcEHle24V7ZnsEbvTegObY8bQ94golgtxbiTX5yXp9E_IF1h9ZDELGyyzrhqygl7ybqL3CWb20Nmk2VFkBfq_BpVs0KFhxw8ypP8qAzDeTVDvxl0-JxPb2XsNe_PXxE2kTAqMsYgn53XDEHXPBELJMURmvjNhAzVizZy0]--></g></svg>